<svg id="Capa_1" data-name="Capa 1" xmlns="http://www.w3.org/2000/svg" viewBox="0 0 50 50"><defs><style>.cls-1{fill:#fff;}</style></defs><rect class="cls-1" x="6" y="6" width="38" height="38" rx="7.96"/><path d="M36,7a7,7,0,0,1,7,7V36a7,7,0,0,1-7,7H14a7,7,0,0,1-7-7V14a7,7,0,0,1,7-7H36m0-2H14a9,9,0,0,0-9,9V36a9,9,0,0,0,9,9H36a9,9,0,0,0,9-9V14a9,9,0,0,0-9-9Z"/><path d="M16.45,30.27a6.64,6.64,0,0,0,3.24,2.14c.55.22.61.39.19.77a1.34,1.34,0,0,0-.34.44c-.51,1-1.42,1.06-2.37.91a10,10,0,0,1-5.35-2.59,2.8,2.8,0,0,1-.73-2.54,33.82,33.82,0,0,1,3.15-11.87,2.78,2.78,0,0,1,1-1.19,13,13,0,0,1,5.69-2.08c.25,0,.69-.15.75.13s-.4.3-.63.37A15.6,15.6,0,0,0,16.41,17a22.2,22.2,0,0,1,17.74.05c-.06-.35-.28-.4-.43-.49a20,20,0,0,0-3.91-1.77c-.2-.06-.56,0-.51-.33s.4-.26.65-.25A12.92,12.92,0,0,1,34,15.33a5.93,5.93,0,0,1,3.56,3.78A33.74,33.74,0,0,1,40,30.36a1.76,1.76,0,0,1-.51,1.31,9.22,9.22,0,0,1-5.64,2.85c-.46.07-1,.37-1.41,0A12.12,12.12,0,0,1,31,33c-.22-.28,0-.34.24-.41a9.47,9.47,0,0,0,3-1.61,2.91,2.91,0,0,0,.69-.78c-.77.35-1.52.72-2.3,1a18.26,18.26,0,0,1-15.75-.82l-.38-.16c-.05-.09-.17-.14-.21-.06S16.38,30.24,16.45,30.27Zm16-4.25a2.5,2.5,0,1,0-5-.07,2.5,2.5,0,1,0,5,.07Zm-14-.07a2.52,2.52,0,1,0,5,.08,2.66,2.66,0,0,0-2.55-2.74A2.63,2.63,0,0,0,18.43,26Zm16-8.86s0,0-.05,0l0,0,0,0S34.36,17.11,34.38,17.09Z"/></svg>