<svg id="Capa_1" data-name="Capa 1" xmlns="http://www.w3.org/2000/svg" viewBox="0 0 50 50"><defs><style>.cls-1{fill:#fff;}</style></defs><rect class="cls-1" x="6" y="6" width="38" height="38" rx="7.96"/><path d="M36,7a7,7,0,0,1,7,7V36a7,7,0,0,1-7,7H14a7,7,0,0,1-7-7V14a7,7,0,0,1,7-7H36m0-2H14a9,9,0,0,0-9,9V36a9,9,0,0,0,9,9H36a9,9,0,0,0,9-9V14a9,9,0,0,0-9-9Z"/><path d="M12.29,14.79H20c.43,0,.86,0,1.29.08a8.83,8.83,0,0,1,1.2.2,3.14,3.14,0,0,1,1,.39A4.79,4.79,0,0,1,24.94,17a4.46,4.46,0,0,1,.61,2.4,4.7,4.7,0,0,1-.7,2.6,4.09,4.09,0,0,1-1.94,1.63v.06a4,4,0,0,1,2.52,1.58,5,5,0,0,1,.87,3,6,6,0,0,1-.35,2,5,5,0,0,1-2.73,2.95,5.51,5.51,0,0,1-2.33.46h-8.6Zm2.36,8.12h4.74a4.5,4.5,0,0,0,2.91-.75,2.83,2.83,0,0,0,.88-2.27,3.51,3.51,0,0,0-.3-1.57,2.14,2.14,0,0,0-.82-.91A2.94,2.94,0,0,0,20.85,17a9.66,9.66,0,0,0-1.46-.1H14.65Zm0,8.66h5.94A3.26,3.26,0,0,0,23,30.65a3.36,3.36,0,0,0,.9-2.47,3.35,3.35,0,0,0-.32-1.54,2.76,2.76,0,0,0-.86-1,3.53,3.53,0,0,0-1.24-.51A7.56,7.56,0,0,0,20.07,25H14.65Z"/><path d="M38.82,29.34a5.65,5.65,0,0,1-1.88,3.47A5.51,5.51,0,0,1,33.29,34a6.19,6.19,0,0,1-2.68-.54A5.32,5.32,0,0,1,28.7,32a6.18,6.18,0,0,1-1.16-2.27,11.36,11.36,0,0,1-.44-2.89A8.67,8.67,0,0,1,27.55,24a6.94,6.94,0,0,1,1.26-2.27,5.76,5.76,0,0,1,1.92-1.48,5.61,5.61,0,0,1,2.43-.53,5,5,0,0,1,2.85.76,5.66,5.66,0,0,1,1.82,1.92,7.62,7.62,0,0,1,1,2.54A10.85,10.85,0,0,1,39,27.52H29.34a5.87,5.87,0,0,0,.2,1.7,3.94,3.94,0,0,0,.72,1.43,3.64,3.64,0,0,0,1.28,1,4.25,4.25,0,0,0,1.82.37,3.52,3.52,0,0,0,2.19-.66,3.3,3.3,0,0,0,1.15-2Zm-2.07-3.81A5.11,5.11,0,0,0,36.41,24a4.07,4.07,0,0,0-.77-1.23A3.7,3.7,0,0,0,34.48,22a3.73,3.73,0,0,0-2.93,0,3.38,3.38,0,0,0-1.14.84A4,4,0,0,0,29.67,24a4.83,4.83,0,0,0-.33,1.49Z"/><rect class="cls-1" x="29.5" y="17.5" width="7" height="1"/><polygon points="37 17 29 17 29 19 37 19 37 17 37 17"/></svg>