<svg id="Capa_1" data-name="Capa 1" xmlns="http://www.w3.org/2000/svg" viewBox="0 0 50 50"><defs><style>.cls-1{fill:#fff;}</style></defs><rect class="cls-1" x="6" y="6" width="38" height="38" rx="7.96"/><path d="M36,7a7,7,0,0,1,7,7V36a7,7,0,0,1-7,7H14a7,7,0,0,1-7-7V14a7,7,0,0,1,7-7H36m0-2H14a9,9,0,0,0-9,9V36a9,9,0,0,0,9,9H36a9,9,0,0,0,9-9V14a9,9,0,0,0-9-9Z"/><path d="M26.6,37.48V32.8h3.2c0-.25,0-.42,0-.6,0-2.3,0-4.6,0-6.9,0-.48-.13-.63-.62-.63-2.32,0-4.64,0-7,0-.3,0-.57,0-.56.42q0,3.73,0,7.45a1.57,1.57,0,0,0,.08.25h3.09v4.68H13.75V34.93c0-.55,0-1.1,0-1.65,0-.38.13-.5.5-.49.75,0,1.5,0,2.26,0,.37,0,.49-.14.49-.5,0-2.36,0-4.72,0-7.08,0-.45-.18-.56-.58-.55-.86,0-1.71,0-2.61,0V20h3.11a22.82,22.82,0,0,1,.22-2.29A7,7,0,0,1,23.78,12c.88,0,1.78,0,2.7,0v4.72c-.68,0-1.36,0-2,0a2.53,2.53,0,0,0-2.66,3.25H34.45c0,.31,0,.57,0,.82,0,3.77,0,7.53,0,11.3,0,.58.13.8.73.76a16,16,0,0,1,2.08,0c.15,0,.41.22.42.34,0,1.42,0,2.85,0,4.33Z"/><path d="M32.2,12a2.27,2.27,0,0,1,2.28,2.4,2.32,2.32,0,0,1-2.39,2.31,2.38,2.38,0,0,1-2.31-2.42A2.33,2.33,0,0,1,32.2,12Z"/></svg>