<!-- Generator: Adobe Illustrator 24.1.2, SVG Export Plug-In  -->
<svg version="1.1" xmlns="http://www.w3.org/2000/svg" xmlns:xlink="http://www.w3.org/1999/xlink" x="0px" y="0px"
	 width="146.299px" height="75.636px" viewBox="0 0 146.299 75.636"
	 style="overflow:visible;enable-background:new 0 0 146.299 75.636;" xml:space="preserve">
<defs>
</defs>
<g>
	<g>
		<g>
			<g>
				<g>
					<path d="M103.76,21.521c-2.967-2.994-7.8-3.016-10.794-0.049l10.745,10.842C106.705,29.347,106.727,24.515,103.76,21.521z"/>
					<path d="M103.76,21.521c2.967,2.994,2.945,7.827-0.049,10.794l1.93,1.948c4.07-4.033,4.099-10.602,0.066-14.672
						c-3.706-3.74-9.553-4.067-13.635-0.967l-3.43-3.461l-0.974,0.965l5.297,5.345C95.96,18.505,100.793,18.527,103.76,21.521z"/>
					<path d="M103.117,14.35c1.574-1.569,1.307-4.405-0.596-6.334c-1.677-1.7-4.064-2.128-5.684-1.132L95.433,5.46l-1.019,1.016
						l1.389,1.408c-1.076,1.621-0.687,4.082,1.021,5.813C98.725,15.627,101.543,15.919,103.117,14.35z M97.4,8.554
						c1.038-1.035,2.896-0.842,4.151,0.43c1.255,1.272,1.431,3.142,0.393,4.177c-1.038,1.035-2.896,0.842-4.151-0.43
						C96.538,11.458,96.362,9.588,97.4,8.554z"/>
					<path d="M85.764,31.082c1.574-1.569,1.307-4.405-0.596-6.334c-1.677-1.7-4.064-2.128-5.684-1.132l-1.405-1.424l-1.019,1.016
						l1.389,1.408c-1.076,1.621-0.687,4.082,1.021,5.813C81.372,32.359,84.19,32.651,85.764,31.082z M80.047,25.285
						c1.038-1.035,2.896-0.842,4.151,0.43c1.255,1.272,1.431,3.142,0.393,4.177c-1.038,1.035-2.896,0.842-4.151-0.43
						C79.185,28.19,79.01,26.32,80.047,25.285z"/>
					<path d="M97.893,1.118L95.23,0.004c-2.348,5.837-5.743,10.374-9.245,13.836l1.98,1.998C95.301,8.527,97.893,1.118,97.893,1.118
						z"/>
				</g>
				<g>
					<path d="M92.917,32.266c-2.967-2.994-2.945-7.827,0.049-10.794l10.745,10.842C100.717,35.282,95.884,35.26,92.917,32.266z"/>
					<path d="M92.917,32.266c2.967,2.994,7.8,3.016,10.794,0.049l1.93,1.948c-4.07,4.033-10.638,4.004-14.672-0.066
						c-3.706-3.74-3.981-9.589-0.844-13.643l-3.43-3.461l0.974-0.965l5.297,5.345C89.972,24.439,89.95,29.272,92.917,32.266z"/>
					<path d="M73.156,25.632l-1.09-2.673c5.858-2.295,10.426-5.65,13.918-9.12l1.98,1.998
						C80.588,23.108,73.156,25.632,73.156,25.632z"/>
				</g>
			</g>
			<g>
				<g>
					<path d="M114.606,21.517c2.967-2.994,7.8-3.016,10.794-0.049l-10.745,10.842C111.66,29.344,111.639,24.511,114.606,21.517z"/>
					<path d="M114.606,21.517c-2.967,2.994-2.945,7.827,0.049,10.794l-1.93,1.948c-4.07-4.033-4.099-10.602-0.066-14.672
						c3.706-3.74,9.553-4.067,13.635-0.967l3.43-3.461l0.974,0.965l-5.297,5.345C122.406,18.501,117.573,18.523,114.606,21.517z"/>
					<path d="M121.543,13.694c1.708-1.732,2.096-4.193,1.021-5.813l1.389-1.408l-1.019-1.016l-1.405,1.424
						c-1.62-0.996-4.007-0.568-5.684,1.132c-1.902,1.929-2.169,4.765-0.596,6.334S119.64,15.623,121.543,13.694z M120.572,12.727
						c-1.255,1.272-3.113,1.465-4.151,0.43c-1.038-1.035-0.862-2.905,0.393-4.177c1.255-1.272,3.113-1.465,4.151-0.43
						C122.003,9.584,121.827,11.454,120.572,12.727z"/>
					<path d="M138.896,30.426c1.708-1.732,2.096-4.193,1.021-5.813l1.389-1.408l-1.019-1.016l-1.405,1.424
						c-1.62-0.996-4.007-0.568-5.684,1.132c-1.902,1.929-2.169,4.765-0.596,6.334S136.993,32.355,138.896,30.426z M137.925,29.459
						c-1.255,1.272-3.113,1.465-4.151,0.43c-1.038-1.035-0.862-2.905,0.393-4.177c1.255-1.272,3.113-1.465,4.151-0.43
						C139.356,26.316,139.18,28.186,137.925,29.459z"/>
					<path d="M120.473,1.114L123.136,0c2.348,5.837,5.743,10.374,9.245,13.836l-1.98,1.998
						C123.064,8.523,120.473,1.114,120.473,1.114z"/>
				</g>
				<g>
					<path d="M125.448,32.262c2.967-2.994,2.945-7.827-0.049-10.794l-10.745,10.842C117.648,35.278,122.481,35.256,125.448,32.262z"
						/>
					<path d="M125.448,32.262c-2.967,2.994-7.8,3.016-10.794,0.049l-1.93,1.948c4.07,4.033,10.638,4.004,14.672-0.066
						c3.706-3.74,3.981-9.589,0.844-13.643l3.43-3.461l-0.974-0.965l-5.297,5.345C128.394,24.435,128.415,29.268,125.448,32.262z"/>
					<path d="M145.209,25.629l1.09-2.673c-5.858-2.295-10.426-5.65-13.918-9.12l-1.98,1.998
						C137.778,23.104,145.209,25.629,145.209,25.629z"/>
				</g>
			</g>
			<g>
				<g>
					<path d="M103.76,54.106c-2.967,2.994-7.8,3.016-10.794,0.049l10.745-10.842C106.705,46.28,106.727,51.112,103.76,54.106z"/>
					<path d="M103.76,54.106c2.967-2.994,2.945-7.827-0.049-10.794l1.93-1.948c4.07,4.033,4.099,10.602,0.066,14.672
						c-3.706,3.74-9.553,4.067-13.635,0.967l-3.43,3.461L87.669,59.5l5.297-5.345C95.96,57.122,100.793,57.1,103.76,54.106z"/>
					<path d="M96.823,61.929c-1.708,1.732-2.096,4.193-1.021,5.813l-1.389,1.408l1.019,1.016l1.405-1.424
						c1.62,0.996,4.007,0.568,5.684-1.132c1.902-1.929,2.169-4.765,0.596-6.334S98.725,60,96.823,61.929z M97.793,62.897
						c1.255-1.272,3.113-1.465,4.151-0.43c1.038,1.035,0.862,2.905-0.393,4.177c-1.255,1.272-3.113,1.465-4.151,0.43
						C96.362,66.039,96.538,64.169,97.793,62.897z"/>
					<path d="M79.47,45.197c-1.708,1.732-2.096,4.193-1.021,5.813l-1.389,1.408l1.019,1.016l1.405-1.424
						c1.62,0.996,4.007,0.568,5.684-1.132c1.903-1.929,2.169-4.765,0.596-6.334C84.19,42.976,81.372,43.268,79.47,45.197z
						 M80.44,46.165c1.255-1.272,3.113-1.465,4.151-0.43c1.038,1.035,0.862,2.905-0.393,4.177c-1.255,1.272-3.113,1.465-4.151,0.43
						C79.01,49.307,79.185,47.437,80.44,46.165z"/>
					<path d="M97.893,74.509l-2.663,1.114c-2.348-5.837-5.743-10.374-9.245-13.836l1.98-1.998
						C95.301,67.1,97.893,74.509,97.893,74.509z"/>
				</g>
				<g>
					<path d="M92.917,43.361c-2.967,2.994-2.945,7.827,0.049,10.794l10.745-10.842C100.717,40.345,95.884,40.367,92.917,43.361z"/>
					<path d="M92.917,43.361c2.967-2.994,7.8-3.016,10.794-0.049l1.93-1.948c-4.07-4.033-10.638-4.004-14.672,0.066
						c-3.706,3.74-3.981,9.589-0.844,13.643l-3.43,3.461l0.974,0.965l5.297-5.345C89.972,51.188,89.95,46.355,92.917,43.361z"/>
					<path d="M73.156,49.995l-1.09,2.673c5.858,2.295,10.426,5.65,13.918,9.12l1.98-1.998
						C80.588,52.519,73.156,49.995,73.156,49.995z"/>
				</g>
			</g>
			<g>
				<g>
					<path d="M114.606,54.11c2.967,2.994,7.8,3.016,10.794,0.049l-10.745-10.842C111.66,46.283,111.639,51.116,114.606,54.11z"/>
					<path d="M114.606,54.11c-2.967-2.994-2.945-7.827,0.049-10.794l-1.93-1.948c-4.07,4.033-4.099,10.602-0.066,14.672
						c3.706,3.74,9.553,4.067,13.635,0.967l3.43,3.461l0.974-0.965l-5.297-5.345C122.406,57.126,117.573,57.104,114.606,54.11z"/>
					<path d="M115.249,61.28c-1.574,1.569-1.307,4.405,0.596,6.334c1.677,1.7,4.064,2.128,5.684,1.132l1.405,1.424l1.019-1.016
						l-1.389-1.408c1.076-1.621,0.687-4.082-1.021-5.813C119.64,60.004,116.822,59.712,115.249,61.28z M120.965,67.077
						c-1.038,1.035-2.896,0.842-4.151-0.43c-1.255-1.272-1.431-3.142-0.393-4.177c1.038-1.035,2.896-0.842,4.151,0.43
						C121.827,64.173,122.003,66.043,120.965,67.077z"/>
					<path d="M132.602,44.549c-1.574,1.569-1.307,4.405,0.596,6.334c1.677,1.7,4.064,2.128,5.684,1.132l1.405,1.424l1.019-1.016
						l-1.389-1.408c1.076-1.621,0.687-4.082-1.021-5.813C136.993,43.272,134.175,42.98,132.602,44.549z M138.318,50.346
						c-1.038,1.035-2.896,0.842-4.151-0.43s-1.431-3.142-0.393-4.177c1.038-1.035,2.896-0.842,4.151,0.43
						C139.18,47.441,139.356,49.311,138.318,50.346z"/>
					<path d="M120.473,74.513l2.663,1.114c2.348-5.837,5.743-10.374,9.245-13.836l-1.98-1.998
						C123.064,67.104,120.473,74.513,120.473,74.513z"/>
				</g>
				<g>
					<path d="M125.448,43.365c2.967,2.994,2.945,7.827-0.049,10.794l-10.745-10.842C117.648,40.349,122.481,40.371,125.448,43.365z"
						/>
					<path d="M125.448,43.365c-2.967-2.994-7.8-3.016-10.794-0.049l-1.93-1.948c4.07-4.033,10.638-4.004,14.672,0.066
						c3.706,3.74,3.981,9.589,0.844,13.643l3.43,3.461l-0.974,0.965l-5.297-5.345C128.394,51.192,128.415,46.359,125.448,43.365z"/>
					<path d="M145.209,49.998l1.09,2.673c-5.858,2.295-10.426,5.65-13.918,9.12l-1.98-1.998
						C137.778,52.523,145.209,49.998,145.209,49.998z"/>
				</g>
			</g>
			<g>
				<g>
					<g>
						<path d="M31.694,21.53c-2.967-2.994-7.8-3.016-10.794-0.049l10.745,10.842C34.639,29.356,34.661,24.524,31.694,21.53z"/>
						<path d="M31.694,21.53c2.967,2.994,2.945,7.827-0.049,10.794l1.93,1.948c4.07-4.033,4.099-10.602,0.066-14.672
							c-3.706-3.74-9.553-4.067-13.635-0.967l-3.43-3.461l-0.974,0.965l5.297,5.345C23.894,18.514,28.727,18.535,31.694,21.53z"/>
						<path d="M31.051,14.359c1.574-1.569,1.307-4.405-0.596-6.334c-1.677-1.7-4.064-2.128-5.684-1.132l-1.405-1.424l-1.019,1.016
							l1.389,1.408c-1.076,1.621-0.687,4.082,1.021,5.813C26.659,15.636,29.477,15.928,31.051,14.359z M25.334,8.562
							c1.038-1.035,2.896-0.842,4.151,0.43c1.255,1.272,1.431,3.142,0.393,4.177c-1.038,1.035-2.896,0.842-4.151-0.43
							C24.472,11.467,24.296,9.597,25.334,8.562z"/>
						<path d="M13.698,31.091c1.574-1.569,1.307-4.405-0.596-6.334c-1.677-1.7-4.064-2.128-5.684-1.132l-1.405-1.424l-1.019,1.016
							l1.389,1.408c-1.076,1.621-0.687,4.082,1.021,5.813C9.306,32.368,12.124,32.66,13.698,31.091z M7.981,25.294
							c1.038-1.035,2.896-0.842,4.151,0.43c1.255,1.272,1.431,3.142,0.393,4.177c-1.038,1.035-2.896,0.842-4.151-0.43
							C7.119,28.199,6.944,26.329,7.981,25.294z"/>
						<path d="M25.827,1.127l-2.663-1.114c-2.348,5.837-5.743,10.374-9.245,13.836l1.98,1.998
							C23.236,8.535,25.827,1.127,25.827,1.127z"/>
					</g>
					<g>
						<path d="M20.851,32.275c-2.967-2.994-2.945-7.827,0.049-10.794l10.745,10.842C28.651,35.29,23.818,35.269,20.851,32.275z"/>
						<path d="M20.851,32.275c2.967,2.994,7.8,3.016,10.794,0.049l1.93,1.948c-4.07,4.033-10.638,4.004-14.672-0.066
							c-3.706-3.74-3.981-9.589-0.844-13.643l-3.43-3.461l0.974-0.965l5.297,5.345C17.906,24.448,17.884,29.28,20.851,32.275z"/>
						<path d="M1.09,25.641L0,22.968c5.858-2.295,10.426-5.65,13.918-9.12l1.98,1.998C8.522,23.117,1.09,25.641,1.09,25.641z"/>
					</g>
				</g>
				<g>
					<g>
						<path d="M42.54,21.526c2.967-2.994,7.8-3.016,10.794-0.049L42.588,32.32C39.594,29.352,39.573,24.52,42.54,21.526z"/>
						<path d="M42.54,21.526c-2.967,2.994-2.945,7.827,0.049,10.794l-1.93,1.948c-4.07-4.033-4.099-10.602-0.066-14.672
							c3.706-3.74,9.553-4.067,13.635-0.967l3.43-3.461l0.974,0.965l-5.297,5.345C50.34,18.51,45.507,18.532,42.54,21.526z"/>
						<path d="M49.477,13.703c1.708-1.732,2.096-4.193,1.021-5.813l1.389-1.408l-1.019-1.016l-1.405,1.424
							c-1.62-0.996-4.007-0.568-5.684,1.132c-1.902,1.929-2.169,4.765-0.596,6.334S47.574,15.632,49.477,13.703z M48.507,12.736
							c-1.255,1.272-3.113,1.465-4.151,0.43c-1.038-1.035-0.862-2.905,0.393-4.177c1.255-1.272,3.113-1.465,4.151-0.43
							C49.937,9.593,49.761,11.463,48.507,12.736z"/>
						<path d="M66.83,30.435c1.708-1.732,2.096-4.193,1.021-5.813l1.389-1.408l-1.019-1.016l-1.405,1.424
							c-1.62-0.996-4.007-0.568-5.684,1.132c-1.903,1.929-2.169,4.765-0.596,6.334C62.109,32.656,64.927,32.364,66.83,30.435z
							 M65.859,29.467c-1.255,1.272-3.113,1.465-4.151,0.43c-1.038-1.035-0.862-2.905,0.393-4.177
							c1.255-1.272,3.113-1.465,4.151-0.43C67.29,26.325,67.114,28.195,65.859,29.467z"/>
						<path d="M48.407,1.123l2.663-1.114c2.348,5.837,5.743,10.374,9.245,13.836l-1.98,1.998
							C50.998,8.532,48.407,1.123,48.407,1.123z"/>
					</g>
					<g>
						<path d="M53.382,32.271c2.967-2.994,2.945-7.827-0.049-10.794L42.588,32.319C45.582,35.287,50.415,35.265,53.382,32.271z"/>
						<path d="M53.382,32.271c-2.967,2.994-7.8,3.016-10.794,0.049l-1.93,1.948c4.07,4.033,10.638,4.004,14.672-0.066
							c3.706-3.74,3.981-9.589,0.844-13.643l3.43-3.461l-0.974-0.965l-5.297,5.345C56.328,24.444,56.349,29.277,53.382,32.271z"/>
						<path d="M73.143,25.637l1.09-2.673c-5.858-2.295-10.426-5.65-13.918-9.12l-1.98,1.998
							C65.712,23.113,73.143,25.637,73.143,25.637z"/>
					</g>
				</g>
				<g>
					<g>
						<path d="M31.694,54.115c-2.967,2.994-7.8,3.016-10.794,0.049l10.745-10.842C34.639,46.288,34.661,51.121,31.694,54.115z"/>
						<path d="M31.694,54.115c2.967-2.994,2.945-7.827-0.049-10.794l1.93-1.948c4.07,4.033,4.099,10.602,0.066,14.672
							c-3.706,3.74-9.553,4.067-13.635,0.967l-3.43,3.461l-0.974-0.965l5.297-5.345C23.894,57.131,28.727,57.109,31.694,54.115z"/>
						<path d="M24.757,61.938c-1.708,1.732-2.096,4.193-1.021,5.813l-1.389,1.408l1.019,1.016l1.405-1.424
							c1.62,0.996,4.007,0.568,5.684-1.132c1.902-1.929,2.169-4.765,0.596-6.334C29.477,59.717,26.659,60.009,24.757,61.938z
							 M25.727,62.905c1.255-1.272,3.113-1.465,4.151-0.43c1.038,1.035,0.862,2.905-0.393,4.177
							c-1.255,1.272-3.113,1.465-4.151,0.43C24.296,66.048,24.472,64.178,25.727,62.905z"/>
						<path d="M7.404,45.206c-1.708,1.732-2.096,4.193-1.021,5.813l-1.389,1.408l1.019,1.016l1.405-1.424
							c1.62,0.996,4.007,0.568,5.684-1.132c1.902-1.929,2.169-4.765,0.596-6.334S9.306,43.277,7.404,45.206z M8.374,46.174
							c1.255-1.272,3.113-1.465,4.151-0.43c1.038,1.035,0.862,2.905-0.393,4.177c-1.255,1.272-3.113,1.465-4.151,0.43
							C6.944,49.316,7.119,47.446,8.374,46.174z"/>
						<path d="M25.827,74.518l-2.663,1.114c-2.348-5.837-5.743-10.374-9.245-13.836l1.98-1.998
							C23.236,67.109,25.827,74.518,25.827,74.518z"/>
					</g>
					<g>
						<path d="M20.851,43.37c-2.967,2.994-2.945,7.827,0.049,10.794l10.745-10.842C28.651,40.354,23.818,40.376,20.851,43.37z"/>
						<path d="M20.851,43.37c2.967-2.994,7.8-3.016,10.794-0.049l1.93-1.948c-4.07-4.033-10.638-4.004-14.672,0.066
							c-3.706,3.74-3.981,9.589-0.844,13.643l-3.43,3.461l0.974,0.965l5.297-5.345C17.906,51.197,17.884,46.364,20.851,43.37z"/>
						<path d="M1.09,50.003L0,52.676c5.858,2.295,10.426,5.65,13.918,9.12l1.98-1.998C8.522,52.528,1.09,50.003,1.09,50.003z"/>
					</g>
				</g>
				<g>
					<g>
						<path d="M42.54,54.119c2.967,2.994,7.8,3.016,10.794,0.049L42.588,43.325C39.594,46.292,39.573,51.125,42.54,54.119z"/>
						<path d="M42.54,54.119c-2.967-2.994-2.945-7.827,0.049-10.794l-1.93-1.948c-4.07,4.033-4.099,10.602-0.066,14.672
							c3.706,3.74,9.553,4.067,13.635,0.967l3.43,3.461l0.974-0.965l-5.297-5.345C50.34,57.135,45.507,57.113,42.54,54.119z"/>
						<path d="M43.183,61.289c-1.574,1.569-1.307,4.405,0.596,6.334c1.677,1.7,4.064,2.128,5.684,1.132l1.405,1.424l1.019-1.016
							l-1.389-1.408c1.076-1.621,0.687-4.082-1.021-5.813C47.574,60.013,44.756,59.72,43.183,61.289z M48.899,67.086
							c-1.038,1.035-2.896,0.842-4.151-0.43c-1.255-1.272-1.431-3.142-0.393-4.177c1.038-1.035,2.896-0.842,4.151,0.43
							C49.761,64.181,49.937,66.051,48.899,67.086z"/>
						<path d="M60.536,44.557c-1.574,1.569-1.307,4.405,0.596,6.334c1.677,1.7,4.064,2.128,5.684,1.132l1.405,1.424l1.019-1.016
							l-1.389-1.408c1.076-1.621,0.687-4.082-1.021-5.813C64.927,43.281,62.109,42.989,60.536,44.557z M66.252,50.354
							c-1.038,1.035-2.896,0.842-4.151-0.43c-1.255-1.272-1.431-3.142-0.393-4.177c1.038-1.035,2.896-0.842,4.151,0.43
							C67.114,47.45,67.29,49.32,66.252,50.354z"/>
						<path d="M48.407,74.521l2.663,1.114c2.348-5.837,5.743-10.374,9.245-13.836l-1.98-1.998
							C50.998,67.113,48.407,74.521,48.407,74.521z"/>
					</g>
					<g>
						<path d="M53.382,43.374c2.967,2.994,2.945,7.827-0.049,10.794L42.588,43.325C45.582,40.358,50.415,40.38,53.382,43.374z"/>
						<path d="M53.382,43.374c-2.967-2.994-7.8-3.016-10.794-0.049l-1.93-1.948c4.07-4.033,10.638-4.004,14.672,0.066
							c3.706,3.74,3.981,9.589,0.844,13.643l3.43,3.461l-0.974,0.965l-5.297-5.345C56.328,51.2,56.349,46.368,53.382,43.374z"/>
						<path d="M73.143,50.007l1.09,2.673c-5.858,2.295-10.426,5.65-13.918,9.12l-1.98-1.998
							C65.712,52.531,73.143,50.007,73.143,50.007z"/>
					</g>
				</g>
			</g>
		</g>
	</g>
</g>
</svg>