<!-- Generator: Adobe Illustrator 24.1.2, SVG Export Plug-In  -->
<svg version="1.1" xmlns="http://www.w3.org/2000/svg" xmlns:xlink="http://www.w3.org/1999/xlink" x="0px" y="0px"
	 width="143.916px" height="126.999px" viewBox="0 0 143.916 126.999"
	 style="overflow:visible;enable-background:new 0 0 143.916 126.999;" xml:space="preserve">
<style type="text/css">
	.st0{fill:none;}
	.st1{fill:#1D1D1B;}
</style>
<defs>
</defs>
<g>
	<g>
		<path class="st0" d="M104.919,43.66c-0.48,17.38-14.958,31.081-32.339,30.601l1.737-62.94
			C91.698,11.802,105.399,26.28,104.919,43.66z"/>
		
			<ellipse transform="matrix(0.1874 -0.9823 0.9823 0.1874 17.6037 188.5515)" class="st0" cx="122.758" cy="83.636" rx="10.944" ry="10.944"/>
		<path class="st1" d="M104.919,43.66c0.48-17.38-13.221-31.859-30.601-32.339L74.63,0.016
			c23.624,0.652,42.247,20.332,41.595,43.956c-0.599,21.708-17.266,39.192-38.295,41.379l-0.555,20.093l-5.651-0.156l0.856-31.027
			C89.961,74.742,104.44,61.041,104.919,43.66z"/>
		<path class="st1" d="M106.17,83.179c-0.227,8.222,5.569,15.209,13.382,16.738l-0.185,6.687l5.934,0.164l0.187-6.763
			c7.681-1.273,13.635-7.837,13.858-15.91c0.253-9.161-6.969-16.793-16.13-17.046C114.055,66.796,106.423,74.017,106.17,83.179z
			 M111.819,83.335c0.167-6.042,5.2-10.804,11.241-10.637c6.042,0.167,10.804,5.2,10.637,11.241
			c-0.167,6.042-5.2,10.804-11.241,10.637C116.415,94.409,111.652,89.376,111.819,83.335z"/>
	</g>
	<g>
		<path class="st0" d="M41.98,41.924c-0.48,17.38,13.221,31.859,30.601,32.339l1.737-62.94C56.938,10.843,42.46,24.544,41.98,41.924
			z"/>
		
			<ellipse transform="matrix(0.9911 -0.1329 0.1329 0.9911 -10.5499 3.6357)" class="st0" cx="21.963" cy="80.855" rx="10.944" ry="10.944"/>
		<path class="st1" d="M41.98,41.924c0.48-17.38,14.958-31.081,32.339-30.601l0.312-11.306
			C51.006-0.635,31.326,17.987,30.674,41.612C30.075,63.32,45.752,81.696,66.628,85.04l-0.555,20.093l5.651,0.156l0.856-31.027
			C55.201,73.783,41.5,59.304,41.98,41.924z"/>
		<path class="st1" d="M22.421,64.267c-9.161-0.253-16.793,6.969-17.046,16.13c-0.223,8.074,5.36,14.956,12.959,16.65l-0.187,6.763
			l5.934,0.164l0.185-6.687c7.886-1.096,14.058-7.752,14.285-15.974C38.804,72.152,31.582,64.52,22.421,64.267z M21.661,91.794
			c-6.042-0.167-10.804-5.2-10.637-11.241c0.167-6.042,5.2-10.804,11.241-10.637c6.042,0.167,10.804,5.2,10.637,11.241
			C32.736,87.199,27.703,91.961,21.661,91.794z"/>
		<path class="st1" d="M0,115.88l4.261,11.119c24.102-9.623,47.308-12.418,67.61-11.831l0.32-11.601
			C29.482,102.508,0,115.88,0,115.88z"/>
		<path class="st1" d="M143.916,115.88l-4.261,11.119c-24.102-9.623-47.482-12.418-67.784-11.831l-0.147-11.601
			C114.434,102.508,143.916,115.88,143.916,115.88z"/>
	</g>
</g>
</svg>