<!-- Generator: Adobe Illustrator 24.1.2, SVG Export Plug-In  -->
<svg version="1.1" xmlns="http://www.w3.org/2000/svg" xmlns:xlink="http://www.w3.org/1999/xlink" x="0px" y="0px"
	 width="173.251px" height="291.719px" viewBox="0 0 173.251 291.719"
	 style="overflow:visible;enable-background:new 0 0 173.251 291.719;" xml:space="preserve">
<style type="text/css">
	.st0{fill:#1C1C1B;}
</style>
<defs>
</defs>
<g>
	<g>
		<path class="st0" d="M90.185,0.028v0.001C48.712-1.115,14.163,31.578,13.019,73.051c-1.052,38.11,26.469,70.369,63.119,76.24
			l0.326,39.393v92.977h20.248v-92.977v-38.927c36.918-3.84,65.444-34.452,66.496-72.562C164.352,35.722,131.659,1.173,90.185,0.028
			z M88.113,131.385c-31.48,0-57-25.52-57-57s25.52-57,57-57s57,25.52,57,57S119.593,131.385,88.113,131.385z"/>
	</g>
	<g>
		<path class="st0" d="M142.996,165.021L142.996,165.021c-17.176-0.473-31.485,13.067-31.959,30.243
			c-0.436,15.783,10.962,29.144,26.141,31.575l0.135,16.315v38.507h8.386v-38.507v-16.122c15.29-1.591,27.104-14.268,27.54-30.052
			C173.713,179.803,160.173,165.495,142.996,165.021z M142.138,219.423c-13.038,0-23.607-10.569-23.607-23.607
			s10.569-23.607,23.607-23.607s23.607,10.569,23.607,23.607S155.176,219.423,142.138,219.423z"/>
	</g>
	<g>
		<path class="st0" d="M31.971,165.021L31.971,165.021c-17.176-0.473-31.485,13.067-31.959,30.243
			c-0.436,15.783,10.962,29.144,26.141,31.575l0.135,16.315v38.507h8.386v-38.507v-16.122c15.29-1.591,27.104-14.268,27.54-30.052
			C62.688,179.803,49.148,165.495,31.971,165.021z M31.113,219.423c-13.038,0-23.607-10.569-23.607-23.607
			s10.569-23.607,23.607-23.607s23.607,10.569,23.607,23.607S44.151,219.423,31.113,219.423z"/>
	</g>
	<rect x="0" y="281.661" class="st0" width="173.251" height="10.058"/>
</g>
</svg>