<!-- Generator: Adobe Illustrator 24.1.2, SVG Export Plug-In  -->
<svg version="1.1" xmlns="http://www.w3.org/2000/svg" xmlns:xlink="http://www.w3.org/1999/xlink" x="0px" y="0px"
	 width="545.704px" height="146.861px" viewBox="0 0 545.704 146.861"
	 style="overflow:visible;enable-background:new 0 0 545.704 146.861;" xml:space="preserve">
<style type="text/css">
	.st0{fill:#1D1D1B;}
	.st1{font-family:'FuturaBT-Heavy';}
	.st2{font-size:26.08px;}
	.st3{font-family:'FuturaBT-BookItalic';}
	.st4{font-size:11.2054px;}
	.st5{letter-spacing:-2;}
</style>
<defs>
</defs>
<g>
	<path class="st0" d="M92.118,77.541l7.094-18.644h4.559l7.195,18.644h-4.533l-1.516-3.96h-7.221l-1.299,3.96H92.118z
		 M103.987,70.448l-2.088-6.023c-0.061-0.179-0.137-0.484-0.23-0.917c-0.093-0.433-0.19-0.964-0.293-1.592
		c-0.109,0.603-0.216,1.144-0.318,1.624c-0.102,0.479-0.178,0.8-0.229,0.961l-2.012,5.947H103.987z"/>
	<path class="st0" d="M112.927,77.541V58.897h3.489c1.808,0,3.13,0.07,3.967,0.211c0.836,0.14,1.56,0.371,2.171,0.693
		c0.722,0.416,1.28,0.964,1.675,1.643c0.396,0.68,0.593,1.448,0.593,2.306c0,1.104-0.328,1.988-0.98,2.655
		c-0.654,0.666-1.631,1.109-2.93,1.33c1.503,0.221,2.639,0.709,3.406,1.465c0.769,0.756,1.152,1.762,1.152,3.018
		c0,0.917-0.221,1.756-0.662,2.516s-1.049,1.348-1.82,1.764c-0.688,0.373-1.494,0.641-2.42,0.802s-2.457,0.242-4.598,0.242h-0.406
		H112.927z M116.913,66.347h0.891c1.205,0,2.059-0.17,2.561-0.51c0.5-0.339,0.751-0.908,0.751-1.706c0-0.781-0.24-1.337-0.72-1.668
		s-1.318-0.497-2.516-0.497h-0.967V66.347z M116.913,74.433h1.566c1.001,0,1.762-0.218,2.279-0.655s0.776-1.076,0.776-1.917
		c0-0.789-0.257-1.392-0.771-1.809c-0.514-0.415-1.258-0.623-2.234-0.623h-1.617V74.433z"/>
	<path class="st0" d="M143.515,63.75c-0.807-0.722-1.635-1.25-2.482-1.586c-0.85-0.335-1.758-0.503-2.726-0.503
		c-1.987,0-3.57,0.595-4.75,1.783c-1.181,1.188-1.771,2.784-1.771,4.788c0,1.961,0.548,3.517,1.643,4.667
		c1.096,1.15,2.59,1.726,4.482,1.726c1.078,0,2.08-0.181,3.006-0.541c0.926-0.361,1.783-0.902,2.572-1.624l-0.025,4.088
		c-0.85,0.501-1.738,0.874-2.668,1.12s-1.908,0.37-2.936,0.37c-2.971,0-5.41-0.924-7.315-2.771
		c-1.905-1.846-2.858-4.191-2.858-7.035c0-2.836,0.955-5.175,2.865-7.017c1.91-1.843,4.371-2.764,7.385-2.764
		c1.011,0,1.987,0.106,2.93,0.318s1.872,0.539,2.789,0.98L143.515,63.75z"/>
	<path class="st0" d="M147.22,77.541V58.897h5.082c2.003,0,3.582,0.141,4.736,0.421s2.17,0.747,3.044,1.4
		c1.129,0.841,1.984,1.899,2.565,3.178c0.582,1.277,0.873,2.731,0.873,4.361c0,1.655-0.297,3.122-0.892,4.399
		c-0.595,1.278-1.464,2.333-2.61,3.165c-0.85,0.611-1.794,1.05-2.834,1.317c-1.039,0.268-2.562,0.401-4.564,0.401h-1.414H147.22z
		 M151.206,74.178h2.216c2.089,0,3.61-0.475,4.565-1.426s1.433-2.458,1.433-4.521c0-2.055-0.478-3.56-1.433-4.515
		s-2.477-1.433-4.565-1.433h-2.216V74.178z"/>
	<path class="st0" d="M166.856,77.541V58.897h10.978v3.362h-6.991v3.833h6.991v3.388h-6.991v4.673h6.991v3.388H166.856z"/>
	<path class="st0" d="M181.743,77.541V58.897h10.977v3.362h-6.99v3.833h6.99v3.388h-6.99v8.061H181.743z"/>
	<path class="st0" d="M205.059,67.709h8.494c0.017,0.11,0.027,0.229,0.031,0.356c0.004,0.128,0.007,0.323,0.007,0.586
		c0,2.793-0.798,5.056-2.394,6.787c-1.597,1.732-3.66,2.599-6.189,2.599c-2.895,0-5.281-0.924-7.156-2.771
		c-1.877-1.846-2.814-4.191-2.814-7.035c0-2.818,0.941-5.149,2.826-6.991c1.885-1.843,4.267-2.764,7.145-2.764
		c1.52,0,2.912,0.318,4.177,0.955s2.394,1.588,3.388,2.853l-2.688,1.986c-0.67-0.832-1.375-1.433-2.113-1.802
		s-1.592-0.554-2.561-0.554c-1.842,0-3.314,0.573-4.418,1.719c-1.104,1.146-1.656,2.679-1.656,4.598
		c0,1.885,0.555,3.406,1.662,4.565c1.107,1.158,2.554,1.738,4.336,1.738c1.308,0,2.369-0.308,3.184-0.924
		c0.815-0.615,1.223-1.42,1.223-2.413v-0.204h-4.482V67.709z"/>
	<path class="st0" d="M216.75,77.541V58.897h3.985v7.476h8.087v-7.476h3.985v18.644h-3.985v-7.793h-8.087v7.793H216.75z"/>
	<path class="st0" d="M237.036,77.541V58.897h3.986v18.644H237.036z"/>
	<path class="st0" d="M252.839,58.897v12.276c0,1.4-0.055,2.428-0.165,3.082c-0.11,0.653-0.293,1.209-0.548,1.668
		c-0.373,0.696-0.924,1.223-1.648,1.579c-0.727,0.356-1.607,0.535-2.643,0.535c-1.308,0-2.354-0.327-3.14-0.981
		c-0.785-0.653-1.288-1.612-1.509-2.878l2.891-1.375c0.068,0.586,0.219,1.027,0.452,1.324c0.233,0.298,0.554,0.446,0.962,0.446
		c0.509,0,0.861-0.185,1.057-0.555c0.195-0.369,0.293-1.194,0.293-2.477v-1.668V58.897H252.839z"/>
	<path class="st0" d="M256.85,77.541V58.897h3.986v8.443l6.214-8.443h4.61l-6.674,8.494l6.916,10.149h-4.801l-6.266-9.755v9.755
		H256.85z"/>
	<path class="st0" d="M273.749,77.541V58.897h3.986v15.256h6.367v3.388H273.749z"/>
	<path class="st0" d="M284.993,77.541l2.84-18.644h4.178l3.591,10.978c0.076,0.229,0.159,0.564,0.248,1.006s0.172,0.947,0.249,1.516
		c0.067-0.577,0.144-1.093,0.229-1.548c0.085-0.453,0.166-0.787,0.242-0.999l3.654-10.952h4.113l2.853,18.644h-3.782l-1.362-11.244
		c-0.103-0.832-0.17-1.46-0.204-1.885c-0.033-0.425-0.051-0.819-0.051-1.185c0-0.195,0.002-0.342,0.007-0.439
		c0.004-0.098,0.011-0.185,0.019-0.261c-0.127,0.73-0.248,1.36-0.363,1.891c-0.113,0.531-0.218,0.932-0.312,1.204l-3.947,11.919
		h-2.241l-3.885-11.919c-0.033-0.11-0.107-0.416-0.223-0.917c-0.114-0.501-0.273-1.231-0.477-2.19v0.548
		c0,0.865-0.077,1.927-0.23,3.184l-0.012,0.051l-1.35,11.244H284.993z"/>
	<path class="st0" d="M309.774,77.541V58.897h4.139l8.252,10.851c0.238,0.305,0.498,0.736,0.783,1.292
		c0.284,0.557,0.58,1.212,0.885,1.968c-0.094-0.552-0.161-1.1-0.203-1.643c-0.043-0.544-0.064-1.223-0.064-2.038v-10.43h3.809
		v18.644h-3.91l-8.48-11.054c-0.238-0.306-0.497-0.736-0.777-1.292c-0.28-0.557-0.578-1.221-0.892-1.993
		c0.093,0.535,0.161,1.076,0.204,1.624c0.042,0.547,0.063,1.237,0.063,2.069v10.646H309.774z"/>
	<path class="st0" d="M350.614,68.257c0,1.333-0.249,2.594-0.746,3.782c-0.496,1.188-1.211,2.232-2.145,3.133
		c-0.969,0.925-2.06,1.634-3.273,2.126s-2.471,0.739-3.77,0.739c-1.137,0-2.252-0.193-3.342-0.58c-1.092-0.386-2.092-0.939-3-1.661
		c-1.172-0.935-2.068-2.051-2.693-3.35c-0.623-1.299-0.936-2.695-0.936-4.189c0-1.342,0.246-2.6,0.738-3.776
		c0.492-1.175,1.215-2.222,2.165-3.139c0.935-0.908,2.019-1.612,3.254-2.114c1.235-0.5,2.507-0.751,3.813-0.751
		c1.299,0,2.563,0.251,3.789,0.751c1.227,0.502,2.311,1.206,3.254,2.114c0.941,0.917,1.659,1.966,2.151,3.146
		C350.368,65.667,350.614,66.924,350.614,68.257z M340.681,74.484c1.689,0,3.084-0.592,4.184-1.776
		c1.1-1.184,1.648-2.668,1.648-4.45c0-1.766-0.556-3.252-1.668-4.457c-1.111-1.205-2.5-1.809-4.164-1.809
		c-1.689,0-3.09,0.601-4.202,1.802c-1.112,1.202-1.668,2.689-1.668,4.464c0,1.8,0.548,3.287,1.643,4.463
		C337.548,73.897,338.958,74.484,340.681,74.484z"/>
	<path class="st0" d="M353.975,77.541V58.897h4.584c2.445,0,4.252,0.468,5.419,1.401s1.751,2.377,1.751,4.329
		c0,1.809-0.588,3.227-1.764,4.254s-2.804,1.541-4.884,1.541h-1.095v7.118H353.975z M357.987,67.315h0.572
		c1.087,0,1.877-0.225,2.369-0.675s0.738-1.172,0.738-2.165c0-0.917-0.246-1.586-0.738-2.006s-1.282-0.63-2.369-0.63h-0.572V67.315z
		"/>
	<path class="st0" d="M387.416,79.706h-3.968l-2.021-2.395c-0.914,0.238-1.674,0.41-2.279,0.516
		c-0.604,0.106-1.145,0.159-1.618,0.159c-1.278,0-2.53-0.25-3.758-0.751s-2.298-1.197-3.212-2.089
		c-0.939-0.916-1.661-1.971-2.164-3.164c-0.504-1.192-0.756-2.442-0.756-3.75s0.25-2.554,0.749-3.737
		c0.5-1.185,1.224-2.244,2.173-3.178c0.922-0.917,1.992-1.619,3.207-2.107s2.496-0.732,3.842-0.732c1.32,0,2.587,0.244,3.798,0.732
		s2.286,1.19,3.227,2.107c0.94,0.926,1.659,1.979,2.159,3.158s0.75,2.433,0.75,3.757c0,1.46-0.302,2.822-0.904,4.088
		c-0.604,1.265-1.486,2.39-2.648,3.374L387.416,79.706z M380.261,71.224l1.369,1.617c0.574-0.594,1.016-1.292,1.324-2.095
		c0.309-0.802,0.463-1.632,0.463-2.489c0-1.766-0.553-3.252-1.66-4.457s-2.49-1.809-4.146-1.809c-1.682,0-3.076,0.601-4.184,1.802
		c-1.107,1.202-1.661,2.689-1.661,4.464c0,1.791,0.543,3.277,1.629,4.457c1.087,1.18,2.466,1.77,4.14,1.77
		c0.145,0,0.345-0.015,0.603-0.044c0.258-0.03,0.564-0.074,0.919-0.134l-2.675-3.082H380.261z"/>
	<path class="st0" d="M404.417,77.541h-4.598l-4.902-8.71v8.71h-3.986V58.897h5.705c2.267,0,3.965,0.439,5.094,1.318
		s1.693,2.201,1.693,3.967c0,1.282-0.387,2.377-1.158,3.285c-0.773,0.909-1.771,1.439-2.992,1.592L404.417,77.541z M394.917,66.843
		h0.598c1.613,0,2.679-0.176,3.197-0.528c0.518-0.352,0.776-0.966,0.776-1.84c0-0.917-0.278-1.568-0.834-1.955
		c-0.556-0.386-1.603-0.579-3.14-0.579h-0.598V66.843z"/>
	<path class="st0" d="M405.537,75.172l2.216-2.509c0.279,0.688,0.73,1.229,1.35,1.623c0.619,0.396,1.316,0.593,2.088,0.593
		c0.935,0,1.673-0.221,2.217-0.662c0.543-0.441,0.814-1.036,0.814-1.783c0-0.883-0.904-1.762-2.713-2.636
		c-0.586-0.28-1.048-0.51-1.388-0.688c-1.63-0.85-2.759-1.68-3.388-2.49c-0.628-0.811-0.941-1.776-0.941-2.896
		c0-1.537,0.609-2.8,1.827-3.789c1.218-0.988,2.8-1.483,4.743-1.483c1.129,0,2.104,0.197,2.923,0.592
		c0.819,0.396,1.543,1.013,2.171,1.854l-2.355,2.254c-0.28-0.543-0.652-0.949-1.114-1.217c-0.463-0.267-1.021-0.4-1.675-0.4
		c-0.789,0-1.426,0.197-1.91,0.592s-0.726,0.906-0.726,1.534c0,0.985,0.959,1.885,2.878,2.7c0.382,0.161,0.675,0.289,0.879,0.382
		c1.578,0.722,2.748,1.537,3.508,2.445s1.14,1.944,1.14,3.107c0,1.748-0.597,3.143-1.789,4.183s-2.795,1.561-4.808,1.561
		c-1.426,0-2.648-0.247-3.667-0.739S406.038,76.097,405.537,75.172z"/>
	<path class="st0" d="M428.306,62.285v15.256h-3.998V62.285h-4.559v-3.388h13.116v3.388H428.306z"/>
	<path class="st0" d="M451.509,58.897v11.602c0,2.53-0.667,4.419-2,5.667s-3.341,1.872-6.023,1.872
		c-2.725,0-4.754-0.624-6.087-1.872s-1.999-3.137-1.999-5.667V58.897h3.961v10.978c0,1.536,0.339,2.693,1.018,3.47
		c0.68,0.777,1.694,1.165,3.044,1.165c1.358,0,2.386-0.39,3.081-1.171c0.697-0.781,1.045-1.936,1.045-3.464V58.897H451.509z"/>
	<path class="st0" d="M460.358,77.541l-6.889-18.644h4.405l3.63,11.627c0.067,0.237,0.174,0.68,0.318,1.324
		c0.144,0.646,0.297,1.38,0.458,2.203c0.11-0.798,0.231-1.507,0.362-2.127c0.133-0.619,0.262-1.129,0.389-1.527l3.681-11.5h4.354
		l-6.939,18.644H460.358z"/>
	<path class="st0" d="M486.434,58.897l2.764,10.111c0.178,0.646,0.344,1.337,0.496,2.076c0.153,0.738,0.297,1.566,0.434,2.483
		c0.017-0.772,0.074-1.535,0.172-2.286c0.098-0.752,0.244-1.509,0.439-2.273l2.42-10.111h3.935l-4.878,18.644h-3.832l-3.337-11.894
		c-0.161-0.544-0.288-1.091-0.382-1.644c-0.094-0.552-0.157-1.124-0.191-1.719c-0.043,0.629-0.107,1.223-0.197,1.783
		c-0.09,0.56-0.206,1.087-0.35,1.579l-3.362,11.894h-3.833l-4.877-18.644h3.985l2.458,10.354c0.135,0.595,0.246,1.237,0.331,1.93
		c0.085,0.691,0.148,1.445,0.19,2.26c0.162-1.078,0.459-2.445,0.892-4.101l0.063-0.268l2.738-10.175H486.434z"/>
	<path class="st0" d="M504.581,63.775c0.205,0.348,0.365,0.655,0.484,0.923s0.225,0.55,0.318,0.847
		c0.109-0.306,0.232-0.606,0.369-0.904c0.137-0.297,0.301-0.61,0.496-0.941l2.637-4.802h4.229l-5.566,8.889l5.744,9.755h-4.305
		l-2.764-5.17c-0.17-0.314-0.32-0.642-0.451-0.98c-0.133-0.34-0.254-0.696-0.363-1.07c-0.145,0.441-0.289,0.837-0.434,1.185
		c-0.145,0.349-0.283,0.649-0.42,0.904l-2.764,5.132h-4.277l5.756-9.755l-5.604-8.889h4.254L504.581,63.775z"/>
	<path class="st0" d="M519.294,77.541v-8.507l-6.316-10.137h4.672l2.764,5.106c0.137,0.255,0.277,0.578,0.42,0.969
		c0.145,0.39,0.293,0.84,0.447,1.35c0.117-0.434,0.252-0.841,0.4-1.223s0.316-0.756,0.504-1.121l2.744-5.081h4.666l-6.316,10.137
		v8.507H519.294z"/>
	<path class="st0" d="M544.901,77.541h-15.65l9.652-15.46h-8.66v-3.184h15.053l-9.652,15.435h9.258V77.541z"/>
</g>
<g>
	<path class="st0" d="M14.335,22.363V3.72h10.977v3.362H18.32v3.833h6.991v3.388H18.32v8.061H14.335z"/>
	<path class="st0" d="M44.426,3.72v11.602c0,2.53-0.667,4.419-1.999,5.667c-1.334,1.248-3.342,1.872-6.023,1.872
		c-2.726,0-4.754-0.624-6.088-1.872c-1.332-1.248-1.998-3.137-1.998-5.667V3.72h3.96v10.978c0,1.536,0.339,2.693,1.019,3.47
		c0.68,0.777,1.693,1.165,3.043,1.165c1.359,0,2.387-0.39,3.082-1.171c0.696-0.781,1.045-1.936,1.045-3.464V3.72H44.426z"/>
	<path class="st0" d="M55.517,7.107v15.256h-3.999V7.107H46.96V3.72h13.117v3.388H55.517z"/>
	<path class="st0" d="M78.72,3.72v11.602c0,2.53-0.666,4.419-2,5.667c-1.332,1.248-3.34,1.872-6.023,1.872
		c-2.725,0-4.754-0.624-6.086-1.872c-1.334-1.248-2-3.137-2-5.667V3.72h3.961v10.978c0,1.536,0.34,2.693,1.019,3.47
		c0.679,0.777,1.694,1.165,3.044,1.165c1.357,0,2.385-0.39,3.081-1.171s1.044-1.936,1.044-3.464V3.72H78.72z"/>
	<path class="st0" d="M96.331,22.363h-4.598l-4.902-8.71v8.71h-3.986V3.72h5.705c2.268,0,3.965,0.439,5.094,1.318
		s1.694,2.201,1.694,3.967c0,1.282-0.387,2.377-1.159,3.285c-0.772,0.909-1.77,1.439-2.992,1.592L96.331,22.363z M86.831,11.666
		h0.599c1.612,0,2.679-0.176,3.196-0.528c0.518-0.352,0.777-0.966,0.777-1.84c0-0.917-0.279-1.568-0.834-1.955
		c-0.557-0.386-1.604-0.579-3.14-0.579h-0.599V11.666z"/>
	<path class="st0" d="M96.433,22.363l7.094-18.644h4.559l7.195,18.644h-4.533l-1.516-3.96h-7.221l-1.299,3.96H96.433z
		 M108.302,15.271l-2.088-6.023c-0.061-0.179-0.137-0.484-0.23-0.917c-0.093-0.433-0.19-0.964-0.293-1.592
		c-0.109,0.603-0.216,1.144-0.318,1.624c-0.102,0.479-0.178,0.8-0.229,0.961l-2.012,5.947H108.302z"/>
	<path class="st0" d="M117.024,17.754v-3.21h7.131v3.21H117.024z"/>
	<path class="st0" d="M128.116,22.363V3.72h3.489c1.808,0,3.13,0.07,3.967,0.211c0.836,0.14,1.56,0.371,2.171,0.693
		c0.722,0.416,1.28,0.964,1.675,1.643c0.396,0.68,0.593,1.448,0.593,2.306c0,1.104-0.328,1.988-0.98,2.655
		c-0.654,0.666-1.631,1.109-2.93,1.33c1.503,0.221,2.639,0.709,3.406,1.465c0.769,0.756,1.152,1.762,1.152,3.018
		c0,0.917-0.221,1.756-0.662,2.516s-1.049,1.348-1.82,1.764c-0.688,0.373-1.494,0.641-2.42,0.802s-2.457,0.242-4.598,0.242h-0.406
		H128.116z M132.102,11.17h0.891c1.205,0,2.059-0.17,2.561-0.51c0.5-0.339,0.751-0.908,0.751-1.706c0-0.781-0.24-1.337-0.72-1.668
		s-1.318-0.497-2.516-0.497h-0.967V11.17z M132.102,19.256h1.566c1.001,0,1.762-0.218,2.279-0.655s0.776-1.076,0.776-1.917
		c0-0.789-0.257-1.392-0.771-1.809c-0.514-0.415-1.258-0.623-2.234-0.623h-1.617V19.256z"/>
	<path class="st0" d="M162.779,13.08c0,1.333-0.249,2.594-0.745,3.782s-1.212,2.232-2.146,3.133
		c-0.968,0.925-2.06,1.634-3.272,2.126c-1.215,0.492-2.471,0.739-3.77,0.739c-1.138,0-2.252-0.193-3.343-0.58
		c-1.091-0.386-2.091-0.939-2.999-1.661c-1.172-0.935-2.069-2.051-2.693-3.35s-0.936-2.695-0.936-4.189
		c0-1.342,0.246-2.6,0.738-3.776c0.492-1.175,1.214-2.222,2.164-3.139c0.935-0.908,2.02-1.612,3.254-2.114
		c1.235-0.5,2.507-0.751,3.814-0.751c1.299,0,2.562,0.251,3.788,0.751c1.228,0.502,2.312,1.206,3.254,2.114
		c0.942,0.917,1.659,1.966,2.151,3.146C162.533,10.49,162.779,11.747,162.779,13.08z M152.847,19.307
		c1.689,0,3.084-0.592,4.184-1.776c1.099-1.184,1.648-2.668,1.648-4.45c0-1.766-0.557-3.252-1.668-4.457
		c-1.112-1.205-2.5-1.809-4.164-1.809c-1.689,0-3.09,0.601-4.203,1.802c-1.111,1.202-1.668,2.689-1.668,4.464
		c0,1.8,0.548,3.287,1.643,4.463C149.714,18.72,151.123,19.307,152.847,19.307z"/>
	<path class="st0" d="M166.141,22.363V3.72h3.985v15.256h6.367v3.388H166.141z"/>
	<path class="st0" d="M179.003,22.363V3.72h5.08c2.004,0,3.583,0.141,4.738,0.421c1.154,0.28,2.168,0.747,3.043,1.4
		c1.129,0.841,1.984,1.899,2.566,3.178c0.581,1.277,0.872,2.731,0.872,4.361c0,1.655-0.298,3.122-0.892,4.399
		c-0.594,1.278-1.465,2.333-2.61,3.165c-0.849,0.611-1.794,1.05-2.833,1.317c-1.041,0.268-2.563,0.401-4.566,0.401h-1.413H179.003z
		 M182.988,19.001h2.216c2.088,0,3.61-0.475,4.565-1.426s1.433-2.458,1.433-4.521c0-2.055-0.478-3.56-1.433-4.515
		s-2.478-1.433-4.565-1.433h-2.216V19.001z"/>
</g>
<g>
	<path class="st0" d="M16.877,43.338l1.051-8.01h1.291c0.715,0,1.218,0.037,1.51,0.109c0.292,0.073,0.548,0.197,0.767,0.372
		c0.233,0.186,0.411,0.417,0.533,0.692s0.184,0.583,0.184,0.922c0,0.405-0.073,0.767-0.219,1.086
		c-0.146,0.319-0.361,0.588-0.646,0.807c-0.229,0.179-0.504,0.307-0.823,0.386s-0.825,0.118-1.519,0.118h-0.372h-0.344l-0.46,3.518
		H16.877z M18.398,38.977h0.65c0.409,0,0.713-0.014,0.911-0.043c0.199-0.029,0.369-0.077,0.512-0.143
		c0.244-0.113,0.433-0.286,0.563-0.52c0.132-0.233,0.197-0.505,0.197-0.815c0-0.237-0.045-0.445-0.135-0.624
		c-0.089-0.179-0.223-0.323-0.401-0.432c-0.121-0.077-0.265-0.131-0.433-0.165c-0.168-0.033-0.431-0.049-0.788-0.049h-0.29h-0.404
		L18.398,38.977z"/>
	<path class="st0" d="M21.84,43.338l4.717-8.328l2.565,8.328h-1.066l-0.536-2.019h-3.496l-1.089,2.019H21.84z M24.45,40.493h2.855
		l-0.963-3.195L24.45,40.493z"/>
	<path class="st0" d="M30.779,35.328h0.974l-0.64,4.875c-0.022,0.175-0.038,0.321-0.05,0.438c-0.011,0.117-0.016,0.209-0.016,0.279
		c0,0.573,0.15,1.011,0.451,1.313s0.737,0.454,1.311,0.454c0.404,0,0.761-0.069,1.069-0.208s0.564-0.345,0.769-0.618
		c0.267-0.365,0.465-1.042,0.597-2.03c0.011-0.091,0.02-0.16,0.027-0.208l0.574-4.295h0.963l-0.596,4.503v0.006
		c-0.165,1.258-0.437,2.126-0.815,2.604c-0.292,0.365-0.666,0.645-1.122,0.84c-0.456,0.195-0.968,0.293-1.537,0.293
		c-0.813,0-1.461-0.205-1.942-0.616c-0.481-0.41-0.723-0.964-0.723-1.661c0-0.266,0.018-0.585,0.053-0.958
		c0.034-0.372,0.088-0.822,0.161-1.351L30.779,35.328z"/>
	<path class="st0" d="M37.569,43.338l1.051-8.01h0.963l-0.941,7.124h2.884l-0.115,0.886H37.569z"/>
	<path class="st0" d="M45.662,43.338l1.051-8.01h1.291c0.7,0,1.195,0.037,1.485,0.109c0.29,0.073,0.546,0.197,0.769,0.372
		c0.241,0.19,0.424,0.422,0.55,0.698s0.189,0.581,0.189,0.917c0,0.667-0.222,1.2-0.665,1.598s-1.042,0.6-1.798,0.607l2.463,3.709
		h-1.155l-2.353-3.699h-0.404l-0.481,3.699H45.662z M47.183,38.9h0.65c0.405,0,0.706-0.014,0.903-0.043
		c0.196-0.029,0.37-0.079,0.52-0.148c0.24-0.105,0.428-0.271,0.561-0.498c0.134-0.227,0.2-0.489,0.2-0.788
		c0-0.452-0.142-0.771-0.424-0.958c-0.283-0.186-0.824-0.279-1.623-0.279h-0.427L47.183,38.9z"/>
	<path class="st0" d="M56.194,42.452l-0.126,0.886H51.79l1.051-8.01h4.125l-0.109,0.87h-3.185l-0.312,2.391h3.179l-0.109,0.859
		h-3.185l-0.404,3.004H56.194z"/>
	<path class="st0" d="M57.552,43.327l1.072-8.317l4.776,6.265l0.793-5.958h0.952l-1.094,8.333l-4.755-6.205l-0.793,5.882H57.552z"/>
	<path class="st0" d="M65.977,43.327l1.072-8.317l4.776,6.265l0.793-5.958h0.952l-1.094,8.333l-4.755-6.205l-0.793,5.882H65.977z"/>
	<path class="st0" d="M78.818,42.452l-0.126,0.886h-4.278l1.051-8.01h4.125l-0.109,0.87h-3.185l-0.312,2.391h3.179l-0.109,0.859
		h-3.185l-0.404,3.004H78.818z"/>
</g>
<g>
	<path class="st0" d="M104.395,108.419h-3.515l0.051-1.796c-0.493,0.79-1.085,1.369-1.776,1.738s-1.535,0.555-2.527,0.555
		c-1.656,0-2.991-0.616-4.006-1.847c-1.014-1.231-1.521-2.856-1.521-4.878c0-2.104,0.498-3.745,1.496-4.922
		c0.998-1.175,2.384-1.764,4.158-1.764c0.926,0,1.738,0.209,2.438,0.624c0.7,0.416,1.288,1.036,1.764,1.859v-2.063h3.438V108.419z
		 M101.085,102.154c0-1.12-0.283-2.008-0.848-2.661s-1.326-0.98-2.285-0.98c-0.985,0-1.76,0.324-2.324,0.974
		s-0.848,1.539-0.848,2.668c0,1.13,0.279,2.008,0.835,2.637c0.556,0.628,1.326,0.942,2.312,0.942c1.001,0,1.777-0.314,2.33-0.942
		C100.808,104.162,101.085,103.284,101.085,102.154z"/>
	<path class="st0" d="M107.808,108.419V88.681h3.477v7.118c0,0.391-0.015,0.779-0.044,1.166c-0.03,0.386-0.07,0.762-0.121,1.127
		c0.595-0.9,1.239-1.556,1.936-1.968s1.494-0.618,2.394-0.618c1.783,0,3.174,0.589,4.171,1.764c0.997,1.177,1.497,2.817,1.497,4.922
		c0,2.029-0.506,3.657-1.516,4.884c-1.011,1.228-2.34,1.841-3.986,1.841c-0.993,0-1.836-0.186-2.527-0.555
		c-0.692-0.369-1.285-0.948-1.777-1.738l0.025,1.796H107.808z M111.119,102.154c0,1.13,0.278,2.008,0.834,2.637
		c0.556,0.628,1.331,0.942,2.324,0.942s1.768-0.314,2.323-0.942c0.557-0.629,0.835-1.507,0.835-2.637
		c0-1.129-0.282-2.019-0.847-2.668s-1.344-0.974-2.337-0.974c-0.96,0-1.722,0.327-2.286,0.98S111.119,101.034,111.119,102.154z"/>
	<path class="st0" d="M133.086,108.05c-0.493,0.297-1.011,0.516-1.554,0.655c-0.543,0.141-1.138,0.211-1.783,0.211
		c-1.969,0-3.574-0.626-4.813-1.879c-1.24-1.252-1.859-2.88-1.859-4.884c0-1.961,0.623-3.559,1.871-4.794s2.865-1.854,4.852-1.854
		c0.662,0,1.257,0.064,1.783,0.191s1.027,0.327,1.503,0.599l-0.025,3.642c-0.382-0.39-0.823-0.691-1.325-0.903
		c-0.5-0.213-1.031-0.318-1.592-0.318c-1.018,0-1.833,0.312-2.444,0.936s-0.917,1.449-0.917,2.477c0,1.053,0.313,1.892,0.936,2.516
		c0.625,0.624,1.467,0.936,2.528,0.936c0.586,0,1.106-0.106,1.56-0.318c0.455-0.212,0.873-0.543,1.255-0.993L133.086,108.05z"/>
	<path class="st0" d="M148.212,108.419h-3.516l0.051-1.796c-0.492,0.79-1.084,1.369-1.775,1.738
		c-0.692,0.369-1.535,0.555-2.528,0.555c-1.655,0-2.991-0.616-4.005-1.847c-1.015-1.231-1.521-2.856-1.521-4.878
		c0-2.113,0.498-3.761,1.496-4.94c0.997-1.18,2.383-1.771,4.158-1.771c0.908,0,1.705,0.208,2.394,0.624
		c0.688,0.416,1.333,1.074,1.936,1.975c-0.042-0.306-0.074-0.644-0.096-1.013c-0.021-0.369-0.032-0.792-0.032-1.268v-7.118h3.439
		V108.419z M144.9,102.154c0-1.12-0.282-2.008-0.847-2.661s-1.326-0.98-2.286-0.98c-0.985,0-1.759,0.32-2.323,0.961
		c-0.565,0.642-0.848,1.526-0.848,2.655c0,1.13,0.278,2.013,0.834,2.649c0.557,0.637,1.326,0.955,2.312,0.955
		c1.001,0,1.778-0.314,2.331-0.942C144.624,104.162,144.9,103.284,144.9,102.154z"/>
	<path class="st0" d="M163.964,103.071h-9.385c0.144,0.9,0.471,1.573,0.98,2.019c0.509,0.445,1.201,0.669,2.075,0.669
		c0.662,0,1.233-0.128,1.713-0.383c0.479-0.254,0.88-0.641,1.203-1.158l2.929,1.464c-0.679,1.096-1.502,1.908-2.471,2.439
		c-0.967,0.53-2.117,0.796-3.45,0.796c-2.021,0-3.621-0.604-4.802-1.809c-1.18-1.205-1.77-2.827-1.77-4.864
		c0-1.962,0.617-3.574,1.854-4.84c1.234-1.265,2.816-1.897,4.743-1.897c1.986,0,3.558,0.593,4.712,1.777
		c1.154,1.184,1.731,2.799,1.731,4.845c0,0.11-0.005,0.231-0.013,0.363S163.989,102.816,163.964,103.071z M160.372,100.88
		c-0.102-0.789-0.388-1.386-0.859-1.789c-0.471-0.403-1.113-0.604-1.929-0.604s-1.467,0.201-1.955,0.604s-0.8,1-0.936,1.789H160.372
		z"/>
	<path class="st0" d="M167.16,108.419v-9.652h-1.617v-2.84h1.617v-2.814c0-1.681,0.386-2.885,1.159-3.61
		c0.771-0.726,2.045-1.089,3.82-1.089c0.195,0,0.422,0.02,0.681,0.058s0.597,0.108,1.013,0.21v2.891
		c-0.221-0.119-0.434-0.206-0.637-0.261c-0.203-0.056-0.416-0.083-0.637-0.083c-0.637,0-1.091,0.168-1.363,0.503
		c-0.271,0.336-0.406,0.915-0.406,1.738v2.458h2.316v2.84h-2.316v9.652H167.16z"/>
	<path class="st0" d="M187.554,108.215c0,1.316-0.078,2.241-0.235,2.776s-0.427,0.997-0.809,1.388
		c-0.544,0.586-1.239,1.02-2.089,1.3c-0.849,0.279-1.88,0.42-3.094,0.42c-2.029,0-3.57-0.323-4.623-0.968
		c-1.053-0.646-1.625-1.626-1.719-2.941h3.986c0.059,0.483,0.279,0.84,0.662,1.069c0.381,0.229,0.945,0.344,1.693,0.344
		c0.984,0,1.695-0.255,2.133-0.764c0.438-0.51,0.656-1.358,0.656-2.547v-1.783c-0.484,0.772-1.068,1.346-1.752,1.719
		c-0.684,0.374-1.492,0.561-2.426,0.561c-1.715,0-3.086-0.601-4.113-1.802s-1.541-2.82-1.541-4.858c0-2.071,0.502-3.692,1.504-4.864
		c1.001-1.172,2.385-1.758,4.15-1.758c0.908,0,1.717,0.211,2.426,0.631s1.301,1.038,1.777,1.853v-2.063h3.412V108.215z
		 M184.268,102.154c0-1.104-0.28-1.974-0.84-2.61c-0.561-0.637-1.325-0.955-2.293-0.955c-0.993,0-1.77,0.316-2.33,0.949
		c-0.561,0.632-0.841,1.505-0.841,2.616c0,1.112,0.276,1.979,0.828,2.598c0.552,0.62,1.324,0.93,2.317,0.93s1.768-0.31,2.324-0.93
		C183.99,104.132,184.268,103.266,184.268,102.154z"/>
	<path class="st0" d="M191.132,108.419V88.681h3.553v7.017c0,0.391-0.013,0.779-0.038,1.165c-0.025,0.387-0.063,0.763-0.114,1.127
		c0.746-0.874,1.496-1.507,2.248-1.897c0.75-0.39,1.589-0.586,2.514-0.586c0.969,0,1.785,0.166,2.452,0.497s1.183,0.828,1.548,1.49
		c0.186,0.348,0.32,0.74,0.4,1.178s0.121,1.123,0.121,2.057v0.395v7.297h-3.629v-6.176c0-1.537-0.179-2.552-0.535-3.044
		c-0.357-0.492-0.968-0.738-1.834-0.738c-0.501,0-0.961,0.104-1.382,0.312c-0.42,0.208-0.771,0.503-1.05,0.885
		c-0.221,0.298-0.381,0.637-0.479,1.02c-0.098,0.382-0.146,0.963-0.146,1.744v0.497v5.501H191.132z"/>
	<path class="st0" d="M207.075,90.795c0-0.577,0.209-1.074,0.625-1.49s0.912-0.624,1.489-0.624c0.586,0,1.089,0.206,1.509,0.617
		c0.42,0.412,0.631,0.911,0.631,1.497c0,0.585-0.211,1.087-0.631,1.502c-0.42,0.416-0.923,0.624-1.509,0.624
		c-0.577,0-1.073-0.212-1.489-0.637C207.284,91.861,207.075,91.364,207.075,90.795z M207.393,108.419V95.927h3.617v12.492H207.393z"
		/>
	<path class="st0" d="M214.513,90.795c0-0.577,0.207-1.074,0.623-1.49s0.913-0.624,1.49-0.624c0.586,0,1.089,0.206,1.51,0.617
		c0.42,0.412,0.63,0.911,0.63,1.497c0,0.585-0.21,1.087-0.63,1.502c-0.421,0.416-0.924,0.624-1.51,0.624
		c-0.577,0-1.074-0.212-1.49-0.637C214.72,91.861,214.513,91.364,214.513,90.795z M214.831,114.099V95.927h3.616v18.172H214.831z"/>
	<path class="st0" d="M222.128,88.681h3.629v12.772l4.635-5.526h4.355l-5.029,5.526l5.526,6.966h-4.483l-5.004-6.622v6.622h-3.629
		V88.681z"/>
	<path class="st0" d="M237.444,108.419V88.681h3.617v19.738H237.444z"/>
	<path class="st0" d="M248.319,108.419h-3.629V95.927h3.629v1.961c0.594-0.823,1.229-1.427,1.904-1.809
		c0.675-0.382,1.441-0.573,2.299-0.573c1.035,0,1.878,0.213,2.527,0.637c0.649,0.425,1.109,1.066,1.382,1.923
		c0.577-0.849,1.233-1.487,1.968-1.916s1.538-0.644,2.412-0.644c0.883,0,1.633,0.164,2.248,0.49
		c0.615,0.327,1.094,0.817,1.433,1.472c0.179,0.356,0.306,0.76,0.382,1.209c0.076,0.45,0.115,1.134,0.115,2.051v0.395v7.297h-3.629
		v-6.176c0-1.52-0.156-2.53-0.465-3.031c-0.311-0.501-0.852-0.751-1.625-0.751c-0.934,0-1.61,0.348-2.03,1.044
		c-0.421,0.696-0.63,1.834-0.63,3.413v5.501h-3.63v-6.176c0-1.469-0.145-2.462-0.433-2.98c-0.289-0.518-0.785-0.776-1.49-0.776
		c-0.959,0-1.656,0.35-2.088,1.051c-0.434,0.7-0.65,1.827-0.65,3.381V108.419z"/>
	<path class="st0" d="M268.452,108.419V95.927h3.553v1.961c0.654-0.815,1.357-1.416,2.108-1.802c0.751-0.387,1.585-0.58,2.502-0.58
		c0.968,0,1.78,0.164,2.438,0.49c0.658,0.327,1.178,0.826,1.561,1.497c0.187,0.348,0.32,0.74,0.4,1.178
		c0.081,0.438,0.121,1.123,0.121,2.057v0.395v7.297h-3.629v-6.176c0-1.537-0.178-2.552-0.535-3.044
		c-0.356-0.492-0.967-0.738-1.834-0.738c-0.5,0-0.961,0.104-1.381,0.312s-0.771,0.503-1.051,0.885
		c-0.221,0.298-0.38,0.637-0.478,1.02c-0.098,0.382-0.146,0.963-0.146,1.744v0.497v5.501H268.452z"/>
	<path class="st0" d="M297.717,102.218c0,1.918-0.655,3.515-1.968,4.788c-1.312,1.273-2.973,1.91-4.985,1.91
		c-2.029,0-3.702-0.637-5.018-1.91s-1.974-2.87-1.974-4.788c0-1.91,0.662-3.507,1.986-4.789c1.324-1.281,2.992-1.923,5.005-1.923
		c2.021,0,3.685,0.633,4.991,1.897C297.063,98.669,297.717,100.274,297.717,102.218z M294.023,102.192
		c0-1.019-0.297-1.831-0.892-2.438c-0.594-0.606-1.393-0.91-2.394-0.91c-1.002,0-1.796,0.302-2.382,0.904s-0.879,1.418-0.879,2.444
		c0,1.02,0.293,1.834,0.879,2.445s1.38,0.917,2.382,0.917c0.993,0,1.789-0.306,2.388-0.917S294.023,103.211,294.023,102.192z"/>
	<path class="st0" d="M300.454,114.099V95.927h3.477v2.063c0.475-0.832,1.059-1.453,1.751-1.865s1.496-0.618,2.413-0.618
		c1.774,0,3.162,0.589,4.164,1.764c1.002,1.177,1.503,2.817,1.503,4.922c0,2.029-0.505,3.657-1.516,4.884
		c-1.011,1.228-2.339,1.841-3.985,1.841c-0.994,0-1.836-0.186-2.528-0.555s-1.284-0.948-1.776-1.738
		c0.043,0.314,0.074,0.656,0.096,1.025s0.031,0.792,0.031,1.268v5.183H300.454z M303.765,102.154c0,1.13,0.278,2.008,0.834,2.637
		c0.557,0.628,1.332,0.942,2.324,0.942c0.994,0,1.768-0.314,2.324-0.942c0.557-0.629,0.834-1.507,0.834-2.637
		c0-1.129-0.282-2.019-0.847-2.668s-1.343-0.974-2.337-0.974c-0.959,0-1.721,0.327-2.285,0.98S303.765,101.034,303.765,102.154z"/>
	<path class="st0" d="M329.043,114.099h-3.616v-5.183c0-0.399,0.012-0.792,0.037-1.179c0.025-0.386,0.064-0.758,0.115-1.114
		c-0.492,0.79-1.084,1.369-1.776,1.738s-1.534,0.555-2.528,0.555c-1.654,0-2.99-0.616-4.004-1.847
		c-1.016-1.231-1.522-2.856-1.522-4.878c0-2.104,0.499-3.745,1.497-4.922c0.996-1.175,2.383-1.764,4.157-1.764
		c0.925,0,1.738,0.209,2.438,0.624c0.7,0.416,1.288,1.036,1.764,1.859v-2.063h3.438V114.099z M325.731,102.154
		c0-1.12-0.281-2.008-0.846-2.661c-0.565-0.653-1.327-0.98-2.287-0.98c-0.984,0-1.759,0.324-2.323,0.974
		c-0.565,0.649-0.847,1.539-0.847,2.668c0,1.13,0.277,2.008,0.834,2.637c0.556,0.628,1.326,0.942,2.311,0.942
		c1.002,0,1.779-0.314,2.331-0.942C325.456,104.162,325.731,103.284,325.731,102.154z"/>
	<path class="st0" d="M336.098,99.136c0.364-1.214,0.89-2.122,1.573-2.726c0.683-0.603,1.529-0.904,2.54-0.904
		c0.229,0,0.606,0.043,1.134,0.128c0.102,0.017,0.178,0.029,0.229,0.038l-0.547,3.896c-0.272-0.11-0.546-0.192-0.822-0.248
		c-0.275-0.056-0.566-0.083-0.872-0.083c-1.104,0-1.897,0.282-2.382,0.847c-0.483,0.565-0.725,1.51-0.725,2.834v5.501h-3.63V95.927
		h3.579L336.098,99.136z"/>
	<path class="st0" d="M341.993,106.229l2.789-1.438c0.094,0.483,0.344,0.865,0.752,1.146c0.407,0.28,0.912,0.421,1.516,0.421
		c0.594,0,1.061-0.108,1.4-0.325s0.51-0.516,0.51-0.897c0-0.603-0.604-1.108-1.809-1.516c-0.373-0.127-0.671-0.233-0.892-0.318
		c-1.469-0.552-2.485-1.108-3.05-1.668c-0.564-0.561-0.847-1.253-0.847-2.076c0-1.223,0.479-2.211,1.438-2.967
		s2.225-1.134,3.795-1.134c1.121,0,2.091,0.226,2.91,0.675c0.819,0.45,1.416,1.087,1.789,1.91l-2.662,1.325
		c-0.144-0.467-0.395-0.822-0.75-1.063c-0.357-0.242-0.803-0.363-1.338-0.363s-0.968,0.11-1.299,0.331s-0.496,0.51-0.496,0.866
		c0,0.62,0.822,1.197,2.471,1.731c0.194,0.06,0.344,0.106,0.445,0.141c1.366,0.45,2.338,0.974,2.916,1.572
		c0.577,0.599,0.865,1.36,0.865,2.286c0,1.239-0.479,2.225-1.438,2.954c-0.96,0.73-2.254,1.096-3.884,1.096
		c-1.291,0-2.393-0.24-3.305-0.72S342.3,107.061,341.993,106.229z"/>
	<path class="st0" d="M355.556,108.419v-9.652h-1.744v-2.84h1.744v-4.151h3.63v4.151h1.745v2.84h-1.745v9.652H355.556z"/>
	<path class="st0" d="M366.724,95.927v6.57c0,1.104,0.215,1.894,0.643,2.369c0.43,0.476,1.128,0.713,2.096,0.713
		c0.959,0,1.655-0.239,2.088-0.72c0.434-0.479,0.65-1.267,0.65-2.362v-6.57h3.629v6.57c0,2.199-0.514,3.818-1.541,4.858
		s-2.619,1.561-4.775,1.561c-2.199,0-3.814-0.519-4.846-1.554c-1.031-1.036-1.547-2.657-1.547-4.865v-6.57H366.724z"/>
	<path class="st0" d="M382.399,108.419l-5.08-12.492h4.189l2.113,6.494c0.17,0.526,0.307,1.015,0.408,1.465s0.174,0.892,0.217,1.324
		c0.102-0.653,0.203-1.21,0.305-1.668c0.103-0.459,0.221-0.875,0.357-1.248l2.127-6.367h4.125l-5.132,12.492H382.399z"/>
	<path class="st0" d="M403.864,95.927l1.809,6.469c0.033,0.127,0.078,0.353,0.133,0.675c0.056,0.323,0.156,0.985,0.3,1.986
		c0.077-0.39,0.172-0.802,0.286-1.234c0.115-0.434,0.258-0.917,0.428-1.452l1.947-6.443h3.948l-4.329,12.492h-3.872l-1.872-6.469
		c-0.033-0.119-0.089-0.311-0.165-0.573c-0.28-0.977-0.483-1.774-0.611-2.395c-0.11,0.578-0.219,1.104-0.325,1.579
		c-0.105,0.476-0.219,0.922-0.337,1.338l-1.923,6.52h-3.859l-4.329-12.492h3.96l1.91,6.201c0.17,0.561,0.311,1.068,0.421,1.522
		s0.204,0.919,0.28,1.394c0.067-0.518,0.148-1.017,0.242-1.496c0.093-0.479,0.203-0.944,0.33-1.395l1.668-6.227H403.864z"/>
	<path class="st0" d="M416.611,108.419h-4.292l4.432-6.342l-4.202-6.15h4.533l1.235,2.317c0.152,0.297,0.291,0.603,0.414,0.917
		s0.235,0.646,0.338,0.993c0.093-0.322,0.207-0.643,0.344-0.961c0.135-0.318,0.301-0.644,0.496-0.975l1.324-2.292h4.305
		l-4.279,6.074l4.508,6.418h-4.508l-1.464-2.56c-0.17-0.322-0.321-0.644-0.452-0.962c-0.132-0.318-0.24-0.639-0.324-0.961
		c-0.086,0.331-0.196,0.651-0.332,0.961c-0.136,0.311-0.314,0.64-0.535,0.987L416.611,108.419z"/>
	<path class="st0" d="M430.78,107.452l-5.029-11.524h4.189l2.165,5.718c0.144,0.356,0.263,0.766,0.356,1.229
		s0.166,0.979,0.217,1.547c0.084-0.458,0.191-0.925,0.318-1.4s0.284-0.98,0.471-1.516l1.897-5.577h4.151l-7.437,18.172h-4.012
		L430.78,107.452z"/>
	<path class="st0" d="M451.308,108.419h-11.97l6.621-9.652h-5.819v-2.84h11.321l-6.546,9.652h6.393V108.419z"/>
</g>
<g>
	<path class="st0" d="M95.22,140.707v-15.332h-3.731l1.565-3.133h5.922v18.465H95.22z"/>
	<path class="st0" d="M118.612,137.625v3.082h-12.913l6.622-8.685c0.917-1.197,1.556-2.14,1.916-2.827
		c0.361-0.688,0.541-1.295,0.541-1.821c0-0.729-0.218-1.303-0.655-1.719c-0.437-0.416-1.038-0.624-1.802-0.624
		c-0.713,0-1.282,0.261-1.707,0.783c-0.424,0.521-0.637,1.225-0.637,2.107v0.089h-3.756v-0.318c0-1.851,0.53-3.283,1.592-4.298
		c1.061-1.015,2.563-1.521,4.508-1.521c1.986,0,3.531,0.454,4.635,1.362s1.656,2.178,1.656,3.808c0,1.834-1.436,4.542-4.305,8.125
		l-0.268,0.318l-1.719,2.139H118.612z"/>
	<path class="st0" d="M122.013,135.779h3.68v0.051c0,0.671,0.253,1.216,0.758,1.636c0.506,0.421,1.166,0.631,1.98,0.631
		c0.942,0,1.67-0.233,2.184-0.7s0.771-1.129,0.771-1.987c0-0.908-0.265-1.596-0.796-2.063c-0.53-0.467-1.31-0.7-2.336-0.7
		c-0.052,0-0.133,0.004-0.242,0.013c-0.111,0.008-0.195,0.013-0.255,0.013v-3.26c0.051,0,0.127,0.004,0.229,0.013
		c0.102,0.008,0.174,0.013,0.216,0.013c0.917,0,1.606-0.195,2.069-0.586s0.694-0.977,0.694-1.758c0-0.662-0.21-1.197-0.63-1.604
		c-0.421-0.407-0.975-0.611-1.662-0.611c-0.73,0-1.304,0.166-1.719,0.497c-0.417,0.331-0.663,0.807-0.739,1.426h-3.54
		c0.094-1.579,0.666-2.795,1.719-3.648c1.053-0.853,2.521-1.279,4.406-1.279c1.809,0,3.243,0.445,4.305,1.337
		c1.061,0.892,1.592,2.097,1.592,3.616c0,1.062-0.287,1.964-0.859,2.706c-0.574,0.743-1.332,1.199-2.273,1.369
		c1.095,0.238,1.965,0.785,2.61,1.643c0.646,0.858,0.968,1.902,0.968,3.133c0,1.707-0.607,3.055-1.82,4.043
		c-1.215,0.989-2.87,1.484-4.967,1.484c-1.91,0-3.445-0.484-4.604-1.452c-1.159-0.968-1.738-2.241-1.738-3.82V135.779z"/>
	<path class="st0" d="M146.22,140.707v-3.578h-8.977v-1.72l8.977-13.536h3.414v12.606h1.961v2.649h-1.961v3.578H146.22z
		 M146.27,134.479v-6.418c0-0.628,0.012-1.104,0.033-1.426c0.021-0.322,0.053-0.62,0.095-0.892
		c-0.161,0.433-0.353,0.866-0.573,1.299s-0.463,0.857-0.726,1.273l-4.024,6.163H146.27z"/>
	<path class="st0" d="M154.612,136.669c0.874,0.586,1.625,0.983,2.254,1.191c0.628,0.208,1.312,0.312,2.051,0.312
		c1.23,0,2.197-0.304,2.902-0.91c0.705-0.607,1.057-1.433,1.057-2.478c0-1.086-0.344-1.923-1.031-2.508
		c-0.688-0.586-1.672-0.879-2.954-0.879c-0.679,0-1.308,0.091-1.884,0.273c-0.578,0.183-1.108,0.457-1.592,0.821l-0.879-0.548
		l2.317-9.703h9.614v3.133h-7.195l-0.904,3.782c0.434-0.136,0.848-0.236,1.242-0.3s0.796-0.096,1.203-0.096
		c1.758,0,3.192,0.553,4.305,1.656c1.111,1.104,1.668,2.525,1.668,4.266c0,2.004-0.68,3.591-2.037,4.763
		c-1.359,1.172-3.219,1.758-5.578,1.758c-1.044,0-2.006-0.124-2.885-0.37s-1.708-0.628-2.489-1.146L154.612,136.669z"/>
	<path class="st0" d="M175.306,129.577c0.348-0.187,0.705-0.32,1.07-0.401c0.364-0.08,0.811-0.121,1.336-0.121
		c1.588,0,2.889,0.54,3.904,1.617c1.014,1.079,1.521,2.458,1.521,4.139c0,1.919-0.618,3.464-1.854,4.636
		c-1.234,1.172-2.863,1.758-4.883,1.758c-1.902,0-3.424-0.586-4.566-1.758c-1.141-1.172-1.712-2.726-1.712-4.661
		c0-1.111,0.253-2.325,0.757-3.642c0.506-1.315,1.285-2.78,2.338-4.394l2.954-4.508h4.457L175.306,129.577z M173.739,134.963
		c0,0.908,0.259,1.628,0.777,2.158c0.518,0.531,1.218,0.796,2.101,0.796c0.841,0,1.52-0.271,2.038-0.814
		c0.518-0.544,0.776-1.257,0.776-2.14c0-0.934-0.259-1.666-0.776-2.196c-0.519-0.531-1.231-0.796-2.14-0.796
		c-0.815,0-1.481,0.279-1.999,0.84C173.998,133.372,173.739,134.089,173.739,134.963z"/>
	<path class="st0" d="M187.148,140.707l7.45-15.332h-8.393v-3.133h13.295v1.172l-8.367,17.293H187.148z"/>
	<path class="st0" d="M211.675,130.85c1.062,0.323,1.898,0.917,2.51,1.783c0.61,0.865,0.916,1.889,0.916,3.068
		c0,1.715-0.582,3.061-1.744,4.037c-1.164,0.977-2.781,1.465-4.852,1.465c-2.047,0-3.664-0.488-4.853-1.465s-1.782-2.297-1.782-3.96
		c0-1.215,0.305-2.259,0.916-3.133c0.611-0.875,1.457-1.473,2.535-1.796c-0.951-0.398-1.65-0.923-2.096-1.572
		s-0.668-1.467-0.668-2.452c0-1.468,0.543-2.661,1.63-3.578s2.525-1.375,4.317-1.375c1.816,0,3.262,0.461,4.336,1.382
		c1.073,0.921,1.61,2.158,1.61,3.712c0,0.917-0.237,1.708-0.713,2.375C213.263,130.007,212.575,130.51,211.675,130.85z
		 M208.505,138.071c0.883,0,1.576-0.244,2.082-0.732c0.504-0.488,0.758-1.156,0.758-2.006c0-0.866-0.251-1.543-0.752-2.031
		s-1.197-0.732-2.088-0.732c-0.884,0-1.584,0.251-2.102,0.752s-0.777,1.171-0.777,2.012s0.257,1.507,0.771,1.999
		C206.91,137.825,207.612,138.071,208.505,138.071z M208.53,124.903c-0.713,0-1.285,0.195-1.713,0.586
		c-0.43,0.391-0.644,0.909-0.644,1.554c0,0.671,0.206,1.199,0.618,1.586c0.411,0.386,0.974,0.579,1.688,0.579
		c0.729,0,1.303-0.188,1.719-0.566s0.623-0.902,0.623-1.573c0-0.67-0.205-1.199-0.617-1.585
		C209.792,125.096,209.234,124.903,208.53,124.903z"/>
	<path class="st0" d="M225.887,133.486c-0.356,0.188-0.724,0.325-1.102,0.414s-0.809,0.134-1.292,0.134
		c-1.588,0-2.885-0.539-3.891-1.617s-1.51-2.462-1.51-4.151c0-1.919,0.611-3.464,1.834-4.636c1.223-1.171,2.844-1.757,4.865-1.757
		c1.91,0,3.439,0.581,4.59,1.744s1.726,2.704,1.726,4.623c0,1.129-0.261,2.364-0.782,3.705c-0.523,1.342-1.307,2.794-2.35,4.355
		l-2.942,4.406h-4.47L225.887,133.486z M227.452,128.086c0-0.908-0.254-1.628-0.764-2.158s-1.201-0.796-2.075-0.796
		c-0.849,0-1.534,0.273-2.057,0.821s-0.783,1.259-0.783,2.133c0,0.935,0.257,1.667,0.771,2.197s1.229,0.796,2.146,0.796
		c0.815,0,1.479-0.278,1.993-0.834C227.196,129.689,227.452,128.97,227.452,128.086z"/>
	<path class="st0" d="M247.421,131.525c0,3.039-0.607,5.412-1.822,7.119c-1.213,1.706-2.898,2.56-5.055,2.56
		c-2.174,0-3.865-0.848-5.075-2.541s-1.814-4.072-1.814-7.138c0-3.022,0.608-5.387,1.827-7.093s2.906-2.56,5.063-2.56
		c2.182,0,3.873,0.843,5.074,2.527C246.819,126.085,247.421,128.46,247.421,131.525z M237.513,131.55c0,2.004,0.259,3.54,0.777,4.61
		c0.518,1.069,1.26,1.604,2.229,1.604c0.992,0,1.744-0.53,2.254-1.592s0.764-2.619,0.764-4.674c0-2.029-0.254-3.569-0.764-4.622
		s-1.252-1.579-2.229-1.579c-0.985,0-1.736,0.534-2.254,1.604C237.771,127.972,237.513,129.522,237.513,131.55z"/>
</g>
<g>
	<path class="st0" d="M270.003,138.911c0-0.611,0.215-1.133,0.643-1.566c0.43-0.433,0.945-0.649,1.548-0.649
		s1.118,0.217,1.548,0.649c0.428,0.434,0.643,0.955,0.643,1.566c0,0.604-0.213,1.114-0.637,1.535c-0.425,0.42-0.942,0.63-1.554,0.63
		c-0.603,0-1.118-0.212-1.548-0.637C270.218,140.015,270.003,139.505,270.003,138.911z"/>
	<path class="st0" d="M285.03,144.934l2.457-7.984h3.91l-3.936,7.984H285.03z"/>
	<path class="st0" d="M302.437,130.557c0-0.603,0.212-1.114,0.637-1.534c0.425-0.421,0.942-0.631,1.554-0.631
		c0.603,0,1.114,0.21,1.534,0.631c0.421,0.42,0.63,0.932,0.63,1.534c0,0.611-0.209,1.129-0.63,1.554
		c-0.42,0.425-0.932,0.637-1.534,0.637c-0.604,0-1.119-0.214-1.547-0.644C302.651,131.676,302.437,131.16,302.437,130.557z
		 M302.437,138.885c0-0.611,0.212-1.125,0.637-1.541c0.425-0.415,0.942-0.624,1.554-0.624c0.603,0,1.114,0.209,1.534,0.624
		c0.421,0.416,0.63,0.93,0.63,1.541c0,0.604-0.209,1.119-0.63,1.548c-0.42,0.429-0.932,0.643-1.534,0.643
		c-0.604,0-1.119-0.217-1.547-0.649C302.651,139.994,302.437,139.48,302.437,138.885z"/>
	<path class="st0" d="M318.037,144.934l2.42-7.984h3.947l-3.947,7.984H318.037z M320.38,130.557c0-0.603,0.215-1.114,0.644-1.534
		c0.429-0.421,0.944-0.631,1.548-0.631c0.611,0,1.129,0.21,1.553,0.631c0.425,0.42,0.637,0.932,0.637,1.534
		c0,0.611-0.212,1.129-0.637,1.554c-0.424,0.425-0.941,0.637-1.553,0.637c-0.604,0-1.119-0.214-1.548-0.644
		C320.595,131.676,320.38,131.16,320.38,130.557z"/>
	<path class="st0" d="M335.661,136.097v-3.21h7.132v3.21H335.661z"/>
	<path class="st0" d="M352.675,144.259h13.04v2.598h-13.04V144.259z"/>
	<path class="st0" d="M375.915,139.013c0-0.603,0.212-1.114,0.637-1.535c0.424-0.42,0.942-0.63,1.554-0.63
		c0.603,0,1.114,0.208,1.534,0.624s0.631,0.93,0.631,1.541s-0.211,1.129-0.631,1.554c-0.42,0.424-0.932,0.637-1.534,0.637
		s-1.118-0.217-1.548-0.649C376.13,140.121,375.915,139.607,375.915,139.013z M376.284,134.887v-13.244h3.617v13.244H376.284z"/>
	<path class="st0" d="M384.677,123.808c0-0.594,0.214-1.104,0.643-1.528c0.429-0.424,0.944-0.637,1.547-0.637
		c0.611,0,1.125,0.21,1.541,0.631c0.416,0.42,0.624,0.932,0.624,1.534s-0.21,1.114-0.63,1.534c-0.42,0.421-0.932,0.631-1.535,0.631
		c-0.611,0-1.129-0.21-1.553-0.631C384.888,124.922,384.677,124.411,384.677,123.808z M385.046,127.921h3.616v13.282h-3.616V127.921
		z"/>
	<path class="st0" d="M405.522,127.565h3.488v5.45h-1.12c-0.874,0-1.55,0.244-2.024,0.732c-0.476,0.488-0.713,1.182-0.713,2.082
		c0,0.807,0.176,1.426,0.527,1.859c0.354,0.433,0.864,0.649,1.535,0.649c0.68,0,1.195-0.206,1.547-0.618
		c0.353-0.411,0.529-1.008,0.529-1.789c0-0.042-0.005-0.108-0.014-0.197c-0.008-0.089-0.012-0.155-0.012-0.197h3.604v0.42
		c0,1.579-0.537,2.849-1.611,3.808s-2.494,1.439-4.26,1.439c-1.715,0-3.073-0.493-4.074-1.478c-1.002-0.984-1.503-2.326-1.503-4.024
		c0-1.307,0.348-2.375,1.044-3.202c0.696-0.828,1.715-1.378,3.057-1.649V127.565z M409.457,123.808c0,0.603-0.214,1.114-0.644,1.534
		c-0.428,0.421-0.943,0.631-1.547,0.631c-0.611,0-1.129-0.21-1.553-0.631c-0.426-0.42-0.637-0.932-0.637-1.534
		s0.211-1.114,0.637-1.534c0.424-0.421,0.941-0.631,1.553-0.631c0.604,0,1.119,0.213,1.547,0.637
		C409.243,122.705,409.457,123.214,409.457,123.808z"/>
	<path class="st0" d="M423.363,135.256h-3.502v-5.45h1.12c0.866,0,1.539-0.249,2.019-0.745c0.479-0.497,0.72-1.187,0.72-2.069
		c0-0.807-0.176-1.427-0.529-1.859c-0.352-0.433-0.863-0.649-1.533-0.649c-0.672,0-1.186,0.204-1.541,0.611
		c-0.357,0.407-0.535,1.006-0.535,1.796c0,0.042,0.004,0.105,0.013,0.19s0.013,0.148,0.013,0.191h-3.604v-0.407
		c0-1.579,0.537-2.845,1.61-3.795c1.074-0.951,2.494-1.427,4.26-1.427c1.724,0,3.084,0.488,4.081,1.465
		c0.998,0.977,1.496,2.313,1.496,4.011c0,1.308-0.348,2.373-1.043,3.196c-0.697,0.824-1.711,1.376-3.044,1.656V135.256z
		 M419.415,139.013c0-0.603,0.215-1.114,0.644-1.535c0.429-0.42,0.944-0.63,1.548-0.63c0.61,0,1.129,0.21,1.553,0.63
		c0.424,0.421,0.637,0.933,0.637,1.535s-0.213,1.118-0.637,1.547s-0.942,0.644-1.553,0.644c-0.604,0-1.119-0.217-1.548-0.649
		C419.63,140.121,419.415,139.607,419.415,139.013z"/>
	<path class="st0" d="M442.503,122.063l-2.419,7.972h-3.948l3.948-7.972H442.503z"/>
	<path class="st0" d="M456.231,122.063l-2.432,7.972h-3.936l3.936-7.972H456.231z M462.433,122.063l-2.419,7.972h-3.936l3.936-7.972
		H462.433z"/>
</g>
<rect y="28.039" class="st0" width="477.333" height="2.346"/>
</svg>