<!-- Generator: Adobe Illustrator 24.1.2, SVG Export Plug-In  -->
<svg version="1.1" xmlns="http://www.w3.org/2000/svg" xmlns:xlink="http://www.w3.org/1999/xlink" x="0px" y="0px"
	 width="204.327px" height="413.104px" viewBox="0 0 204.327 413.104"
	 style="overflow:visible;enable-background:new 0 0 204.327 413.104;" xml:space="preserve">
<defs>
</defs>
<g>
	<g>
		<g>
			<g>
				<path d="M59.421,383.049c-4.144-4.181-4.113-10.93,0.068-15.074l-2.696-2.72c-5.684,5.633-5.725,14.806-0.092,20.49
					c5.176,5.223,13.341,5.68,19.041,1.35l4.791,4.834l1.36-1.347l-7.398-7.465C70.314,387.261,63.565,387.231,59.421,383.049z"/>
				<path d="M60.319,393.063c-2.198,2.191-1.825,6.151,0.832,8.845c2.341,2.374,5.675,2.972,7.938,1.581l1.961,1.989l1.423-1.419
					l-1.939-1.967c1.502-2.263,0.959-5.7-1.425-8.119C66.452,391.28,62.517,390.872,60.319,393.063z M68.303,401.159
					c-1.449,1.445-4.044,1.176-5.797-0.601s-1.998-4.388-0.549-5.833c1.449-1.445,4.044-1.176,5.797,0.601
					C69.506,397.102,69.752,399.714,68.303,401.159z"/>
				<path d="M84.553,369.697c-2.198,2.191-1.825,6.151,0.832,8.845c2.341,2.374,5.675,2.972,7.938,1.581l1.961,1.989l1.423-1.419
					l-1.939-1.967c1.502-2.263,0.959-5.7-1.425-8.119C90.686,367.914,86.751,367.506,84.553,369.697z M92.537,377.792
					c-1.449,1.445-4.044,1.176-5.797-0.601c-1.752-1.777-1.998-4.388-0.549-5.833c1.449-1.445,4.044-1.176,5.797,0.601
					C93.74,373.736,93.986,376.347,92.537,377.792z"/>
				<path d="M67.615,411.543l3.719,1.556c3.279-8.152,8.021-14.488,12.912-19.322l-2.766-2.791
					C71.233,401.197,67.615,411.543,67.615,411.543z"/>
			</g>
			<g>
				<path d="M74.563,368.043c-4.144-4.181-10.893-4.212-15.074-0.068l-2.696-2.72c5.684-5.633,14.857-5.591,20.49,0.092
					c5.176,5.223,5.56,13.392,1.179,19.053l4.791,4.834l-1.36,1.347l-7.398-7.465C78.677,378.974,78.707,372.225,74.563,368.043z"/>
				<path d="M102.16,377.307l1.523,3.733c-8.181,3.205-14.56,7.89-19.438,12.737l-2.766-2.791
					C91.782,380.833,102.16,377.307,102.16,377.307z"/>
			</g>
		</g>
		<g>
			<g>
				<path d="M44.274,383.055c4.144-4.181,4.113-10.93-0.068-15.074l2.696-2.72c5.684,5.633,5.725,14.806,0.092,20.49
					c-5.176,5.223-13.341,5.68-19.041,1.35l-4.791,4.834l-1.36-1.347l7.398-7.465C33.381,387.267,40.13,387.236,44.274,383.055z"/>
				<path d="M34.586,393.98c-2.385,2.418-2.928,5.855-1.425,8.119l-1.939,1.967l1.423,1.419l1.961-1.989
					c2.263,1.391,5.596,0.793,7.938-1.581c2.657-2.694,3.029-6.655,0.832-8.846S37.243,391.286,34.586,393.98z M35.941,395.331
					c1.752-1.777,4.347-2.046,5.797-0.601c1.449,1.445,1.204,4.057-0.549,5.833c-1.752,1.777-4.347,2.046-5.797,0.601
					C33.943,399.719,34.189,397.108,35.941,395.331z"/>
				<path d="M10.352,370.613c-2.385,2.418-2.928,5.855-1.425,8.119l-1.939,1.967l1.423,1.419l1.961-1.989
					c2.263,1.391,5.596,0.793,7.938-1.581c2.657-2.694,3.029-6.655,0.832-8.846S13.009,367.919,10.352,370.613z M11.707,371.964
					c1.752-1.777,4.347-2.046,5.797-0.601c1.449,1.445,1.204,4.057-0.549,5.833c-1.752,1.777-4.347,2.046-5.797,0.601
					C9.709,376.353,9.955,373.741,11.707,371.964z"/>
				<path d="M36.081,411.548l-3.719,1.556c-3.279-8.152-8.021-14.488-12.912-19.322l2.766-2.791
					C32.462,401.202,36.081,411.548,36.081,411.548z"/>
			</g>
			<g>
				<path d="M29.132,368.049c4.144-4.181,10.893-4.212,15.074-0.068l2.696-2.72c-5.684-5.633-14.857-5.591-20.49,0.092
					c-5.176,5.223-5.56,13.392-1.179,19.053l-4.791,4.834l1.36,1.347l7.398-7.465C25.018,378.979,24.988,372.23,29.132,368.049z"/>
				<path d="M1.535,377.313l-1.523,3.733c8.181,3.205,14.56,7.89,19.438,12.737l2.766-2.791
					C11.913,380.838,1.535,377.313,1.535,377.313z"/>
			</g>
		</g>
		<g>
			<g>
				<path d="M59.421,337.542c-4.144,4.181-4.113,10.93,0.068,15.074l-2.696,2.72c-5.684-5.633-5.725-14.806-0.092-20.49
					c5.176-5.223,13.341-5.68,19.041-1.35l4.791-4.834l1.36,1.347l-7.398,7.464C70.314,333.33,63.565,333.361,59.421,337.542z"/>
				<path d="M69.109,326.617c2.385-2.418,2.928-5.855,1.425-8.119l1.939-1.967l-1.423-1.419l-1.961,1.989
					c-2.263-1.391-5.596-0.793-7.938,1.581c-2.657,2.694-3.029,6.655-0.832,8.846C62.517,329.719,66.452,329.311,69.109,326.617z
					 M67.754,325.266c-1.752,1.777-4.347,2.046-5.797,0.601c-1.449-1.445-1.204-4.057,0.549-5.833
					c1.752-1.777,4.347-2.046,5.797-0.601C69.752,320.878,69.506,323.489,67.754,325.266z"/>
				<path d="M93.343,349.984c2.385-2.418,2.928-5.855,1.425-8.119l1.939-1.967l-1.423-1.419l-1.961,1.989
					c-2.263-1.391-5.596-0.793-7.938,1.581c-2.657,2.694-3.029,6.655-0.832,8.846S90.686,352.678,93.343,349.984z M91.988,348.633
					c-1.752,1.777-4.347,2.046-5.797,0.601c-1.449-1.445-1.204-4.057,0.549-5.833c1.752-1.777,4.347-2.046,5.797-0.601
					S93.74,346.856,91.988,348.633z"/>
				<path d="M67.615,309.049l3.719-1.556c3.279,8.152,8.021,14.488,12.912,19.322l-2.766,2.791
					C71.233,319.395,67.615,309.049,67.615,309.049z"/>
			</g>
			<g>
				<path d="M74.563,352.548c-4.144,4.181-10.893,4.212-15.074,0.068l-2.696,2.72c5.684,5.633,14.857,5.591,20.49-0.092
					c5.176-5.223,5.56-13.392,1.179-19.053l4.791-4.834l-1.36-1.347l-7.398,7.465C78.677,341.618,78.707,348.367,74.563,352.548z"/>
				<path d="M102.16,343.284l1.523-3.733c-8.181-3.205-14.56-7.89-19.438-12.737l-2.766,2.791
					C91.782,339.759,102.16,343.284,102.16,343.284z"/>
			</g>
		</g>
		<g>
			<g>
				<path d="M44.274,337.537c4.144,4.181,4.113,10.93-0.068,15.074l2.696,2.72c5.684-5.633,5.725-14.806,0.092-20.49
					c-5.176-5.223-13.341-5.68-19.041-1.35l-4.791-4.834l-1.36,1.347l7.398,7.464C33.381,333.325,40.13,333.355,44.274,337.537z"/>
				<path d="M43.376,327.523c2.198-2.191,1.825-6.151-0.832-8.846c-2.341-2.374-5.675-2.972-7.938-1.581l-1.961-1.989l-1.423,1.419
					l1.939,1.967c-1.502,2.263-0.959,5.7,1.425,8.119C37.243,329.306,41.178,329.714,43.376,327.523z M35.393,319.427
					c1.449-1.445,4.044-1.176,5.797,0.601c1.752,1.777,1.998,4.389,0.549,5.833c-1.449,1.445-4.044,1.176-5.797-0.601
					C34.189,323.484,33.943,320.872,35.393,319.427z"/>
				<path d="M19.142,350.89c2.198-2.191,1.825-6.151-0.832-8.846c-2.341-2.374-5.675-2.972-7.938-1.581l-1.961-1.989l-1.423,1.419
					l1.939,1.967c-1.502,2.263-0.959,5.7,1.425,8.119C13.009,352.673,16.944,353.081,19.142,350.89z M11.158,342.794
					c1.449-1.445,4.044-1.176,5.797,0.601c1.752,1.777,1.998,4.389,0.549,5.833c-1.449,1.445-4.044,1.176-5.797-0.601
					C9.955,346.851,9.709,344.239,11.158,342.794z"/>
				<path d="M36.081,309.043l-3.719-1.556c-3.279,8.152-8.021,14.488-12.912,19.322l2.766,2.791
					C32.462,319.39,36.081,309.043,36.081,309.043z"/>
			</g>
			<g>
				<path d="M29.132,352.543c4.144,4.181,10.893,4.212,15.074,0.068l2.696,2.72c-5.684,5.633-14.857,5.591-20.49-0.092
					c-5.176-5.223-5.56-13.392-1.179-19.053l-4.791-4.834l1.36-1.347l7.398,7.465C25.018,341.613,24.988,348.361,29.132,352.543z"/>
				<path d="M1.535,343.279l-1.523-3.733c8.181-3.205,14.56-7.89,19.438-12.737l2.766,2.791
					C11.913,339.754,1.535,343.279,1.535,343.279z"/>
			</g>
		</g>
		<g>
			<g>
				<g>
					<path d="M160.065,383.037c-4.144-4.181-4.113-10.93,0.068-15.074l-2.696-2.72c-5.684,5.633-5.725,14.806-0.092,20.49
						c5.176,5.223,13.341,5.68,19.041,1.35l4.791,4.834l1.36-1.347l-7.398-7.465C170.958,387.249,164.209,387.219,160.065,383.037z"
						/>
					<path d="M160.963,393.051c-2.198,2.191-1.825,6.151,0.832,8.845c2.341,2.374,5.675,2.972,7.938,1.581l1.961,1.989l1.423-1.419
						l-1.939-1.967c1.502-2.263,0.959-5.7-1.425-8.119C167.096,391.268,163.161,390.86,160.963,393.051z M168.947,401.147
						c-1.449,1.445-4.044,1.176-5.797-0.601c-1.752-1.777-1.998-4.388-0.549-5.833c1.449-1.445,4.044-1.176,5.797,0.601
						C170.15,397.09,170.396,399.702,168.947,401.147z"/>
					<path d="M185.198,369.684c-2.198,2.191-1.825,6.151,0.832,8.845c2.341,2.374,5.675,2.972,7.938,1.581l1.961,1.989l1.423-1.419
						l-1.939-1.967c1.502-2.263,0.959-5.7-1.425-8.119C191.33,367.901,187.395,367.493,185.198,369.684z M193.181,377.78
						c-1.449,1.445-4.044,1.176-5.797-0.601c-1.752-1.777-1.998-4.388-0.549-5.833c1.449-1.445,4.044-1.176,5.797,0.601
						C194.385,373.723,194.63,376.335,193.181,377.78z"/>
					<path d="M168.259,411.531l3.719,1.556c3.279-8.152,8.021-14.488,12.912-19.322l-2.766-2.791
						C171.878,401.184,168.259,411.531,168.259,411.531z"/>
				</g>
				<g>
					<path d="M175.207,368.031c-4.144-4.181-10.893-4.212-15.074-0.068l-2.696-2.72c5.684-5.633,14.857-5.591,20.49,0.092
						c5.176,5.223,5.56,13.392,1.179,19.053l4.791,4.834l-1.36,1.347l-7.398-7.464C179.321,378.962,179.351,372.213,175.207,368.031
						z"/>
					<path d="M202.804,377.295l1.523,3.733c-8.181,3.205-14.56,7.89-19.438,12.737l-2.766-2.791
						C192.426,380.82,202.804,377.295,202.804,377.295z"/>
				</g>
			</g>
			<g>
				<g>
					<path d="M144.918,383.042c4.144-4.181,4.113-10.93-0.068-15.074l2.696-2.72c5.684,5.633,5.725,14.806,0.092,20.49
						c-5.176,5.223-13.341,5.68-19.041,1.35l-4.791,4.834l-1.36-1.347l7.398-7.465C134.025,387.254,140.774,387.224,144.918,383.042
						z"/>
					<path d="M135.23,393.968c-2.385,2.418-2.928,5.855-1.425,8.119l-1.939,1.967l1.423,1.419l1.961-1.989
						c2.263,1.391,5.596,0.793,7.938-1.581c2.657-2.694,3.029-6.655,0.832-8.845C141.823,390.865,137.887,391.273,135.23,393.968z
						 M136.585,395.319c1.752-1.777,4.347-2.046,5.797-0.601c1.449,1.445,1.204,4.057-0.549,5.833
						c-1.752,1.777-4.347,2.046-5.797,0.601C134.587,399.707,134.833,397.095,136.585,395.319z"/>
					<path d="M110.996,370.601c-2.385,2.418-2.928,5.855-1.425,8.119l-1.939,1.967l1.423,1.419l1.961-1.989
						c2.263,1.391,5.596,0.793,7.938-1.581c2.657-2.694,3.029-6.655,0.832-8.845S113.653,367.907,110.996,370.601z M112.351,371.952
						c1.752-1.777,4.347-2.046,5.797-0.601c1.449,1.445,1.204,4.057-0.549,5.833s-4.347,2.046-5.797,0.601
						C110.353,376.34,110.599,373.729,112.351,371.952z"/>
					<path d="M136.725,411.536l-3.719,1.556c-3.279-8.152-8.021-14.488-12.912-19.322l2.766-2.791
						C133.106,401.19,136.725,411.536,136.725,411.536z"/>
				</g>
				<g>
					<path d="M129.776,368.036c4.144-4.181,10.893-4.212,15.074-0.068l2.696-2.72c-5.684-5.633-14.857-5.591-20.49,0.092
						c-5.176,5.223-5.56,13.392-1.179,19.053l-4.791,4.834l1.36,1.347l7.398-7.465C125.663,378.967,125.632,372.218,129.776,368.036
						z"/>
					<path d="M102.179,377.3l-1.523,3.733c8.181,3.205,14.56,7.89,19.438,12.737l2.766-2.791
						C112.557,380.826,102.179,377.3,102.179,377.3z"/>
				</g>
			</g>
			<g>
				<g>
					<path d="M160.065,337.53c-4.144,4.181-4.113,10.93,0.068,15.074l-2.696,2.72c-5.684-5.633-5.725-14.806-0.092-20.49
						c5.176-5.223,13.341-5.68,19.041-1.35l4.791-4.834l1.36,1.347l-7.398,7.465C170.958,333.318,164.209,333.348,160.065,337.53z"
						/>
					<path d="M169.753,326.605c2.385-2.418,2.928-5.855,1.425-8.119l1.939-1.967l-1.423-1.419l-1.961,1.989
						c-2.263-1.391-5.596-0.793-7.938,1.581c-2.657,2.694-3.029,6.655-0.832,8.845C163.161,329.707,167.096,329.299,169.753,326.605
						z M168.398,325.254c-1.752,1.777-4.347,2.046-5.797,0.601c-1.449-1.445-1.204-4.057,0.549-5.833
						c1.752-1.777,4.347-2.046,5.797-0.601C170.396,320.865,170.15,323.477,168.398,325.254z"/>
					<path d="M193.987,349.971c2.385-2.418,2.928-5.855,1.425-8.119l1.939-1.967l-1.423-1.419l-1.961,1.989
						c-2.263-1.391-5.596-0.793-7.938,1.581c-2.657,2.694-3.029,6.655-0.832,8.845C187.395,353.074,191.33,352.666,193.987,349.971z
						 M192.632,348.621c-1.752,1.777-4.347,2.046-5.797,0.601c-1.449-1.445-1.204-4.057,0.549-5.833
						c1.752-1.777,4.347-2.046,5.797-0.601C194.63,344.232,194.385,346.844,192.632,348.621z"/>
					<path d="M168.259,309.036l3.719-1.556c3.279,8.152,8.021,14.488,12.912,19.322l-2.766,2.791
						C171.878,319.383,168.259,309.036,168.259,309.036z"/>
				</g>
				<g>
					<path d="M175.207,352.536c-4.144,4.181-10.893,4.212-15.074,0.068l-2.696,2.72c5.684,5.633,14.857,5.591,20.49-0.092
						c5.176-5.223,5.56-13.392,1.179-19.053l4.791-4.834l-1.36-1.347l-7.398,7.465C179.321,341.606,179.351,348.354,175.207,352.536
						z"/>
					<path d="M202.804,343.272l1.523-3.733c-8.181-3.205-14.56-7.89-19.438-12.737l-2.766,2.791
						C192.426,339.747,202.804,343.272,202.804,343.272z"/>
				</g>
			</g>
			<g>
				<g>
					<path d="M144.918,337.525c4.144,4.181,4.113,10.93-0.068,15.074l2.696,2.72c5.684-5.633,5.725-14.806,0.092-20.49
						c-5.176-5.223-13.341-5.68-19.041-1.35l-4.791-4.834l-1.36,1.347l7.398,7.465C134.025,333.313,140.774,333.343,144.918,337.525
						z"/>
					<path d="M144.02,327.511c2.198-2.191,1.825-6.151-0.832-8.845c-2.341-2.374-5.675-2.972-7.938-1.581l-1.961-1.989l-1.423,1.419
						l1.939,1.967c-1.502,2.263-0.959,5.7,1.425,8.119C137.887,329.294,141.823,329.702,144.02,327.511z M136.037,319.415
						c1.449-1.445,4.044-1.176,5.797,0.601c1.752,1.777,1.998,4.388,0.549,5.833c-1.449,1.445-4.044,1.176-5.797-0.601
						C134.833,323.472,134.587,320.86,136.037,319.415z"/>
					<path d="M119.786,350.877c2.198-2.191,1.825-6.151-0.832-8.845c-2.341-2.374-5.675-2.972-7.938-1.581l-1.961-1.989
						l-1.423,1.419l1.939,1.967c-1.502,2.263-0.959,5.7,1.425,8.119C113.653,352.66,117.588,353.068,119.786,350.877z
						 M111.802,342.782c1.449-1.445,4.044-1.176,5.797,0.601s1.998,4.388,0.549,5.833c-1.449,1.445-4.044,1.176-5.797-0.601
						C110.599,346.839,110.353,344.227,111.802,342.782z"/>
					<path d="M136.725,309.031l-3.719-1.556c-3.279,8.152-8.021,14.488-12.912,19.322l2.766,2.791
						C133.106,319.377,136.725,309.031,136.725,309.031z"/>
				</g>
				<g>
					<path d="M129.776,352.531c4.144,4.181,10.893,4.212,15.074,0.068l2.696,2.72c-5.684,5.633-14.857,5.591-20.49-0.092
						c-5.176-5.223-5.56-13.392-1.179-19.053l-4.791-4.834l1.36-1.347l7.398,7.464C125.663,341.6,125.632,348.349,129.776,352.531z"
						/>
					<path d="M102.179,343.267l-1.523-3.733c8.181-3.205,14.56-7.89,19.438-12.737l2.766,2.791
						C112.557,339.741,102.179,343.267,102.179,343.267z"/>
				</g>
			</g>
		</g>
		<g>
			<g>
				<g>
					<path d="M59.409,280.563c-4.144-4.181-4.113-10.93,0.068-15.074l-2.696-2.72c-5.684,5.633-5.725,14.806-0.092,20.49
						c5.176,5.223,13.341,5.68,19.041,1.35l4.791,4.834l1.36-1.347l-7.398-7.465C70.302,284.774,63.553,284.744,59.409,280.563z"/>
					<path d="M60.307,290.577c-2.198,2.191-1.825,6.151,0.832,8.846c2.341,2.374,5.675,2.972,7.938,1.581l1.961,1.989l1.423-1.419
						l-1.939-1.967c1.502-2.263,0.959-5.7-1.425-8.119C66.44,288.794,62.505,288.386,60.307,290.577z M68.291,298.672
						c-1.449,1.445-4.044,1.176-5.797-0.601c-1.752-1.777-1.998-4.389-0.549-5.833c1.449-1.445,4.044-1.176,5.797,0.601
						S69.74,297.227,68.291,298.672z"/>
					<path d="M84.541,267.21c-2.198,2.191-1.825,6.151,0.832,8.846c2.341,2.374,5.675,2.972,7.938,1.581l1.961,1.989l1.423-1.419
						l-1.939-1.967c1.502-2.263,0.959-5.7-1.425-8.119C90.674,265.427,86.739,265.019,84.541,267.21z M92.525,275.305
						c-1.449,1.445-4.044,1.176-5.797-0.601c-1.752-1.777-1.998-4.389-0.549-5.833c1.449-1.445,4.044-1.176,5.797,0.601
						C93.728,271.249,93.974,273.86,92.525,275.305z"/>
					<path d="M67.603,309.056l3.719,1.556c3.279-8.152,8.021-14.488,12.912-19.322l-2.766-2.791
						C71.221,298.71,67.603,309.056,67.603,309.056z"/>
				</g>
				<g>
					<path d="M74.551,265.557c-4.144-4.181-10.893-4.212-15.074-0.068l-2.696-2.72c5.684-5.633,14.857-5.591,20.49,0.092
						c5.176,5.223,5.56,13.392,1.179,19.053l4.791,4.834l-1.36,1.347l-7.398-7.465C78.665,276.487,78.695,269.738,74.551,265.557z"
						/>
					<path d="M102.148,274.82l1.523,3.733c-8.181,3.205-14.56,7.89-19.438,12.737l-2.766-2.791
						C91.77,278.346,102.148,274.82,102.148,274.82z"/>
				</g>
			</g>
			<g>
				<g>
					<path d="M44.262,280.568c4.144-4.181,4.113-10.93-0.068-15.074l2.696-2.72c5.684,5.633,5.725,14.806,0.092,20.49
						c-5.176,5.223-13.341,5.68-19.041,1.35l-4.791,4.834l-1.36-1.347l7.398-7.465C33.369,284.78,40.118,284.749,44.262,280.568z"/>
					<path d="M34.574,291.493c-2.385,2.418-2.928,5.855-1.425,8.119l-1.939,1.967l1.423,1.419l1.961-1.989
						c2.263,1.391,5.596,0.793,7.938-1.581c2.657-2.694,3.029-6.655,0.832-8.846S37.231,288.799,34.574,291.493z M35.929,292.844
						c1.752-1.777,4.347-2.046,5.797-0.601c1.449,1.445,1.204,4.057-0.549,5.833c-1.752,1.777-4.347,2.046-5.797,0.601
						C33.931,297.232,34.177,294.621,35.929,292.844z"/>
					<path d="M10.34,268.126c-2.385,2.418-2.928,5.855-1.425,8.119l-1.939,1.967l1.423,1.419l1.961-1.989
						c2.263,1.391,5.596,0.793,7.938-1.581c2.657-2.694,3.029-6.655,0.832-8.846S12.997,265.432,10.34,268.126z M11.695,269.477
						c1.752-1.777,4.347-2.046,5.797-0.601c1.449,1.445,1.204,4.057-0.549,5.833c-1.752,1.777-4.347,2.046-5.797,0.601
						C9.697,273.866,9.943,271.254,11.695,269.477z"/>
					<path d="M36.069,309.061l-3.719,1.556c-3.279-8.152-8.021-14.488-12.912-19.322l2.766-2.791
						C32.45,298.715,36.069,309.061,36.069,309.061z"/>
				</g>
				<g>
					<path d="M29.12,265.562c4.144-4.181,10.893-4.212,15.074-0.068l2.696-2.72c-5.684-5.633-14.857-5.591-20.49,0.092
						c-5.176,5.223-5.56,13.392-1.179,19.053l-4.791,4.834l1.36,1.347l7.398-7.465C25.006,276.492,24.976,269.743,29.12,265.562z"/>
					<path d="M1.523,274.826L0,278.558c8.181,3.205,14.56,7.89,19.438,12.737l2.766-2.791
						C11.901,278.351,1.523,274.826,1.523,274.826z"/>
				</g>
			</g>
			<g>
				<g>
					<path d="M59.409,235.055c-4.144,4.181-4.113,10.93,0.068,15.074l-2.696,2.72c-5.684-5.633-5.725-14.806-0.092-20.49
						c5.176-5.223,13.341-5.68,19.041-1.35l4.791-4.834l1.36,1.347l-7.398,7.464C70.302,230.843,63.553,230.874,59.409,235.055z"/>
					<path d="M69.097,224.13c2.385-2.418,2.928-5.855,1.425-8.119l1.939-1.967l-1.423-1.419l-1.961,1.989
						c-2.263-1.391-5.596-0.793-7.938,1.581c-2.657,2.694-3.029,6.655-0.832,8.846C62.505,227.232,66.44,226.824,69.097,224.13z
						 M67.742,222.779c-1.752,1.777-4.347,2.046-5.797,0.601c-1.449-1.445-1.204-4.057,0.549-5.833
						c1.752-1.777,4.347-2.046,5.797-0.601C69.74,218.391,69.494,221.002,67.742,222.779z"/>
					<path d="M93.331,247.497c2.385-2.418,2.928-5.855,1.425-8.119l1.939-1.967l-1.423-1.419l-1.961,1.989
						c-2.263-1.391-5.596-0.793-7.938,1.581c-2.657,2.694-3.029,6.655-0.832,8.846C86.739,250.599,90.674,250.191,93.331,247.497z
						 M91.976,246.146c-1.752,1.777-4.347,2.046-5.797,0.601c-1.449-1.445-1.204-4.057,0.549-5.833
						c1.752-1.777,4.347-2.046,5.797-0.601C93.974,241.757,93.728,244.369,91.976,246.146z"/>
					<path d="M67.603,206.562l3.719-1.556c3.279,8.152,8.021,14.488,12.912,19.322l-2.766,2.791
						C71.221,216.908,67.603,206.562,67.603,206.562z"/>
				</g>
				<g>
					<path d="M74.551,250.061c-4.144,4.181-10.893,4.212-15.074,0.068l-2.696,2.72c5.684,5.633,14.857,5.591,20.49-0.092
						c5.176-5.223,5.56-13.392,1.179-19.053l4.791-4.834l-1.36-1.347l-7.398,7.465C78.665,239.131,78.695,245.88,74.551,250.061z"/>
					<path d="M102.148,240.797l1.523-3.733c-8.181-3.205-14.56-7.89-19.438-12.737l-2.766,2.791
						C91.77,237.272,102.148,240.797,102.148,240.797z"/>
				</g>
			</g>
			<g>
				<g>
					<path d="M44.262,235.05c4.144,4.181,4.113,10.93-0.068,15.074l2.696,2.72c5.684-5.633,5.725-14.806,0.092-20.49
						c-5.176-5.223-13.341-5.68-19.041-1.35l-4.791-4.834l-1.36,1.347l7.398,7.465C33.369,230.838,40.118,230.869,44.262,235.05z"/>
					<path d="M43.364,225.036c2.198-2.191,1.825-6.151-0.832-8.846c-2.341-2.374-5.675-2.972-7.938-1.581l-1.961-1.989l-1.423,1.419
						l1.939,1.967c-1.502,2.263-0.959,5.7,1.425,8.119C37.231,226.819,41.166,227.227,43.364,225.036z M35.381,216.94
						c1.449-1.445,4.044-1.176,5.797,0.601c1.752,1.777,1.998,4.389,0.549,5.833c-1.449,1.445-4.044,1.176-5.797-0.601
						C34.177,220.997,33.931,218.385,35.381,216.94z"/>
					<path d="M19.13,248.403c2.198-2.191,1.825-6.151-0.832-8.846c-2.341-2.374-5.675-2.972-7.938-1.581l-1.961-1.989l-1.423,1.419
						l1.939,1.967c-1.502,2.263-0.959,5.7,1.425,8.119C12.997,250.186,16.932,250.594,19.13,248.403z M11.146,240.307
						c1.449-1.445,4.044-1.176,5.797,0.601c1.752,1.777,1.998,4.389,0.549,5.833c-1.449,1.445-4.044,1.176-5.797-0.601
						C9.943,244.364,9.697,241.752,11.146,240.307z"/>
					<path d="M36.069,206.557L32.35,205c-3.279,8.152-8.021,14.488-12.912,19.322l2.766,2.791
						C32.45,216.903,36.069,206.557,36.069,206.557z"/>
				</g>
				<g>
					<path d="M29.12,250.056c4.144,4.181,10.893,4.212,15.074,0.068l2.696,2.72c-5.684,5.633-14.857,5.591-20.49-0.092
						c-5.176-5.223-5.56-13.392-1.179-19.053l-4.791-4.834l1.36-1.347l7.398,7.465C25.006,239.126,24.976,245.875,29.12,250.056z"/>
					<path d="M1.523,240.792L0,237.059c8.181-3.205,14.56-7.89,19.438-12.737l2.766,2.791
						C11.901,237.267,1.523,240.792,1.523,240.792z"/>
				</g>
			</g>
			<g>
				<g>
					<g>
						<path d="M160.053,280.55c-4.144-4.181-4.113-10.93,0.068-15.074l-2.696-2.72c-5.684,5.633-5.725,14.806-0.092,20.49
							c5.176,5.223,13.341,5.68,19.041,1.35l4.791,4.834l1.36-1.347l-7.398-7.465C170.946,284.762,164.197,284.732,160.053,280.55z"
							/>
						<path d="M160.951,290.564c-2.198,2.191-1.825,6.151,0.832,8.845c2.341,2.374,5.675,2.972,7.938,1.581l1.961,1.989l1.423-1.419
							l-1.939-1.967c1.502-2.263,0.959-5.7-1.425-8.119C167.084,288.781,163.149,288.373,160.951,290.564z M168.935,298.66
							c-1.449,1.445-4.044,1.176-5.797-0.601c-1.752-1.777-1.998-4.388-0.549-5.833c1.449-1.445,4.044-1.176,5.797,0.601
							C170.138,294.603,170.384,297.215,168.935,298.66z"/>
						<path d="M185.186,267.197c-2.198,2.191-1.825,6.151,0.832,8.845c2.341,2.374,5.675,2.972,7.938,1.581l1.961,1.989l1.423-1.419
							l-1.939-1.967c1.502-2.263,0.959-5.7-1.425-8.119C191.318,265.414,187.383,265.007,185.186,267.197z M193.169,275.293
							c-1.449,1.445-4.044,1.176-5.797-0.601c-1.752-1.777-1.998-4.388-0.549-5.833c1.449-1.445,4.044-1.176,5.797,0.601
							C194.373,271.236,194.618,273.848,193.169,275.293z"/>
						<path d="M168.247,309.044l3.719,1.556c3.279-8.152,8.021-14.488,12.912-19.322l-2.766-2.791
							C171.866,298.698,168.247,309.044,168.247,309.044z"/>
					</g>
					<g>
						<path d="M175.195,265.544c-4.144-4.181-10.893-4.212-15.074-0.068l-2.696-2.72c5.684-5.633,14.857-5.591,20.49,0.092
							c5.176,5.223,5.56,13.392,1.179,19.053l4.791,4.834l-1.36,1.347l-7.398-7.465
							C179.309,276.475,179.339,269.726,175.195,265.544z"/>
						<path d="M202.792,274.808l1.523,3.733c-8.181,3.205-14.56,7.89-19.438,12.737l-2.766-2.791
							C192.414,278.334,202.792,274.808,202.792,274.808z"/>
					</g>
				</g>
				<g>
					<g>
						<path d="M144.906,280.556c4.144-4.181,4.113-10.93-0.068-15.074l2.696-2.72c5.684,5.633,5.725,14.806,0.092,20.49
							c-5.176,5.223-13.341,5.68-19.041,1.35l-4.791,4.834l-1.36-1.347l7.398-7.465
							C134.013,284.767,140.762,284.737,144.906,280.556z"/>
						<path d="M135.218,291.481c-2.385,2.418-2.928,5.855-1.425,8.119l-1.939,1.967l1.423,1.419l1.961-1.989
							c2.263,1.391,5.596,0.793,7.938-1.581c2.657-2.694,3.029-6.655,0.832-8.845C141.811,288.379,137.875,288.787,135.218,291.481z
							 M136.573,292.832c1.752-1.777,4.347-2.046,5.797-0.601c1.449,1.445,1.204,4.057-0.549,5.833
							c-1.752,1.777-4.347,2.046-5.797,0.601C134.575,297.22,134.821,294.609,136.573,292.832z"/>
						<path d="M110.984,268.114c-2.385,2.418-2.928,5.855-1.425,8.119l-1.939,1.967l1.423,1.419l1.961-1.989
							c2.263,1.391,5.596,0.793,7.938-1.581c2.657-2.694,3.029-6.655,0.832-8.845C117.576,265.012,113.641,265.42,110.984,268.114z
							 M112.339,269.465c1.752-1.777,4.347-2.046,5.797-0.601c1.449,1.445,1.204,4.057-0.549,5.833
							c-1.752,1.777-4.347,2.046-5.797,0.601C110.341,273.853,110.587,271.242,112.339,269.465z"/>
						<path d="M136.713,309.049l-3.719,1.556c-3.279-8.152-8.021-14.488-12.912-19.322l2.766-2.791
							C133.094,298.703,136.713,309.049,136.713,309.049z"/>
					</g>
					<g>
						<path d="M129.764,265.55c4.144-4.181,10.893-4.212,15.074-0.068l2.696-2.72c-5.684-5.633-14.857-5.591-20.49,0.092
							c-5.176,5.223-5.56,13.392-1.179,19.053l-4.791,4.834l1.36,1.347l7.398-7.465C125.651,276.48,125.62,269.731,129.764,265.55z"
							/>
						<path d="M102.167,274.813l-1.523,3.733c8.181,3.205,14.56,7.89,19.438,12.737l2.766-2.791
							C112.545,278.339,102.167,274.813,102.167,274.813z"/>
					</g>
				</g>
				<g>
					<g>
						<path d="M160.053,235.043c-4.144,4.181-4.113,10.93,0.068,15.074l-2.696,2.72c-5.684-5.633-5.725-14.806-0.092-20.49
							c5.176-5.223,13.341-5.68,19.041-1.35l4.791-4.834l1.36,1.347l-7.398,7.465C170.946,230.831,164.197,230.862,160.053,235.043z
							"/>
						<path d="M169.741,224.118c2.385-2.418,2.928-5.855,1.425-8.119l1.939-1.967l-1.423-1.419l-1.961,1.989
							c-2.263-1.391-5.596-0.793-7.938,1.581c-2.657,2.694-3.029,6.655-0.832,8.846S167.084,226.812,169.741,224.118z
							 M168.386,222.767c-1.752,1.777-4.347,2.046-5.797,0.601c-1.449-1.445-1.204-4.057,0.549-5.833
							c1.752-1.777,4.347-2.046,5.797-0.601S170.138,220.99,168.386,222.767z"/>
						<path d="M193.975,247.485c2.385-2.418,2.928-5.855,1.425-8.119l1.939-1.967l-1.423-1.419l-1.961,1.989
							c-2.263-1.391-5.596-0.793-7.938,1.581c-2.657,2.694-3.029,6.655-0.832,8.846
							C187.383,250.587,191.318,250.179,193.975,247.485z M192.62,246.134c-1.752,1.777-4.347,2.046-5.797,0.601
							c-1.449-1.445-1.204-4.057,0.549-5.833c1.752-1.777,4.347-2.046,5.797-0.601C194.618,241.745,194.373,244.357,192.62,246.134z
							"/>
						<path d="M168.247,206.55l3.719-1.556c3.279,8.152,8.021,14.488,12.912,19.322l-2.766,2.791
							C171.866,216.896,168.247,206.55,168.247,206.55z"/>
					</g>
					<g>
						<path d="M175.195,250.049c-4.144,4.181-10.893,4.212-15.074,0.068l-2.696,2.72c5.684,5.633,14.857,5.591,20.49-0.092
							c5.176-5.223,5.56-13.392,1.179-19.053l4.791-4.834l-1.36-1.347l-7.398,7.464
							C179.309,239.119,179.339,245.868,175.195,250.049z"/>
						<path d="M202.792,240.785l1.523-3.733c-8.181-3.205-14.56-7.89-19.438-12.737l-2.766,2.791
							C192.414,237.26,202.792,240.785,202.792,240.785z"/>
					</g>
				</g>
				<g>
					<g>
						<path d="M144.906,235.038c4.144,4.181,4.113,10.93-0.068,15.074l2.696,2.72c5.684-5.633,5.725-14.806,0.092-20.49
							c-5.176-5.223-13.341-5.68-19.041-1.35l-4.791-4.834l-1.36,1.347l7.398,7.464
							C134.013,230.826,140.762,230.856,144.906,235.038z"/>
						<path d="M144.008,225.024c2.198-2.191,1.825-6.151-0.832-8.846c-2.341-2.374-5.675-2.972-7.938-1.581l-1.961-1.989
							l-1.423,1.419l1.939,1.967c-1.502,2.263-0.959,5.7,1.425,8.119C137.875,226.807,141.811,227.215,144.008,225.024z
							 M136.025,216.928c1.449-1.445,4.044-1.176,5.797,0.601c1.752,1.777,1.998,4.389,0.549,5.833
							c-1.449,1.445-4.044,1.176-5.797-0.601C134.821,220.985,134.575,218.373,136.025,216.928z"/>
						<path d="M119.774,248.391c2.198-2.191,1.825-6.151-0.832-8.846c-2.341-2.374-5.675-2.972-7.938-1.581l-1.961-1.989
							l-1.423,1.419l1.939,1.967c-1.502,2.263-0.959,5.7,1.425,8.119C113.641,250.174,117.576,250.582,119.774,248.391z
							 M111.79,240.295c1.449-1.445,4.044-1.176,5.797,0.601c1.752,1.777,1.998,4.389,0.549,5.833s-4.044,1.176-5.797-0.601
							C110.587,244.352,110.341,241.74,111.79,240.295z"/>
						<path d="M136.713,206.544l-3.719-1.556c-3.279,8.152-8.021,14.488-12.912,19.322l2.766,2.791
							C133.094,216.891,136.713,206.544,136.713,206.544z"/>
					</g>
					<g>
						<path d="M129.764,250.044c4.144,4.181,10.893,4.212,15.074,0.068l2.696,2.72c-5.684,5.633-14.857,5.591-20.49-0.092
							c-5.176-5.223-5.56-13.392-1.179-19.053l-4.791-4.834l1.36-1.347l7.398,7.464C125.651,239.113,125.62,245.862,129.764,250.044
							z"/>
						<path d="M102.167,240.78l-1.523-3.733c8.181-3.205,14.56-7.89,19.438-12.737l2.766,2.791
							C112.545,237.254,102.167,240.78,102.167,240.78z"/>
					</g>
				</g>
			</g>
		</g>
	</g>
	<g>
		<g>
			<g>
				<path d="M59.421,178.061c-4.144-4.181-4.113-10.93,0.068-15.074l-2.696-2.72c-5.684,5.633-5.725,14.806-0.092,20.49
					c5.176,5.223,13.341,5.68,19.041,1.35l4.791,4.834l1.36-1.347l-7.398-7.464C70.314,182.273,63.565,182.243,59.421,178.061z"/>
				<path d="M60.319,188.075c-2.198,2.191-1.825,6.151,0.832,8.846c2.341,2.374,5.675,2.972,7.938,1.581l1.961,1.989l1.423-1.419
					l-1.939-1.967c1.502-2.263,0.959-5.7-1.425-8.119C66.452,186.292,62.517,185.884,60.319,188.075z M68.303,196.171
					c-1.449,1.445-4.044,1.176-5.797-0.601c-1.752-1.777-1.998-4.389-0.549-5.833c1.449-1.445,4.044-1.176,5.797,0.601
					C69.506,192.114,69.752,194.726,68.303,196.171z"/>
				<path d="M84.553,164.709c-2.198,2.191-1.825,6.151,0.832,8.846c2.341,2.374,5.675,2.972,7.938,1.581l1.961,1.989l1.423-1.419
					l-1.939-1.967c1.502-2.263,0.959-5.7-1.425-8.119C90.686,162.926,86.751,162.518,84.553,164.709z M92.537,172.804
					c-1.449,1.445-4.044,1.176-5.797-0.601c-1.752-1.777-1.998-4.389-0.549-5.833c1.449-1.445,4.044-1.176,5.797,0.601
					C93.74,168.748,93.986,171.359,92.537,172.804z"/>
				<path d="M67.615,206.555l3.719,1.556c3.279-8.152,8.021-14.488,12.912-19.322l-2.766-2.791
					C71.233,196.209,67.615,206.555,67.615,206.555z"/>
			</g>
			<g>
				<path d="M74.563,163.055c-4.144-4.181-10.893-4.212-15.074-0.068l-2.696-2.72c5.684-5.633,14.857-5.591,20.49,0.092
					c5.176,5.223,5.56,13.392,1.179,19.053l4.791,4.834l-1.36,1.347l-7.398-7.464C78.677,173.986,78.707,167.237,74.563,163.055z"/>
				<path d="M102.16,172.319l1.523,3.733c-8.181,3.205-14.56,7.89-19.438,12.737l-2.766-2.791
					C91.782,175.845,102.16,172.319,102.16,172.319z"/>
			</g>
		</g>
		<g>
			<g>
				<path d="M44.274,178.067c4.144-4.181,4.113-10.93-0.068-15.074l2.696-2.72c5.684,5.633,5.725,14.806,0.092,20.49
					c-5.176,5.223-13.341,5.68-19.041,1.35l-4.791,4.834l-1.36-1.347l7.398-7.464C33.381,182.279,40.13,182.248,44.274,178.067z"/>
				<path d="M34.586,188.992c-2.385,2.418-2.928,5.855-1.425,8.119l-1.939,1.967l1.423,1.419l1.961-1.989
					c2.263,1.391,5.596,0.793,7.938-1.581c2.657-2.694,3.029-6.655,0.832-8.846C41.178,185.89,37.243,186.298,34.586,188.992z
					 M35.941,190.343c1.752-1.777,4.347-2.046,5.797-0.601c1.449,1.445,1.204,4.057-0.549,5.833
					c-1.752,1.777-4.347,2.046-5.797,0.601C33.943,194.731,34.189,192.12,35.941,190.343z"/>
				<path d="M10.352,165.625c-2.385,2.418-2.928,5.855-1.425,8.119l-1.939,1.967l1.423,1.419l1.961-1.989
					c2.263,1.391,5.596,0.793,7.938-1.581c2.657-2.694,3.029-6.655,0.832-8.846C16.944,162.523,13.009,162.931,10.352,165.625z
					 M11.707,166.976c1.752-1.777,4.347-2.046,5.797-0.601c1.449,1.445,1.204,4.057-0.549,5.833
					c-1.752,1.777-4.347,2.046-5.797,0.601C9.709,171.365,9.955,168.753,11.707,166.976z"/>
				<path d="M36.081,206.56l-3.719,1.556c-3.279-8.152-8.021-14.488-12.912-19.322l2.766-2.791
					C32.462,196.214,36.081,206.56,36.081,206.56z"/>
			</g>
			<g>
				<path d="M29.132,163.061c4.144-4.181,10.893-4.212,15.074-0.068l2.696-2.72c-5.684-5.633-14.857-5.591-20.49,0.092
					c-5.176,5.223-5.56,13.392-1.179,19.053l-4.791,4.834l1.36,1.347l7.398-7.465C25.018,173.991,24.988,167.242,29.132,163.061z"/>
				<path d="M1.535,172.324l-1.523,3.733c8.181,3.205,14.56,7.89,19.438,12.737l2.766-2.791
					C11.913,175.85,1.535,172.324,1.535,172.324z"/>
			</g>
		</g>
		<g>
			<g>
				<path d="M59.421,132.554c-4.144,4.181-4.113,10.93,0.068,15.074l-2.696,2.72c-5.684-5.633-5.725-14.806-0.092-20.49
					c5.176-5.223,13.341-5.68,19.041-1.35l4.791-4.834l1.36,1.347l-7.398,7.465C70.314,128.342,63.565,128.373,59.421,132.554z"/>
				<path d="M69.109,121.629c2.385-2.418,2.928-5.855,1.425-8.119l1.939-1.967l-1.423-1.419l-1.961,1.989
					c-2.263-1.391-5.596-0.793-7.938,1.581c-2.657,2.694-3.029,6.655-0.832,8.846C62.517,124.731,66.452,124.323,69.109,121.629z
					 M67.754,120.278c-1.752,1.777-4.347,2.046-5.797,0.601c-1.449-1.445-1.204-4.057,0.549-5.833
					c1.752-1.777,4.347-2.046,5.797-0.601C69.752,115.889,69.506,118.501,67.754,120.278z"/>
				<path d="M93.343,144.996c2.385-2.418,2.928-5.855,1.425-8.119l1.939-1.967l-1.423-1.419l-1.961,1.989
					c-2.263-1.391-5.596-0.793-7.938,1.581c-2.657,2.694-3.029,6.655-0.832,8.846C86.751,148.098,90.686,147.69,93.343,144.996z
					 M91.988,143.645c-1.752,1.777-4.347,2.046-5.797,0.601c-1.449-1.445-1.204-4.057,0.549-5.833
					c1.752-1.777,4.347-2.046,5.797-0.601C93.986,139.256,93.74,141.868,91.988,143.645z"/>
				<path d="M67.615,104.061l3.719-1.556c3.279,8.152,8.021,14.488,12.912,19.322l-2.766,2.791
					C71.233,114.407,67.615,104.061,67.615,104.061z"/>
			</g>
			<g>
				<path d="M74.563,147.56c-4.144,4.181-10.893,4.212-15.074,0.068l-2.696,2.72c5.684,5.633,14.857,5.591,20.49-0.092
					c5.176-5.223,5.56-13.392,1.179-19.053l4.791-4.834l-1.36-1.347l-7.398,7.465C78.677,136.63,78.707,143.379,74.563,147.56z"/>
				<path d="M102.16,138.296l1.523-3.733c-8.181-3.205-14.56-7.89-19.438-12.737l-2.766,2.791
					C91.782,134.771,102.16,138.296,102.16,138.296z"/>
			</g>
		</g>
		<g>
			<g>
				<path d="M44.274,132.549c4.144,4.181,4.113,10.93-0.068,15.074l2.696,2.72c5.684-5.633,5.725-14.806,0.092-20.49
					c-5.176-5.223-13.341-5.68-19.041-1.35l-4.791-4.834l-1.36,1.347l7.398,7.465C33.381,128.337,40.13,128.367,44.274,132.549z"/>
				<path d="M43.376,122.535c2.198-2.191,1.825-6.151-0.832-8.846c-2.341-2.374-5.675-2.972-7.938-1.581l-1.961-1.989l-1.423,1.419
					l1.939,1.967c-1.502,2.263-0.959,5.7,1.425,8.119C37.243,124.318,41.178,124.726,43.376,122.535z M35.393,114.439
					c1.449-1.445,4.044-1.176,5.797,0.601c1.752,1.777,1.998,4.389,0.549,5.833c-1.449,1.445-4.044,1.176-5.797-0.601
					C34.189,118.496,33.943,115.884,35.393,114.439z"/>
				<path d="M19.142,145.902c2.198-2.191,1.825-6.151-0.832-8.846c-2.341-2.374-5.675-2.972-7.938-1.581l-1.961-1.989l-1.423,1.419
					l1.939,1.967c-1.502,2.263-0.959,5.7,1.425,8.119C13.009,147.685,16.944,148.093,19.142,145.902z M11.158,137.806
					c1.449-1.445,4.044-1.176,5.797,0.601c1.752,1.777,1.998,4.389,0.549,5.833c-1.449,1.445-4.044,1.176-5.797-0.601
					C9.955,141.863,9.709,139.251,11.158,137.806z"/>
				<path d="M36.081,104.055l-3.719-1.556c-3.279,8.152-8.021,14.488-12.912,19.322l2.766,2.791
					C32.462,114.402,36.081,104.055,36.081,104.055z"/>
			</g>
			<g>
				<path d="M29.132,147.555c4.144,4.181,10.893,4.212,15.074,0.068l2.696,2.72c-5.684,5.633-14.857,5.591-20.49-0.092
					c-5.176-5.223-5.56-13.392-1.179-19.053l-4.791-4.834l1.36-1.347l7.398,7.464C25.018,136.624,24.988,143.373,29.132,147.555z"/>
				<path d="M1.535,138.291l-1.523-3.733c8.181-3.205,14.56-7.89,19.438-12.737l2.766,2.791
					C11.913,134.766,1.535,138.291,1.535,138.291z"/>
			</g>
		</g>
		<g>
			<g>
				<g>
					<path d="M160.065,178.049c-4.144-4.181-4.113-10.93,0.068-15.074l-2.696-2.72c-5.684,5.633-5.725,14.806-0.092,20.49
						c5.176,5.223,13.341,5.68,19.041,1.35l4.791,4.834l1.36-1.347l-7.398-7.465C170.958,182.261,164.209,182.231,160.065,178.049z"
						/>
					<path d="M160.963,188.063c-2.198,2.191-1.825,6.151,0.832,8.846c2.341,2.374,5.675,2.972,7.938,1.581l1.961,1.989l1.423-1.419
						l-1.939-1.967c1.502-2.263,0.959-5.7-1.425-8.119C167.096,186.28,163.161,185.872,160.963,188.063z M168.947,196.159
						c-1.449,1.445-4.044,1.176-5.797-0.601c-1.752-1.777-1.998-4.389-0.549-5.833c1.449-1.445,4.044-1.176,5.797,0.601
						C170.15,192.102,170.396,194.714,168.947,196.159z"/>
					<path d="M185.198,164.696c-2.198,2.191-1.825,6.151,0.832,8.846c2.341,2.374,5.675,2.972,7.938,1.581l1.961,1.989l1.423-1.419
						l-1.939-1.967c1.502-2.263,0.959-5.7-1.425-8.119C191.33,162.913,187.395,162.505,185.198,164.696z M193.181,172.792
						c-1.449,1.445-4.044,1.176-5.797-0.601c-1.752-1.777-1.998-4.389-0.549-5.833c1.449-1.445,4.044-1.176,5.797,0.601
						C194.385,168.735,194.63,171.347,193.181,172.792z"/>
					<path d="M168.259,206.543l3.719,1.556c3.279-8.152,8.021-14.488,12.912-19.322l-2.766-2.791
						C171.878,196.196,168.259,206.543,168.259,206.543z"/>
				</g>
				<g>
					<path d="M175.207,163.043c-4.144-4.181-10.893-4.212-15.074-0.068l-2.696-2.72c5.684-5.633,14.857-5.591,20.49,0.092
						c5.176,5.223,5.56,13.392,1.179,19.053l4.791,4.834l-1.36,1.347l-7.398-7.464C179.321,173.974,179.351,167.225,175.207,163.043
						z"/>
					<path d="M202.804,172.307l1.523,3.733c-8.181,3.205-14.56,7.89-19.438,12.737l-2.766-2.791
						C192.426,175.832,202.804,172.307,202.804,172.307z"/>
				</g>
			</g>
			<g>
				<g>
					<path d="M144.918,178.054c4.144-4.181,4.113-10.93-0.068-15.074l2.696-2.72c5.684,5.633,5.725,14.806,0.092,20.49
						c-5.176,5.223-13.341,5.68-19.041,1.35l-4.791,4.834l-1.36-1.347l7.398-7.465C134.025,182.266,140.774,182.236,144.918,178.054
						z"/>
					<path d="M135.23,188.98c-2.385,2.418-2.928,5.855-1.425,8.119l-1.939,1.967l1.423,1.419l1.961-1.989
						c2.263,1.391,5.596,0.793,7.938-1.581c2.657-2.694,3.029-6.655,0.832-8.846C141.823,185.877,137.887,186.285,135.23,188.98z
						 M136.585,190.331c1.752-1.777,4.347-2.046,5.797-0.601c1.449,1.445,1.204,4.057-0.549,5.833
						c-1.752,1.777-4.347,2.046-5.797,0.601C134.587,194.719,134.833,192.107,136.585,190.331z"/>
					<path d="M110.996,165.613c-2.385,2.418-2.928,5.855-1.425,8.119l-1.939,1.967l1.423,1.419l1.961-1.989
						c2.263,1.391,5.596,0.793,7.938-1.581c2.657-2.694,3.029-6.655,0.832-8.846S113.653,162.919,110.996,165.613z M112.351,166.964
						c1.752-1.777,4.347-2.046,5.797-0.601s1.204,4.057-0.549,5.833c-1.752,1.777-4.347,2.046-5.797,0.601
						C110.353,171.352,110.599,168.741,112.351,166.964z"/>
					<path d="M136.725,206.548l-3.719,1.556c-3.279-8.152-8.021-14.488-12.912-19.322l2.766-2.791
						C133.106,196.202,136.725,206.548,136.725,206.548z"/>
				</g>
				<g>
					<path d="M129.776,163.048c4.144-4.181,10.893-4.212,15.074-0.068l2.696-2.72c-5.684-5.633-14.857-5.591-20.49,0.092
						c-5.176,5.223-5.56,13.392-1.179,19.053l-4.791,4.834l1.36,1.347l7.398-7.464C125.663,173.979,125.632,167.23,129.776,163.048z
						"/>
					<path d="M102.179,172.312l-1.523,3.733c8.181,3.205,14.56,7.89,19.438,12.737l2.766-2.791
						C112.557,175.838,102.179,172.312,102.179,172.312z"/>
				</g>
			</g>
			<g>
				<g>
					<path d="M160.065,132.542c-4.144,4.181-4.113,10.93,0.068,15.074l-2.696,2.72c-5.684-5.633-5.725-14.806-0.092-20.49
						c5.176-5.223,13.341-5.68,19.041-1.35l4.791-4.834l1.36,1.347l-7.398,7.465C170.958,128.33,164.209,128.36,160.065,132.542z"/>
					<path d="M169.753,121.617c2.385-2.418,2.928-5.855,1.425-8.119l1.939-1.967l-1.423-1.419l-1.961,1.989
						c-2.263-1.391-5.596-0.793-7.938,1.581c-2.657,2.694-3.029,6.655-0.832,8.846C163.161,124.719,167.096,124.311,169.753,121.617
						z M168.398,120.266c-1.752,1.777-4.347,2.046-5.797,0.601c-1.449-1.445-1.204-4.057,0.549-5.833
						c1.752-1.777,4.347-2.046,5.797-0.601C170.396,115.877,170.15,118.489,168.398,120.266z"/>
					<path d="M193.987,144.983c2.385-2.418,2.928-5.855,1.425-8.119l1.939-1.967l-1.423-1.419l-1.961,1.989
						c-2.263-1.391-5.596-0.793-7.938,1.581c-2.657,2.694-3.029,6.655-0.832,8.846S191.33,147.678,193.987,144.983z
						 M192.632,143.633c-1.752,1.777-4.347,2.046-5.797,0.601c-1.449-1.445-1.204-4.057,0.549-5.833
						c1.752-1.777,4.347-2.046,5.797-0.601C194.63,139.244,194.385,141.856,192.632,143.633z"/>
					<path d="M168.259,104.048l3.719-1.556c3.279,8.152,8.021,14.488,12.912,19.322l-2.766,2.791
						C171.878,114.395,168.259,104.048,168.259,104.048z"/>
				</g>
				<g>
					<path d="M175.207,147.548c-4.144,4.181-10.893,4.212-15.074,0.068l-2.696,2.72c5.684,5.633,14.857,5.591,20.49-0.092
						c5.176-5.223,5.56-13.392,1.179-19.053l4.791-4.834l-1.36-1.347l-7.398,7.464C179.321,136.618,179.351,143.366,175.207,147.548
						z"/>
					<path d="M202.804,138.284l1.523-3.733c-8.181-3.205-14.56-7.89-19.438-12.737l-2.766,2.791
						C192.426,134.759,202.804,138.284,202.804,138.284z"/>
				</g>
			</g>
			<g>
				<g>
					<path d="M144.918,132.537c4.144,4.181,4.113,10.93-0.068,15.074l2.696,2.72c5.684-5.633,5.725-14.806,0.092-20.49
						c-5.176-5.223-13.341-5.68-19.041-1.35l-4.791-4.834l-1.36,1.347l7.398,7.464C134.025,128.325,140.774,128.355,144.918,132.537
						z"/>
					<path d="M144.02,122.523c2.198-2.191,1.825-6.151-0.832-8.846c-2.341-2.374-5.675-2.972-7.938-1.581l-1.961-1.989l-1.423,1.419
						l1.939,1.967c-1.502,2.263-0.959,5.7,1.425,8.119C137.887,124.306,141.823,124.714,144.02,122.523z M136.037,114.427
						c1.449-1.445,4.044-1.176,5.797,0.601c1.752,1.777,1.998,4.389,0.549,5.833c-1.449,1.445-4.044,1.176-5.797-0.601
						C134.833,118.484,134.587,115.872,136.037,114.427z"/>
					<path d="M119.786,145.889c2.198-2.191,1.825-6.151-0.832-8.846c-2.341-2.374-5.675-2.972-7.938-1.581l-1.961-1.989
						l-1.423,1.419l1.939,1.967c-1.502,2.263-0.959,5.7,1.425,8.119C113.653,147.672,117.588,148.08,119.786,145.889z
						 M111.802,137.794c1.449-1.445,4.044-1.176,5.797,0.601c1.752,1.777,1.998,4.389,0.549,5.833s-4.044,1.176-5.797-0.601
						C110.599,141.85,110.353,139.239,111.802,137.794z"/>
					<path d="M136.725,104.043l-3.719-1.556c-3.279,8.152-8.021,14.488-12.912,19.322l2.766,2.791
						C133.106,114.389,136.725,104.043,136.725,104.043z"/>
				</g>
				<g>
					<path d="M129.776,147.543c4.144,4.181,10.893,4.212,15.074,0.068l2.696,2.72c-5.684,5.633-14.857,5.591-20.49-0.092
						c-5.176-5.223-5.56-13.392-1.179-19.053l-4.791-4.834l1.36-1.347l7.398,7.465C125.663,136.612,125.632,143.361,129.776,147.543
						z"/>
					<path d="M102.179,138.279l-1.523-3.733c8.181-3.205,14.56-7.89,19.438-12.737l2.766,2.791
						C112.557,134.753,102.179,138.279,102.179,138.279z"/>
				</g>
			</g>
		</g>
		<g>
			<g>
				<g>
					<path d="M59.409,75.575c-4.144-4.181-4.113-10.93,0.068-15.074l-2.696-2.72c-5.684,5.633-5.725,14.806-0.092,20.49
						c5.176,5.223,13.341,5.68,19.041,1.35l4.791,4.834l1.36-1.347l-7.398-7.465C70.302,79.786,63.553,79.756,59.409,75.575z"/>
					<path d="M60.307,85.589c-2.198,2.191-1.825,6.151,0.832,8.846c2.341,2.374,5.675,2.972,7.938,1.581l1.961,1.989l1.423-1.419
						l-1.939-1.967c1.502-2.263,0.959-5.7-1.425-8.119C66.44,83.806,62.505,83.398,60.307,85.589z M68.291,93.684
						c-1.449,1.445-4.044,1.176-5.797-0.601c-1.752-1.777-1.998-4.389-0.549-5.833c1.449-1.445,4.044-1.176,5.797,0.601
						C69.494,89.627,69.74,92.239,68.291,93.684z"/>
					<path d="M84.541,62.222c-2.198,2.191-1.825,6.151,0.832,8.846c2.341,2.374,5.675,2.972,7.938,1.581l1.961,1.989l1.423-1.419
						l-1.939-1.967c1.502-2.263,0.959-5.7-1.425-8.119C90.674,60.439,86.739,60.031,84.541,62.222z M92.525,70.317
						c-1.449,1.445-4.044,1.176-5.797-0.601c-1.752-1.777-1.998-4.389-0.549-5.833c1.449-1.445,4.044-1.176,5.797,0.601
						C93.728,66.261,93.974,68.872,92.525,70.317z"/>
					<path d="M67.603,104.068l3.719,1.556c3.279-8.152,8.021-14.488,12.912-19.322l-2.766-2.791
						C71.221,93.722,67.603,104.068,67.603,104.068z"/>
				</g>
				<g>
					<path d="M74.551,60.569c-4.144-4.181-10.893-4.212-15.074-0.068l-2.696-2.72c5.684-5.633,14.857-5.591,20.49,0.092
						c5.176,5.223,5.56,13.392,1.179,19.053l4.791,4.834l-1.36,1.347l-7.398-7.464C78.665,71.499,78.695,64.75,74.551,60.569z"/>
					<path d="M102.148,69.832l1.523,3.733c-8.181,3.205-14.56,7.89-19.438,12.737l-2.766-2.791
						C91.77,73.358,102.148,69.832,102.148,69.832z"/>
				</g>
			</g>
			<g>
				<g>
					<path d="M44.262,75.58c4.144-4.181,4.113-10.93-0.068-15.074l2.696-2.72c5.684,5.633,5.725,14.806,0.092,20.49
						c-5.176,5.223-13.341,5.68-19.041,1.35L23.15,84.46l-1.36-1.347l7.398-7.465C33.369,79.792,40.118,79.761,44.262,75.58z"/>
					<path d="M34.574,86.505c-2.385,2.418-2.928,5.855-1.425,8.119l-1.939,1.967l1.423,1.419l1.961-1.989
						c2.263,1.391,5.596,0.793,7.938-1.581c2.657-2.694,3.029-6.655,0.832-8.846C41.166,83.403,37.231,83.811,34.574,86.505z
						 M35.929,87.856c1.752-1.777,4.347-2.046,5.797-0.601c1.449,1.445,1.204,4.057-0.549,5.833
						c-1.752,1.777-4.347,2.046-5.797,0.601C33.931,92.244,34.177,89.633,35.929,87.856z"/>
					<path d="M10.34,63.138c-2.385,2.418-2.928,5.855-1.425,8.119l-1.939,1.967l1.423,1.419l1.961-1.989
						c2.263,1.391,5.596,0.793,7.938-1.581c2.657-2.694,3.029-6.655,0.832-8.846S12.997,60.444,10.34,63.138z M11.695,64.489
						c1.752-1.777,4.347-2.046,5.797-0.601c1.449,1.445,1.204,4.057-0.549,5.833c-1.752,1.777-4.347,2.046-5.797,0.601
						C9.697,68.878,9.943,66.266,11.695,64.489z"/>
					<path d="M36.069,104.073l-3.719,1.556c-3.279-8.152-8.021-14.488-12.912-19.322l2.766-2.791
						C32.45,93.727,36.069,104.073,36.069,104.073z"/>
				</g>
				<g>
					<path d="M29.12,60.574c4.144-4.181,10.893-4.212,15.074-0.068l2.696-2.72c-5.684-5.633-14.857-5.591-20.49,0.092
						c-5.176,5.223-5.56,13.392-1.179,19.053l-4.791,4.834l1.36,1.347l7.398-7.465C25.006,71.504,24.976,64.755,29.12,60.574z"/>
					<path d="M1.523,69.838L0,73.57c8.181,3.205,14.56,7.89,19.438,12.737l2.766-2.791C11.901,73.363,1.523,69.838,1.523,69.838z"/>
				</g>
			</g>
			<g>
				<g>
					<path d="M59.409,30.067c-4.144,4.181-4.113,10.93,0.068,15.074l-2.696,2.72c-5.684-5.633-5.725-14.806-0.092-20.49
						c5.176-5.223,13.341-5.68,19.041-1.35l4.791-4.834l1.36,1.347l-7.398,7.465C70.302,25.855,63.553,25.886,59.409,30.067z"/>
					<path d="M69.097,19.142c2.385-2.418,2.928-5.855,1.425-8.119l1.939-1.967l-1.423-1.419l-1.961,1.989
						c-2.263-1.391-5.596-0.793-7.938,1.581c-2.657,2.694-3.029,6.655-0.832,8.846C62.505,22.244,66.44,21.836,69.097,19.142z
						 M67.742,17.791c-1.752,1.777-4.347,2.046-5.797,0.601c-1.449-1.445-1.204-4.057,0.549-5.833
						c1.752-1.777,4.347-2.046,5.797-0.601C69.74,13.403,69.494,16.014,67.742,17.791z"/>
					<path d="M93.331,42.509c2.385-2.418,2.928-5.855,1.425-8.119l1.939-1.967l-1.423-1.419l-1.961,1.989
						c-2.263-1.391-5.596-0.793-7.938,1.581c-2.657,2.694-3.029,6.655-0.832,8.846C86.739,45.611,90.674,45.203,93.331,42.509z
						 M91.976,41.158c-1.752,1.777-4.347,2.046-5.797,0.601c-1.449-1.445-1.204-4.057,0.549-5.833
						c1.752-1.777,4.347-2.046,5.797-0.601C93.974,36.769,93.728,39.381,91.976,41.158z"/>
					<path d="M67.603,1.574l3.719-1.556c3.279,8.152,8.021,14.488,12.912,19.322l-2.766,2.791
						C71.221,11.92,67.603,1.574,67.603,1.574z"/>
				</g>
				<g>
					<path d="M74.551,45.073c-4.144,4.181-10.893,4.212-15.074,0.068l-2.696,2.72c5.684,5.633,14.857,5.591,20.49-0.092
						c5.176-5.223,5.56-13.392,1.179-19.053l4.791-4.834l-1.36-1.347l-7.398,7.465C78.665,34.143,78.695,40.892,74.551,45.073z"/>
					<path d="M102.148,35.809l1.523-3.733c-8.181-3.205-14.56-7.89-19.438-12.737l-2.766,2.791
						C91.77,32.284,102.148,35.809,102.148,35.809z"/>
				</g>
			</g>
			<g>
				<g>
					<path d="M44.262,30.062c4.144,4.181,4.113,10.93-0.068,15.074l2.696,2.72c5.684-5.633,5.725-14.806,0.092-20.49
						c-5.176-5.223-13.341-5.68-19.041-1.35l-4.791-4.834l-1.36,1.347l7.398,7.465C33.369,25.85,40.118,25.881,44.262,30.062z"/>
					<path d="M43.364,20.048c2.198-2.191,1.825-6.151-0.832-8.846c-2.341-2.374-5.675-2.972-7.938-1.581l-1.961-1.989l-1.423,1.419
						l1.939,1.967c-1.502,2.263-0.959,5.7,1.425,8.119C37.231,21.831,41.166,22.239,43.364,20.048z M35.381,11.952
						c1.449-1.445,4.044-1.176,5.797,0.601c1.752,1.777,1.998,4.389,0.549,5.833c-1.449,1.445-4.044,1.176-5.797-0.601
						C34.177,16.009,33.931,13.397,35.381,11.952z"/>
					<path d="M19.13,43.415c2.198-2.191,1.825-6.151-0.832-8.846c-2.341-2.374-5.675-2.972-7.938-1.581l-1.961-1.989l-1.423,1.419
						l1.939,1.967c-1.502,2.263-0.959,5.7,1.425,8.119C12.997,45.198,16.932,45.606,19.13,43.415z M11.146,35.319
						c1.449-1.445,4.044-1.176,5.797,0.601c1.752,1.777,1.998,4.389,0.549,5.833c-1.449,1.445-4.044,1.176-5.797-0.601
						C9.943,39.376,9.697,36.764,11.146,35.319z"/>
					<path d="M36.069,1.569L32.35,0.012C29.071,8.164,24.329,14.5,19.438,19.335l2.766,2.791
						C32.45,11.915,36.069,1.569,36.069,1.569z"/>
				</g>
				<g>
					<path d="M29.12,45.068c4.144,4.181,10.893,4.212,15.074,0.068l2.696,2.72c-5.684,5.633-14.857,5.591-20.49-0.092
						c-5.176-5.223-5.56-13.392-1.179-19.053l-4.791-4.834l1.36-1.347l7.398,7.465C25.006,34.138,24.976,40.887,29.12,45.068z"/>
					<path d="M1.523,35.804L0,32.071c8.181-3.205,14.56-7.89,19.438-12.737l2.766,2.791C11.901,32.279,1.523,35.804,1.523,35.804z"
						/>
				</g>
			</g>
			<g>
				<g>
					<g>
						<path d="M160.053,75.562c-4.144-4.181-4.113-10.93,0.068-15.074l-2.696-2.72c-5.684,5.633-5.725,14.806-0.092,20.49
							c5.176,5.223,13.341,5.68,19.041,1.35l4.791,4.834l1.36-1.347l-7.398-7.465C170.946,79.774,164.197,79.744,160.053,75.562z"/>
						<path d="M160.951,85.576c-2.198,2.191-1.825,6.151,0.832,8.846c2.341,2.374,5.675,2.972,7.938,1.581l1.961,1.989l1.423-1.419
							l-1.939-1.967c1.502-2.263,0.959-5.7-1.425-8.119C167.084,83.793,163.149,83.385,160.951,85.576z M168.935,93.672
							c-1.449,1.445-4.044,1.176-5.797-0.601c-1.752-1.777-1.998-4.389-0.549-5.833c1.449-1.445,4.044-1.176,5.797,0.601
							C170.138,89.615,170.384,92.227,168.935,93.672z"/>
						<path d="M185.186,62.209c-2.198,2.191-1.825,6.151,0.832,8.846c2.341,2.374,5.675,2.972,7.938,1.581l1.961,1.989l1.423-1.419
							l-1.939-1.967c1.502-2.263,0.959-5.7-1.425-8.119C191.318,60.426,187.383,60.018,185.186,62.209z M193.169,70.305
							c-1.449,1.445-4.044,1.176-5.797-0.601c-1.752-1.777-1.998-4.389-0.549-5.833c1.449-1.445,4.044-1.176,5.797,0.601
							C194.373,66.248,194.618,68.86,193.169,70.305z"/>
						<path d="M168.247,104.056l3.719,1.556c3.279-8.152,8.021-14.488,12.912-19.322l-2.766-2.791
							C171.866,93.71,168.247,104.056,168.247,104.056z"/>
					</g>
					<g>
						<path d="M175.195,60.556c-4.144-4.181-10.893-4.212-15.074-0.068l-2.696-2.72c5.684-5.633,14.857-5.591,20.49,0.092
							c5.176,5.223,5.56,13.392,1.179,19.053l4.791,4.834l-1.36,1.347l-7.398-7.464C179.309,71.487,179.339,64.738,175.195,60.556z"
							/>
						<path d="M202.792,69.82l1.523,3.733c-8.181,3.205-14.56,7.89-19.438,12.737l-2.766-2.791
							C192.414,73.346,202.792,69.82,202.792,69.82z"/>
					</g>
				</g>
				<g>
					<g>
						<path d="M144.906,75.568c4.144-4.181,4.113-10.93-0.068-15.074l2.696-2.72c5.684,5.633,5.725,14.806,0.092,20.49
							c-5.176,5.223-13.341,5.68-19.041,1.35l-4.791,4.834l-1.36-1.347l7.398-7.465C134.013,79.779,140.762,79.749,144.906,75.568z"
							/>
						<path d="M135.218,86.493c-2.385,2.418-2.928,5.855-1.425,8.119l-1.939,1.967l1.423,1.419l1.961-1.989
							c2.263,1.391,5.596,0.793,7.938-1.581c2.657-2.694,3.029-6.655,0.832-8.846C141.811,83.391,137.875,83.799,135.218,86.493z
							 M136.573,87.844c1.752-1.777,4.347-2.046,5.797-0.601c1.449,1.445,1.204,4.057-0.549,5.833
							c-1.752,1.777-4.347,2.046-5.797,0.601C134.575,92.232,134.821,89.62,136.573,87.844z"/>
						<path d="M110.984,63.126c-2.385,2.418-2.928,5.855-1.425,8.119l-1.939,1.967l1.423,1.419l1.961-1.989
							c2.263,1.391,5.596,0.793,7.938-1.581c2.657-2.694,3.029-6.655,0.832-8.846C117.576,60.024,113.641,60.432,110.984,63.126z
							 M112.339,64.477c1.752-1.777,4.347-2.046,5.797-0.601c1.449,1.445,1.204,4.057-0.549,5.833
							c-1.752,1.777-4.347,2.046-5.797,0.601C110.341,68.865,110.587,66.254,112.339,64.477z"/>
						<path d="M136.713,104.061l-3.719,1.556c-3.279-8.152-8.021-14.488-12.912-19.322l2.766-2.791
							C133.094,93.715,136.713,104.061,136.713,104.061z"/>
					</g>
					<g>
						<path d="M129.764,60.562c4.144-4.181,10.893-4.212,15.074-0.068l2.696-2.72c-5.684-5.633-14.857-5.591-20.49,0.092
							c-5.176,5.223-5.56,13.392-1.179,19.053l-4.791,4.834l1.36,1.347l7.398-7.465C125.651,71.492,125.62,64.743,129.764,60.562z"
							/>
						<path d="M102.167,69.825l-1.523,3.733c8.181,3.205,14.56,7.89,19.438,12.737l2.766-2.791
							C112.545,73.351,102.167,69.825,102.167,69.825z"/>
					</g>
				</g>
				<g>
					<g>
						<path d="M160.053,30.055c-4.144,4.181-4.113,10.93,0.068,15.074l-2.696,2.72c-5.684-5.633-5.725-14.806-0.092-20.49
							c5.176-5.223,13.341-5.68,19.041-1.35l4.791-4.834l1.36,1.347l-7.398,7.465C170.946,25.843,164.197,25.874,160.053,30.055z"/>
						<path d="M169.741,19.13c2.385-2.418,2.928-5.855,1.425-8.119l1.939-1.967l-1.423-1.419l-1.961,1.989
							c-2.263-1.391-5.596-0.793-7.938,1.581c-2.657,2.694-3.029,6.655-0.832,8.846S167.084,21.824,169.741,19.13z M168.386,17.779
							c-1.752,1.777-4.347,2.046-5.797,0.601c-1.449-1.445-1.204-4.057,0.549-5.833c1.752-1.777,4.347-2.046,5.797-0.601
							C170.384,13.39,170.138,16.002,168.386,17.779z"/>
						<path d="M193.975,42.497c2.385-2.418,2.928-5.855,1.425-8.119l1.939-1.967l-1.423-1.419l-1.961,1.989
							c-2.263-1.391-5.596-0.793-7.938,1.581c-2.657,2.694-3.029,6.655-0.832,8.846C187.383,45.599,191.318,45.191,193.975,42.497z
							 M192.62,41.146c-1.752,1.777-4.347,2.046-5.797,0.601c-1.449-1.445-1.204-4.057,0.549-5.833
							c1.752-1.777,4.347-2.046,5.797-0.601C194.618,36.757,194.373,39.369,192.62,41.146z"/>
						<path d="M168.247,1.562l3.719-1.556c3.279,8.152,8.021,14.488,12.912,19.322l-2.766,2.791
							C171.866,11.908,168.247,1.562,168.247,1.562z"/>
					</g>
					<g>
						<path d="M175.195,45.061c-4.144,4.181-10.893,4.212-15.074,0.068l-2.696,2.72c5.684,5.633,14.857,5.591,20.49-0.092
							c5.176-5.223,5.56-13.392,1.179-19.053l4.791-4.834l-1.36-1.347l-7.398,7.465C179.309,34.131,179.339,40.88,175.195,45.061z"
							/>
						<path d="M202.792,35.797l1.523-3.733c-8.181-3.205-14.56-7.89-19.438-12.737l-2.766,2.791
							C192.414,32.272,202.792,35.797,202.792,35.797z"/>
					</g>
				</g>
				<g>
					<g>
						<path d="M144.906,30.05c4.144,4.181,4.113,10.93-0.068,15.074l2.696,2.72c5.684-5.633,5.725-14.806,0.092-20.49
							c-5.176-5.223-13.341-5.68-19.041-1.35l-4.791-4.834l-1.36,1.347l7.398,7.465C134.013,25.838,140.762,25.868,144.906,30.05z"
							/>
						<path d="M144.008,20.036c2.198-2.191,1.825-6.151-0.832-8.846c-2.341-2.374-5.675-2.972-7.938-1.581l-1.961-1.989
							l-1.423,1.419l1.939,1.967c-1.502,2.263-0.959,5.7,1.425,8.119C137.875,21.819,141.811,22.227,144.008,20.036z M136.025,11.94
							c1.449-1.445,4.044-1.176,5.797,0.601c1.752,1.777,1.998,4.389,0.549,5.833c-1.449,1.445-4.044,1.176-5.797-0.601
							C134.821,15.997,134.575,13.385,136.025,11.94z"/>
						<path d="M119.774,43.403c2.198-2.191,1.825-6.151-0.832-8.846c-2.341-2.374-5.675-2.972-7.938-1.581l-1.961-1.989
							l-1.423,1.419l1.939,1.967c-1.502,2.263-0.959,5.7,1.425,8.119C113.641,45.186,117.576,45.594,119.774,43.403z M111.79,35.307
							c1.449-1.445,4.044-1.176,5.797,0.601c1.752,1.777,1.998,4.389,0.549,5.833c-1.449,1.445-4.044,1.176-5.797-0.601
							C110.587,39.364,110.341,36.752,111.79,35.307z"/>
						<path d="M136.713,1.556L132.994,0c-3.279,8.152-8.021,14.488-12.912,19.322l2.766,2.791
							C133.094,11.903,136.713,1.556,136.713,1.556z"/>
					</g>
					<g>
						<path d="M129.764,45.056c4.144,4.181,10.893,4.212,15.074,0.068l2.696,2.72c-5.684,5.633-14.857,5.591-20.49-0.092
							c-5.176-5.223-5.56-13.392-1.179-19.053l-4.791-4.834l1.36-1.347l7.398,7.465C125.651,34.125,125.62,40.874,129.764,45.056z"
							/>
						<path d="M102.167,35.792l-1.523-3.733c8.181-3.205,14.56-7.89,19.438-12.737l2.766,2.791
							C112.545,32.266,102.167,35.792,102.167,35.792z"/>
					</g>
				</g>
			</g>
		</g>
	</g>
</g>
</svg>