<!-- Generator: Adobe Illustrator 24.1.2, SVG Export Plug-In  -->
<svg version="1.1" xmlns="http://www.w3.org/2000/svg" xmlns:xlink="http://www.w3.org/1999/xlink" x="0px" y="0px"
	 width="515.026px" height="146.861px" viewBox="0 0 515.026 146.861"
	 style="overflow:visible;enable-background:new 0 0 515.026 146.861;" xml:space="preserve">
<style type="text/css">
	.st0{fill:#1D1D1B;}
	.st1{font-family:'FuturaBT-Book';}
	.st2{font-size:26.08px;}
	.st3{font-family:'FuturaBT-BookItalic';}
	.st4{font-size:11.2054px;}
	.st5{letter-spacing:-2;}
</style>
<defs>
</defs>
<g>
	<path class="st0" d="M100.384,58.159l8.48,19.382h-2.406l-2.42-5.718h-7.284l-2.419,5.718h-2.407L100.384,58.159z M100.384,63.062
		l-2.968,6.863h5.935L100.384,63.062z"/>
	<path class="st0" d="M110.787,77.541V58.897h3.884c1.367,0,2.375,0.07,3.024,0.211c0.649,0.14,1.208,0.38,1.675,0.719
		c0.594,0.441,1.055,1.009,1.382,1.7c0.327,0.692,0.49,1.45,0.49,2.273c0,0.984-0.235,1.809-0.707,2.471s-1.157,1.125-2.057,1.388
		c1.104,0.17,1.976,0.664,2.617,1.483c0.641,0.819,0.962,1.853,0.962,3.101c0,0.747-0.137,1.461-0.408,2.14
		c-0.271,0.68-0.649,1.261-1.133,1.745c-0.527,0.518-1.176,0.883-1.949,1.095c-0.771,0.212-2.071,0.318-3.896,0.318H110.787z
		 M112.952,60.82v6.24h1.719c1.579,0,2.691-0.229,3.336-0.688c0.646-0.459,0.969-1.23,0.969-2.317c0-1.197-0.299-2.036-0.898-2.516
		c-0.598-0.479-1.733-0.72-3.406-0.72H112.952z M112.952,68.805v6.8h1.719c1.18,0,2.031-0.047,2.554-0.141
		c0.522-0.093,0.94-0.254,1.254-0.483c0.382-0.271,0.684-0.649,0.904-1.134c0.221-0.483,0.331-1.019,0.331-1.604
		c0-0.679-0.132-1.269-0.395-1.77c-0.264-0.501-0.646-0.892-1.146-1.172c-0.297-0.178-0.641-0.306-1.031-0.382
		s-0.998-0.114-1.82-0.114h-0.65H112.952z"/>
	<path class="st0" d="M140.573,63.354c-0.892-0.968-1.843-1.683-2.854-2.146c-1.01-0.463-2.126-0.693-3.349-0.693
		c-0.985,0-1.946,0.199-2.884,0.598c-0.938,0.399-1.752,0.955-2.439,1.669c-0.713,0.738-1.248,1.564-1.604,2.477
		c-0.357,0.913-0.535,1.921-0.535,3.024c0,0.866,0.105,1.664,0.318,2.394c0.212,0.73,0.53,1.401,0.955,2.013
		c0.746,1.062,1.666,1.878,2.757,2.451S133.208,76,134.474,76c1.188,0,2.291-0.246,3.311-0.738c1.019-0.492,1.948-1.227,2.789-2.203
		V76c-0.926,0.671-1.922,1.178-2.986,1.521c-1.066,0.345-2.168,0.517-3.305,0.517c-0.985,0-1.944-0.146-2.878-0.439
		c-0.935-0.293-1.809-0.72-2.624-1.28c-1.357-0.942-2.396-2.101-3.113-3.477c-0.717-1.375-1.076-2.886-1.076-4.533
		c0-1.435,0.24-2.74,0.72-3.916s1.212-2.243,2.196-3.202c0.951-0.917,2.004-1.603,3.158-2.057s2.416-0.682,3.783-0.682
		c1.077,0,2.121,0.164,3.132,0.49c1.011,0.327,2.008,0.834,2.993,1.521V63.354z"/>
	<path class="st0" d="M144.354,77.541V58.897h3.579c2.648,0,4.515,0.134,5.597,0.401s2.031,0.716,2.846,1.344
		c1.07,0.823,1.881,1.876,2.433,3.158s0.827,2.759,0.827,4.432c0,1.664-0.273,3.135-0.82,4.412
		c-0.549,1.278-1.361,2.328-2.439,3.152c-0.814,0.628-1.742,1.075-2.782,1.343s-2.659,0.401-4.858,0.401h-0.802H144.354z
		 M146.597,75.452h1.413c2.292,0,3.88-0.1,4.763-0.299s1.617-0.541,2.203-1.025c0.764-0.637,1.346-1.458,1.744-2.464
		c0.399-1.006,0.6-2.158,0.6-3.457c0-1.308-0.198-2.456-0.593-3.445c-0.396-0.988-0.979-1.806-1.751-2.451
		c-0.586-0.492-1.331-0.843-2.234-1.051c-0.904-0.208-2.482-0.312-4.731-0.312h-1.413V75.452z"/>
	<path class="st0" d="M163.266,77.541V58.897h9.831v2.025h-7.615v5.349h7.615v2.063h-7.615v7.145h7.615v2.063H163.266z"/>
	<path class="st0" d="M176.852,77.541V58.897h9.832v2.025h-7.615v5.349h7.615v2.063h-7.615v9.207H176.852z"/>
	<path class="st0" d="M200.322,67.914h7.692v0.624c0,2.938-0.832,5.255-2.496,6.953c-1.664,1.697-3.936,2.547-6.813,2.547
		c-0.874,0-1.708-0.094-2.502-0.28c-0.794-0.188-1.526-0.459-2.196-0.815c-1.529-0.841-2.709-2.001-3.541-3.482
		s-1.248-3.165-1.248-5.05c0-1.554,0.248-2.956,0.745-4.208c0.497-1.253,1.246-2.354,2.248-3.305
		c0.841-0.798,1.816-1.401,2.929-1.809c1.111-0.407,2.344-0.611,3.693-0.611c1.791,0,3.344,0.325,4.66,0.975
		s2.407,1.628,3.273,2.935l-1.859,1.49c-0.671-1.129-1.508-1.976-2.509-2.54c-1.002-0.564-2.165-0.848-3.489-0.848
		c-2.165,0-3.922,0.73-5.272,2.19c-1.35,1.461-2.024,3.371-2.024,5.73c0,2.225,0.686,4.05,2.057,5.477
		c1.371,1.426,3.117,2.139,5.24,2.139c1.867,0,3.424-0.566,4.667-1.7c1.243-1.133,1.934-2.608,2.069-4.425h-5.323V67.914z"/>
	<path class="st0" d="M211.3,77.541V58.897h2.216v7.17h9.907v-7.17h2.254v18.644h-2.254v-9.359h-9.907v9.359H211.3z"/>
	<path class="st0" d="M230.159,77.541V58.897h2.216v18.644H230.159z"/>
	<path class="st0" d="M240.435,58.897h2.241V73.44c0,1.563-0.346,2.719-1.037,3.471c-0.692,0.751-1.756,1.127-3.19,1.127
		c-0.765,0-1.454-0.151-2.069-0.452c-0.615-0.302-1.195-0.767-1.738-1.395l1.465-1.465c0.458,0.476,0.883,0.815,1.273,1.019
		c0.391,0.204,0.797,0.306,1.223,0.306c0.67,0,1.144-0.25,1.42-0.751c0.275-0.501,0.413-1.485,0.413-2.954V58.897z"/>
	<path class="st0" d="M246.981,77.541V58.897h2.19v8.29l7.831-8.29h2.649l-7.997,8.393l8.787,10.251h-2.865l-8.405-10.035v10.035
		H246.981z"/>
	<path class="st0" d="M262.39,77.541V58.897h2.217v16.529h7.041v2.114H262.39z"/>
	<path class="st0" d="M282.969,78.266l-5.794-13.396l-2.344,12.671h-2.164l3.781-19.382l6.521,15.422l6.521-15.422l3.781,19.382
		h-2.164l-2.369-12.671L282.969,78.266z"/>
	<path class="st0" d="M296.136,77.541V58.159l13.639,14.899V58.897h2.114v19.369L298.25,63.533v14.008H296.136z"/>
	<path class="st0" d="M335.422,68.257c0,1.333-0.247,2.589-0.739,3.77c-0.492,1.18-1.211,2.229-2.153,3.146
		c-0.942,0.916-2.028,1.623-3.256,2.12c-1.228,0.496-2.499,0.745-3.816,0.745s-2.585-0.249-3.804-0.745
		c-1.219-0.497-2.3-1.204-3.242-2.12c-0.952-0.926-1.676-1.979-2.174-3.158c-0.496-1.181-0.744-2.433-0.744-3.757
		c0-1.333,0.248-2.592,0.744-3.776c0.498-1.184,1.222-2.238,2.174-3.164c0.934-0.908,2.013-1.608,3.236-2.102
		c1.223-0.492,2.492-0.738,3.81-0.738c1.325,0,2.602,0.246,3.829,0.738c1.228,0.493,2.309,1.193,3.243,2.102
		c0.942,0.917,1.661,1.968,2.153,3.151C335.175,65.653,335.422,66.916,335.422,68.257z M325.457,75.949
		c1.02,0,1.99-0.193,2.912-0.579c0.922-0.387,1.753-0.949,2.492-1.688c0.73-0.73,1.286-1.558,1.669-2.483
		c0.383-0.925,0.574-1.905,0.574-2.941c0-1.044-0.193-2.038-0.58-2.98c-0.387-0.941-0.941-1.773-1.663-2.495
		c-0.731-0.73-1.558-1.286-2.479-1.669c-0.922-0.382-1.896-0.572-2.925-0.572c-1.036,0-2.019,0.19-2.944,0.572
		c-0.926,0.383-1.746,0.938-2.459,1.669c-0.73,0.738-1.287,1.574-1.67,2.509c-0.383,0.934-0.574,1.923-0.574,2.967
		c0,1.036,0.189,2.012,0.568,2.929c0.377,0.917,0.936,1.749,1.676,2.496c0.747,0.747,1.578,1.312,2.491,1.693
		S324.429,75.949,325.457,75.949z"/>
	<path class="st0" d="M341.203,69.174v8.366h-2.165V58.897h3.91c1.366,0,2.372,0.072,3.018,0.217
		c0.645,0.145,1.205,0.382,1.681,0.713c0.595,0.425,1.06,1.007,1.395,1.745s0.503,1.558,0.503,2.458
		c0,0.899-0.168,1.719-0.503,2.457c-0.335,0.739-0.8,1.32-1.395,1.745c-0.476,0.34-1.034,0.581-1.675,0.726
		s-1.648,0.217-3.023,0.217h-0.625H341.203z M341.203,67.162h1.12c1.902,0,3.182-0.223,3.84-0.668
		c0.658-0.446,0.986-1.225,0.986-2.337c0-1.188-0.337-2.024-1.012-2.509c-0.676-0.483-1.946-0.726-3.814-0.726h-1.12V67.162z"/>
	<path class="st0" d="M371.574,79.336h-2.736l-2.482-2.662c-0.738,0.434-1.546,0.756-2.425,0.968
		c-0.877,0.213-1.834,0.318-2.869,0.318c-1.052,0-2.055-0.154-3.01-0.465c-0.954-0.31-1.834-0.766-2.641-1.368
		c-1.307-0.96-2.297-2.112-2.971-3.458c-0.675-1.346-1.012-2.824-1.012-4.438c0-1.299,0.25-2.543,0.75-3.731
		c0.501-1.188,1.223-2.25,2.164-3.184c0.95-0.917,2.027-1.619,3.232-2.107s2.473-0.732,3.805-0.732c1.324,0,2.566,0.217,3.729,0.649
		c1.162,0.434,2.214,1.078,3.156,1.936c1.001,0.909,1.767,1.98,2.297,3.216s0.796,2.562,0.796,3.979
		c0,1.494-0.285,2.858-0.854,4.094s-1.396,2.286-2.482,3.152L371.574,79.336z M363.722,70.893l2.761,2.967
		c0.798-0.628,1.41-1.422,1.839-2.381c0.428-0.959,0.643-2.008,0.643-3.146c0-0.764-0.09-1.492-0.268-2.184
		c-0.178-0.692-0.437-1.318-0.775-1.879c-0.705-1.163-1.625-2.063-2.762-2.699s-2.396-0.955-3.779-0.955
		c-1.025,0-2.004,0.19-2.932,0.573c-0.93,0.382-1.75,0.93-2.463,1.643s-1.26,1.534-1.641,2.464c-0.383,0.93-0.573,1.908-0.573,2.936
		c0,1.315,0.265,2.5,0.796,3.553c0.529,1.053,1.324,1.961,2.385,2.725c0.603,0.442,1.264,0.775,1.985,1
		c0.722,0.226,1.476,0.338,2.265,0.338c0.695,0,1.34-0.068,1.934-0.204s1.146-0.348,1.654-0.637l-3.804-4.113H363.722z"/>
	<path class="st0" d="M374.974,77.541V58.897h4.381c1.247,0,2.163,0.07,2.744,0.211c0.581,0.14,1.093,0.38,1.534,0.719
		c0.552,0.434,0.98,1.013,1.287,1.738c0.305,0.727,0.457,1.53,0.457,2.413c0,1.528-0.426,2.689-1.279,3.483s-2.104,1.19-3.75,1.19
		h-0.395l7.118,8.889h-2.814l-6.8-8.889h-0.318v8.889H374.974z M377.14,60.769v6.24h1.693c1.732,0,2.891-0.223,3.477-0.669
		c0.586-0.445,0.879-1.225,0.879-2.337c0-1.196-0.302-2.035-0.904-2.515c-0.604-0.479-1.753-0.72-3.451-0.72H377.14z"/>
	<path class="st0" d="M395.719,67.187c1.214,0.519,2.128,1.206,2.744,2.063c0.615,0.857,0.923,1.872,0.923,3.044
		c0,1.715-0.545,3.096-1.637,4.145c-1.09,1.049-2.535,1.572-4.336,1.572c-1.469,0-2.699-0.375-3.692-1.127
		c-0.993-0.751-1.664-1.818-2.013-3.202l2.013-0.993c0.271,1.129,0.72,1.984,1.343,2.565c0.625,0.582,1.408,0.873,2.35,0.873
		c1.113,0,2.013-0.32,2.7-0.962c0.688-0.641,1.032-1.475,1.032-2.502c0-0.832-0.24-1.556-0.721-2.172
		c-0.479-0.615-1.203-1.135-2.17-1.56l-2.268-0.968c-1.239-0.518-2.162-1.185-2.77-1.999c-0.607-0.815-0.91-1.792-0.91-2.93
		c0-1.324,0.492-2.419,1.477-3.285s2.242-1.299,3.77-1.299c1.121,0,2.09,0.238,2.91,0.713c0.818,0.476,1.458,1.176,1.916,2.102
		l-1.834,1.172c-0.416-0.722-0.883-1.259-1.4-1.611s-1.104-0.528-1.758-0.528c-0.832,0-1.513,0.255-2.043,0.764
		c-0.531,0.51-0.797,1.159-0.797,1.948c0,0.662,0.205,1.235,0.611,1.72c0.408,0.483,1.041,0.912,1.898,1.286L395.719,67.187z"/>
	<path class="st0" d="M405.6,77.541V61.011h-5.271v-2.114h12.76v2.114h-5.246v16.529H405.6z"/>
	<path class="st0" d="M415.483,58.897h2.24v11.602c0,1.885,0.401,3.269,1.203,4.151c0.803,0.883,2.062,1.324,3.776,1.324
		s2.974-0.441,3.776-1.324c0.802-0.883,1.203-2.267,1.203-4.151V58.897h2.254v11.602c0,2.521-0.602,4.408-1.803,5.66
		c-1.201,1.253-3.012,1.879-5.431,1.879c-2.411,0-4.218-0.626-5.419-1.879c-1.201-1.252-1.801-3.139-1.801-5.66V58.897z"/>
	<path class="st0" d="M439.665,78.266l-7.883-19.369h2.407l5.476,14.263l5.451-14.263h2.394L439.665,78.266z"/>
	<path class="st0" d="M447.442,58.897h2.395l4.725,13.716l4.928-14.454l4.979,14.454l4.75-13.716h2.395l-7.221,19.369l-4.877-14.415
		l-4.852,14.415L447.442,58.897z"/>
	<path class="st0" d="M471.281,77.541l5.73-9.907l-5.349-8.736h2.662l3.998,7.094l3.859-7.094h2.521l-5.284,8.94l5.947,9.703h-2.611
		l-4.598-8.035l-4.354,8.035H471.281z"/>
	<path class="st0" d="M491.697,77.541v-8.532l-6.316-10.111h2.56l4.877,8.087l4.852-8.087h2.547l-6.303,10.111v8.532H491.697z"/>
	<path class="st0" d="M500.14,77.541l10.48-16.618h-8.506v-2.025h12.262l-10.377,16.529h9.957v2.114H500.14z"/>
</g>
<g>
	<path class="st0" d="M14.487,22.363V3.72h9.831v2.025h-7.615v5.349h7.615v2.063h-7.615v9.207H14.487z"/>
	<path class="st0" d="M27.63,3.72h2.24v11.602c0,1.885,0.401,3.269,1.203,4.151c0.803,0.883,2.062,1.324,3.776,1.324
		s2.974-0.441,3.776-1.324c0.802-0.883,1.203-2.267,1.203-4.151V3.72h2.254v11.602c0,2.521-0.602,4.408-1.803,5.66
		c-1.201,1.253-3.012,1.879-5.431,1.879c-2.411,0-4.218-0.626-5.419-1.879c-1.201-1.252-1.801-3.139-1.801-5.66V3.72z"/>
	<path class="st0" d="M49.749,22.363V5.834h-5.272V3.72h12.761v2.114H51.99v16.529H49.749z"/>
	<path class="st0" d="M59.631,3.72h2.241v11.602c0,1.885,0.4,3.269,1.203,4.151s2.061,1.324,3.775,1.324s2.975-0.441,3.776-1.324
		s1.203-2.267,1.203-4.151V3.72h2.254v11.602c0,2.521-0.601,4.408-1.802,5.66c-1.201,1.253-3.012,1.879-5.432,1.879
		c-2.41,0-4.217-0.626-5.418-1.879c-1.201-1.252-1.802-3.139-1.802-5.66V3.72z"/>
	<path class="st0" d="M78.49,22.363V3.72h4.381c1.247,0,2.163,0.07,2.744,0.211c0.581,0.14,1.093,0.38,1.534,0.719
		c0.552,0.434,0.98,1.013,1.287,1.738c0.305,0.727,0.457,1.53,0.457,2.413c0,1.528-0.426,2.689-1.279,3.483s-2.104,1.19-3.75,1.19
		H83.47l7.118,8.889h-2.814l-6.8-8.889h-0.318v8.889H78.49z M80.655,5.592v6.24h1.693c1.732,0,2.891-0.223,3.477-0.669
		c0.586-0.445,0.879-1.225,0.879-2.337c0-1.196-0.302-2.035-0.904-2.515c-0.604-0.479-1.753-0.72-3.451-0.72H80.655z"/>
	<path class="st0" d="M98.343,2.981l8.481,19.382h-2.407l-2.419-5.718h-7.284l-2.42,5.718h-2.406L98.343,2.981z M98.343,7.885
		l-2.967,6.863h5.935L98.343,7.885z"/>
</g>
<g>
	<path class="st0" d="M16.877,43.338l1.051-8.01h1.291c0.715,0,1.218,0.037,1.51,0.109c0.292,0.073,0.548,0.197,0.767,0.372
		c0.233,0.186,0.411,0.417,0.533,0.692s0.184,0.583,0.184,0.922c0,0.405-0.073,0.767-0.219,1.086
		c-0.146,0.319-0.361,0.588-0.646,0.807c-0.229,0.179-0.504,0.307-0.823,0.386s-0.825,0.118-1.519,0.118h-0.372h-0.344l-0.46,3.518
		H16.877z M18.398,38.977h0.65c0.409,0,0.713-0.014,0.911-0.043c0.199-0.029,0.369-0.077,0.512-0.143
		c0.244-0.113,0.433-0.286,0.563-0.52c0.132-0.233,0.197-0.505,0.197-0.815c0-0.237-0.045-0.445-0.135-0.624
		c-0.089-0.179-0.223-0.323-0.401-0.432c-0.121-0.077-0.265-0.131-0.433-0.165c-0.168-0.033-0.431-0.049-0.788-0.049h-0.29h-0.404
		L18.398,38.977z"/>
	<path class="st0" d="M21.84,43.338l4.717-8.328l2.565,8.328h-1.066l-0.536-2.019h-3.496l-1.089,2.019H21.84z M24.45,40.493h2.855
		l-0.963-3.195L24.45,40.493z"/>
	<path class="st0" d="M30.779,35.328h0.974l-0.64,4.875c-0.022,0.175-0.038,0.321-0.05,0.438c-0.011,0.117-0.016,0.209-0.016,0.279
		c0,0.573,0.15,1.011,0.451,1.313s0.737,0.454,1.311,0.454c0.404,0,0.761-0.069,1.069-0.208s0.564-0.345,0.769-0.618
		c0.267-0.365,0.465-1.042,0.597-2.03c0.011-0.091,0.02-0.16,0.027-0.208l0.574-4.295h0.963l-0.596,4.503v0.006
		c-0.165,1.258-0.437,2.126-0.815,2.604c-0.292,0.365-0.666,0.645-1.122,0.84c-0.456,0.195-0.968,0.293-1.537,0.293
		c-0.813,0-1.461-0.205-1.942-0.616c-0.481-0.41-0.723-0.964-0.723-1.661c0-0.266,0.018-0.585,0.053-0.958
		c0.034-0.372,0.088-0.822,0.161-1.351L30.779,35.328z"/>
	<path class="st0" d="M37.569,43.338l1.051-8.01h0.963l-0.941,7.124h2.884l-0.115,0.886H37.569z"/>
	<path class="st0" d="M45.662,43.338l1.051-8.01h1.291c0.7,0,1.195,0.037,1.485,0.109c0.29,0.073,0.546,0.197,0.769,0.372
		c0.241,0.19,0.424,0.422,0.55,0.698s0.189,0.581,0.189,0.917c0,0.667-0.222,1.2-0.665,1.598s-1.042,0.6-1.798,0.607l2.463,3.709
		h-1.155l-2.353-3.699h-0.404l-0.481,3.699H45.662z M47.183,38.9h0.65c0.405,0,0.706-0.014,0.903-0.043
		c0.196-0.029,0.37-0.079,0.52-0.148c0.24-0.105,0.428-0.271,0.561-0.498c0.134-0.227,0.2-0.489,0.2-0.788
		c0-0.452-0.142-0.771-0.424-0.958c-0.283-0.186-0.824-0.279-1.623-0.279h-0.427L47.183,38.9z"/>
	<path class="st0" d="M56.194,42.452l-0.126,0.886H51.79l1.051-8.01h4.125l-0.109,0.87h-3.185l-0.312,2.391h3.179l-0.109,0.859
		h-3.185l-0.404,3.004H56.194z"/>
	<path class="st0" d="M57.552,43.327l1.072-8.317l4.776,6.265l0.793-5.958h0.952l-1.094,8.333l-4.755-6.205l-0.793,5.882H57.552z"/>
	<path class="st0" d="M65.977,43.327l1.072-8.317l4.776,6.265l0.793-5.958h0.952l-1.094,8.333l-4.755-6.205l-0.793,5.882H65.977z"/>
	<path class="st0" d="M78.818,42.452l-0.126,0.886h-4.278l1.051-8.01h4.125l-0.109,0.87h-3.185l-0.312,2.391h3.179l-0.109,0.859
		h-3.185l-0.404,3.004H78.818z"/>
</g>
<g>
	<path class="st0" d="M102.995,96.767v11.652h-1.936v-2.114c-0.468,0.85-1.064,1.497-1.789,1.942
		c-0.727,0.445-1.539,0.669-2.439,0.669c-1.672,0-3.02-0.575-4.043-1.726s-1.535-2.673-1.535-4.565c0-1.919,0.497-3.445,1.49-4.578
		c0.994-1.134,2.322-1.7,3.986-1.7c0.977,0,1.822,0.219,2.541,0.656c0.717,0.437,1.296,1.089,1.737,1.954v-2.19H102.995z
		 M101.059,102.702c0-1.315-0.359-2.375-1.076-3.177c-0.718-0.803-1.654-1.204-2.809-1.204c-1.197,0-2.131,0.369-2.801,1.108
		c-0.672,0.738-1.007,1.77-1.007,3.094c0,1.41,0.338,2.496,1.013,3.261c0.675,0.764,1.632,1.146,2.871,1.146
		c1.189,0,2.121-0.371,2.795-1.114C100.722,105.073,101.059,104.035,101.059,102.702z"/>
	<path class="st0" d="M106.98,88.681h1.974v10.276c0.45-0.865,1.031-1.518,1.744-1.954c0.714-0.438,1.55-0.656,2.51-0.656
		c1.672,0,3.007,0.569,4.004,1.706c0.998,1.138,1.496,2.662,1.496,4.572c0,1.893-0.509,3.415-1.527,4.565
		c-1.02,1.15-2.369,1.726-4.05,1.726c-0.899,0-1.719-0.228-2.458-0.682c-0.738-0.454-1.336-1.098-1.795-1.93v2.114h-1.897V88.681z
		 M108.878,102.651c0,1.358,0.348,2.419,1.044,3.184c0.696,0.764,1.651,1.146,2.865,1.146c1.188,0,2.12-0.405,2.796-1.216
		c0.674-0.811,1.012-1.934,1.012-3.368c0-1.273-0.331-2.271-0.993-2.992s-1.579-1.083-2.751-1.083c-1.188,0-2.147,0.397-2.877,1.191
		C109.243,100.305,108.878,101.352,108.878,102.651z"/>
	<path class="st0" d="M130.832,105.656v2.318c-0.526,0.313-1.118,0.549-1.776,0.706s-1.369,0.236-2.133,0.236
		c-1.801,0-3.25-0.571-4.35-1.713s-1.648-2.643-1.648-4.502c0-1.867,0.568-3.394,1.706-4.578s2.594-1.776,4.368-1.776
		c0.645,0,1.275,0.068,1.891,0.204s1.195,0.335,1.738,0.599v2.139c-0.51-0.331-1.035-0.583-1.578-0.758
		c-0.544-0.174-1.096-0.261-1.656-0.261c-1.307,0-2.355,0.41-3.145,1.229c-0.79,0.82-1.186,1.908-1.186,3.267
		c0,1.197,0.397,2.199,1.191,3.006c0.793,0.807,1.789,1.209,2.986,1.209c0.603,0,1.192-0.105,1.77-0.318
		C129.589,106.45,130.195,106.115,130.832,105.656z"/>
	<path class="st0" d="M144.327,88.681v19.738h-1.936v-2.114c-0.459,0.841-1.053,1.486-1.783,1.936
		c-0.73,0.45-1.545,0.676-2.445,0.676c-1.672,0-3.02-0.575-4.043-1.726s-1.534-2.673-1.534-4.565c0-1.91,0.501-3.435,1.503-4.572
		c1.002-1.137,2.334-1.706,3.998-1.706c0.969,0,1.809,0.219,2.521,0.656c0.713,0.437,1.291,1.089,1.732,1.954V88.681H144.327z
		 M142.391,102.651c0-1.299-0.361-2.346-1.082-3.139c-0.723-0.794-1.673-1.191-2.854-1.191c-1.18,0-2.101,0.361-2.763,1.083
		s-0.993,1.719-0.993,2.992c0,1.435,0.335,2.558,1.006,3.368c0.67,0.811,1.596,1.216,2.775,1.216c1.223,0,2.18-0.382,2.872-1.146
		C142.046,105.07,142.391,104.009,142.391,102.651z"/>
	<path class="st0" d="M158.794,102.893h-9.232v0.178c0,1.248,0.355,2.257,1.069,3.024c0.713,0.769,1.643,1.152,2.788,1.152
		c0.781,0,1.486-0.21,2.115-0.63c0.627-0.42,1.184-1.055,1.668-1.904l1.516,1.02c-0.586,1.053-1.334,1.846-2.242,2.381
		s-1.961,0.803-3.158,0.803c-1.773,0-3.209-0.586-4.304-1.758s-1.644-2.708-1.644-4.609c0-1.825,0.544-3.319,1.631-4.483
		c1.086-1.162,2.482-1.744,4.189-1.744c1.723,0,3.088,0.552,4.094,1.655s1.51,2.61,1.51,4.521V102.893z M156.654,101.276
		c-0.068-1.027-0.409-1.819-1.025-2.375c-0.616-0.557-1.458-0.835-2.528-0.835c-0.967,0-1.773,0.291-2.419,0.873
		c-0.646,0.581-1.019,1.36-1.12,2.337H156.654z"/>
	<path class="st0" d="M162.321,108.419V98.411h-2.242v-1.644h2.242v-3.374c0-1.936,0.244-3.245,0.732-3.929
		c0.487-0.684,1.363-1.025,2.629-1.025c0.314,0,0.613,0.021,0.898,0.063c0.283,0.043,0.558,0.111,0.82,0.204v2.063
		c-0.254-0.145-0.512-0.251-0.77-0.318c-0.26-0.068-0.525-0.103-0.797-0.103c-0.586,0-0.988,0.188-1.209,0.561
		c-0.221,0.374-0.332,1.291-0.332,2.751v3.106h3.107v1.644h-3.056v10.009H162.321z"/>
	<path class="st0" d="M179.9,96.767v11.448c0,1.266-0.085,2.165-0.255,2.7s-0.449,1.015-0.84,1.438
		c-0.544,0.586-1.208,1.023-1.993,1.312c-0.786,0.289-1.688,0.434-2.706,0.434c-1.766,0-3.144-0.403-4.133-1.21
		c-0.988-0.807-1.504-1.948-1.547-3.426h2.241v0.153c0,0.874,0.302,1.549,0.904,2.024s1.456,0.713,2.56,0.713
		c0.798,0,1.479-0.129,2.044-0.388c0.564-0.26,0.995-0.644,1.292-1.152c0.179-0.289,0.307-0.624,0.383-1.007
		c0.076-0.382,0.114-0.93,0.114-1.643v-0.917v-1.044c-0.45,0.832-1.04,1.471-1.771,1.917c-0.73,0.445-1.549,0.668-2.457,0.668
		c-1.673,0-3.021-0.568-4.043-1.706c-1.023-1.138-1.535-2.649-1.535-4.533c0-1.902,0.496-3.411,1.49-4.527
		c0.993-1.116,2.322-1.675,3.986-1.675c0.967,0,1.816,0.219,2.547,0.656c0.729,0.437,1.307,1.08,1.73,1.929v-2.165H179.9z
		 M177.965,102.625c0-1.308-0.356-2.36-1.069-3.158s-1.652-1.197-2.814-1.197c-1.197,0-2.131,0.369-2.802,1.108
		c-0.671,0.738-1.007,1.77-1.007,3.094c0,1.409,0.338,2.496,1.014,3.261c0.674,0.764,1.631,1.146,2.871,1.146
		c1.188,0,2.12-0.376,2.795-1.127C177.628,105,177.965,103.958,177.965,102.625z"/>
	<path class="st0" d="M183.937,108.419V88.681h1.948v9.882c0.501-0.747,1.104-1.303,1.809-1.668c0.704-0.365,1.52-0.548,2.445-0.548
		c1.375,0,2.449,0.365,3.221,1.096c0.773,0.729,1.159,1.744,1.159,3.043v7.934h-2.038v-6.864c0-1.18-0.248-2.057-0.744-2.629
		c-0.496-0.573-1.264-0.86-2.299-0.86c-0.594,0-1.135,0.108-1.623,0.325s-0.895,0.524-1.217,0.923
		c-0.246,0.306-0.422,0.654-0.528,1.045s-0.159,1.069-0.159,2.037v6.023H183.937z"/>
	<path class="st0" d="M198.098,91.152c0-0.399,0.142-0.741,0.427-1.025c0.284-0.284,0.631-0.427,1.038-0.427
		c0.399,0,0.74,0.145,1.024,0.434c0.285,0.288,0.428,0.637,0.428,1.044c0,0.399-0.141,0.738-0.421,1.019s-0.624,0.42-1.031,0.42
		s-0.754-0.14-1.038-0.42C198.239,91.916,198.098,91.568,198.098,91.152z M198.569,108.419V96.767h2.012v11.652H198.569z"/>
	<path class="st0" d="M204.413,91.152c0-0.399,0.143-0.741,0.428-1.025c0.283-0.284,0.63-0.427,1.037-0.427
		c0.399,0,0.74,0.145,1.025,0.434c0.284,0.288,0.427,0.637,0.427,1.044c0,0.399-0.14,0.738-0.421,1.019
		c-0.279,0.28-0.623,0.42-1.031,0.42c-0.407,0-0.754-0.14-1.037-0.42C204.556,91.916,204.413,91.568,204.413,91.152z
		 M204.885,114.099V96.767h2.013v17.332H204.885z"/>
	<path class="st0" d="M211.125,108.419V88.681h1.999v13.371l5.616-5.285h2.661l-5.819,5.336l6.342,6.316h-2.789l-6.011-6.15v6.15
		H211.125z"/>
	<path class="st0" d="M224.507,108.419V88.681h2.037v19.738H224.507z"/>
	<path class="st0" d="M246.944,108.419v-6.864c0-1.18-0.237-2.057-0.713-2.629c-0.476-0.573-1.205-0.86-2.19-0.86
		c-0.534,0-1.029,0.108-1.483,0.325s-0.838,0.524-1.152,0.923c-0.229,0.306-0.395,0.662-0.496,1.07
		c-0.103,0.407-0.153,1.078-0.153,2.012v6.023h-1.923v-6.864c0-1.18-0.238-2.057-0.713-2.629c-0.477-0.573-1.206-0.86-2.19-0.86
		c-0.535,0-1.034,0.108-1.497,0.325s-0.851,0.524-1.164,0.923c-0.222,0.298-0.381,0.642-0.479,1.032s-0.146,1.073-0.146,2.05v6.023
		h-1.922V96.767h1.947v1.796c0.484-0.747,1.062-1.303,1.732-1.668c0.67-0.365,1.443-0.548,2.317-0.548
		c0.942,0,1.745,0.202,2.407,0.604c0.662,0.403,1.162,0.992,1.502,1.765c0.502-0.799,1.094-1.393,1.777-1.783
		s1.475-0.586,2.375-0.586c1.299,0,2.313,0.365,3.043,1.096c0.73,0.729,1.096,1.744,1.096,3.043v7.934H246.944z"/>
	<path class="st0" d="M252.841,108.419V96.767h1.948v1.796c0.501-0.747,1.104-1.303,1.808-1.668c0.705-0.365,1.52-0.548,2.445-0.548
		c1.375,0,2.449,0.365,3.223,1.096c0.771,0.729,1.158,1.744,1.158,3.043v7.934h-2.037v-6.864c0-1.18-0.248-2.057-0.745-2.629
		c-0.497-0.573-1.263-0.86-2.299-0.86c-0.595,0-1.136,0.108-1.624,0.325s-0.893,0.524-1.215,0.923
		c-0.247,0.306-0.424,0.654-0.529,1.045s-0.159,1.069-0.159,2.037v6.023H252.841z"/>
	<path class="st0" d="M266.429,102.625c0-0.857,0.156-1.666,0.471-2.426s0.772-1.438,1.375-2.031
		c0.604-0.595,1.287-1.047,2.051-1.356s1.578-0.465,2.445-0.465c0.848,0,1.652,0.157,2.412,0.472c0.76,0.313,1.45,0.772,2.07,1.375
		c0.602,0.586,1.061,1.259,1.375,2.019s0.471,1.564,0.471,2.413s-0.156,1.648-0.471,2.4c-0.314,0.751-0.773,1.42-1.375,2.006
		c-0.62,0.611-1.314,1.078-2.082,1.4c-0.77,0.322-1.569,0.484-2.4,0.484c-0.858,0-1.671-0.159-2.439-0.478
		c-0.768-0.318-1.453-0.775-2.057-1.369c-0.603-0.611-1.061-1.291-1.375-2.038S266.429,103.483,266.429,102.625z M268.542,102.625
		c0,1.23,0.412,2.272,1.235,3.126s1.821,1.28,2.993,1.28c1.162,0,2.151-0.427,2.967-1.28c0.814-0.854,1.223-1.896,1.223-3.126
		c0-1.231-0.408-2.273-1.223-3.127c-0.815-0.853-1.805-1.279-2.967-1.279c-1.181,0-2.18,0.427-3,1.279
		C268.952,100.352,268.542,101.394,268.542,102.625z"/>
	<path class="st0" d="M282.206,114.099V96.767h1.897v2.19c0.45-0.84,1.044-1.485,1.782-1.936c0.739-0.449,1.563-0.675,2.471-0.675
		c1.682,0,3.031,0.573,4.05,1.719c1.019,1.146,1.528,2.666,1.528,4.56c0,1.927-0.499,3.457-1.496,4.591
		c-0.998,1.133-2.333,1.7-4.006,1.7c-0.959,0-1.795-0.219-2.508-0.656s-1.295-1.089-1.745-1.955v7.794H282.206z M284.129,102.625
		c0,1.308,0.36,2.355,1.083,3.146c0.721,0.789,1.676,1.184,2.865,1.184c1.162,0,2.077-0.36,2.744-1.082
		c0.666-0.722,0.999-1.724,0.999-3.005c0-1.435-0.333-2.56-0.999-3.375c-0.667-0.815-1.595-1.223-2.783-1.223
		c-1.214,0-2.169,0.387-2.865,1.159C284.477,100.202,284.129,101.267,284.129,102.625z"/>
	<path class="st0" d="M307.968,114.099h-1.986v-7.794c-0.441,0.866-1.02,1.518-1.732,1.955s-1.553,0.656-2.521,0.656
		c-1.672,0-3.008-0.567-4.004-1.7c-0.998-1.134-1.497-2.664-1.497-4.591c0-1.894,0.509-3.413,1.528-4.56
		c1.019-1.146,2.369-1.719,4.049-1.719c0.908,0,1.729,0.226,2.459,0.675c0.729,0.45,1.319,1.096,1.77,1.936v-2.19h1.936V114.099z
		 M306.032,102.625c0-1.358-0.346-2.424-1.038-3.196s-1.649-1.159-2.872-1.159c-1.18,0-2.109,0.407-2.788,1.223
		s-1.019,1.94-1.019,3.375c0,1.281,0.332,2.283,1,3.005c0.666,0.722,1.585,1.082,2.756,1.082c1.189,0,2.146-0.395,2.872-1.184
		C305.669,104.981,306.032,103.933,306.032,102.625z"/>
	<path class="st0" d="M312.056,108.419V96.767h1.77v2.42c0.535-1.01,1.104-1.731,1.707-2.165c0.602-0.433,1.336-0.649,2.203-0.649
		c0.236,0,0.467,0.02,0.688,0.058s0.441,0.096,0.662,0.172l-0.662,1.796c-0.229-0.077-0.446-0.134-0.65-0.173
		c-0.203-0.038-0.398-0.057-0.586-0.057c-1.053,0-1.842,0.38-2.368,1.14s-0.79,1.903-0.79,3.432v5.68H312.056z"/>
	<path class="st0" d="M319.95,106.458l1.707-1.146c0.322,0.62,0.73,1.085,1.223,1.395c0.492,0.311,1.074,0.465,1.744,0.465
		c0.654,0,1.182-0.161,1.586-0.483c0.402-0.323,0.604-0.747,0.604-1.273c0-0.408-0.138-0.747-0.413-1.02
		c-0.277-0.271-0.75-0.521-1.42-0.751l-0.332-0.114c-2.836-0.977-4.253-2.199-4.253-3.668c0-1.035,0.382-1.88,1.146-2.534
		c0.765-0.653,1.758-0.98,2.98-0.98c1.01,0,1.876,0.202,2.598,0.604c0.722,0.403,1.239,0.975,1.554,1.713l-1.617,0.993
		c-0.237-0.534-0.588-0.946-1.051-1.234c-0.463-0.289-0.999-0.434-1.61-0.434c-0.586,0-1.064,0.164-1.434,0.49
		c-0.369,0.327-0.554,0.745-0.554,1.255c0,0.713,0.772,1.312,2.317,1.795c0.289,0.094,0.518,0.166,0.688,0.217
		c1.266,0.407,2.146,0.872,2.643,1.395c0.497,0.522,0.746,1.212,0.746,2.069c0,1.104-0.394,1.997-1.179,2.681
		s-1.811,1.025-3.075,1.025c-1.087,0-2.01-0.204-2.77-0.611C321.018,107.897,320.409,107.282,319.95,106.458z"/>
	<path class="st0" d="M332.112,98.411h-2.14v-1.644h2.14v-4.698h2.037v4.698h2.14v1.644h-2.14v10.009h-2.037V98.411z"/>
	<path class="st0" d="M340.428,96.767v5.73c0,1.673,0.248,2.843,0.745,3.509c0.496,0.666,1.334,1,2.515,1s2.015-0.329,2.503-0.987
		c0.487-0.658,0.731-1.832,0.731-3.521v-5.73h2.038v6.801c0,1.757-0.451,3.088-1.35,3.992c-0.9,0.904-2.225,1.356-3.974,1.356
		c-1.731,0-3.048-0.455-3.948-1.363c-0.899-0.908-1.35-2.236-1.35-3.985v-6.801H340.428z"/>
	<path class="st0" d="M356.651,109.145l-5.769-12.378h2.241l3.502,8.138l3.515-8.138h2.241L356.651,109.145z"/>
	<path class="st0" d="M371.965,96.347l3.489,8.366l3.133-7.946h2.24l-5.182,12.378l-3.834-8.939l-3.832,8.939l-5.196-12.378h2.216
		l3.107,7.946l3.54-8.366H371.965z"/>
	<path class="st0" d="M380.827,108.419l4.482-6.023l-4.354-5.629h2.483l3.018,4.164l3.057-4.164h2.482l-4.393,5.629l4.521,6.023
		h-2.483l-3.184-4.508l-3.145,4.508H380.827z"/>
	<path class="st0" d="M394.081,114.099l3.158-6.826l-4.572-10.506h2.305l3.388,8.367l3.591-8.367h2.19l-7.819,17.332H394.081z"/>
	<path class="st0" d="M404.382,108.419l6.674-9.907h-6.266v-1.745h9.779l-6.672,9.908h6.621v1.744H404.382z"/>
</g>
<g>
	<path class="st0" d="M95.817,140.707v-16.529h-3.807l1.248-1.936h4.724v18.465H95.817z"/>
	<path class="st0" d="M116.778,138.592v2.114h-11.231l3.935-4.674c0.264-0.306,0.641-0.751,1.134-1.337
		c3.03-3.591,4.546-6.1,4.546-7.526c0-0.959-0.338-1.742-1.012-2.349c-0.676-0.607-1.561-0.911-2.655-0.911
		c-1.181,0-2.085,0.329-2.712,0.987c-0.629,0.658-0.943,1.606-0.943,2.846v0.217h-2.088c0-0.06-0.004-0.145-0.014-0.255
		c-0.008-0.11-0.012-0.19-0.012-0.242c0-1.766,0.514-3.139,1.541-4.119s2.461-1.471,4.304-1.471c1.808,0,3.224,0.456,4.247,1.369
		c1.023,0.912,1.534,2.18,1.534,3.801c0,1.172-0.346,2.384-1.038,3.636c-0.691,1.252-1.916,2.838-3.674,4.756l-2.929,3.158H116.778z
		"/>
	<path class="st0" d="M120.904,135.982h2.267v0.217c0,0.951,0.311,1.704,0.93,2.26c0.619,0.557,1.465,0.835,2.534,0.835
		c1.231,0,2.182-0.313,2.853-0.937c0.67-0.624,1.006-1.509,1.006-2.655c0-1.205-0.342-2.115-1.025-2.731
		c-0.684-0.615-1.695-0.923-3.037-0.923c-0.17,0-0.299,0.002-0.389,0.006c-0.088,0.005-0.176,0.011-0.26,0.02v-1.821
		c0.067,0,0.167,0.005,0.299,0.013c0.131,0.009,0.23,0.013,0.299,0.013c1.282,0,2.25-0.28,2.904-0.84
		c0.652-0.561,0.98-1.393,0.98-2.496c0-0.977-0.298-1.751-0.893-2.324c-0.594-0.573-1.4-0.859-2.419-0.859
		c-1.087,0-1.934,0.266-2.54,0.796c-0.607,0.53-0.937,1.301-0.987,2.312l-2.19-0.014c0.085-1.604,0.622-2.835,1.611-3.692
		c0.988-0.857,2.375-1.286,4.157-1.286c1.715,0,3.073,0.445,4.075,1.337s1.502,2.097,1.502,3.616c0,1.104-0.29,2.038-0.871,2.802
		c-0.582,0.765-1.395,1.282-2.439,1.554c1.112,0.187,1.982,0.686,2.611,1.496c0.627,0.812,0.941,1.845,0.941,3.102
		c0,1.689-0.554,3.016-1.662,3.979c-1.107,0.963-2.642,1.445-4.603,1.445c-1.724,0-3.097-0.442-4.12-1.325s-1.534-2.066-1.534-3.553
		V135.982z"/>
	<path class="st0" d="M144.157,140.707v-4.012h-8.735l9.983-14.822h0.942v13.015h2.19v1.808h-2.19v4.012H144.157z M144.157,134.887
		v-8.188l-5.45,8.188H144.157z"/>
	<path class="st0" d="M152.944,131.398l-0.42-0.076l2.215-9.08h8.189v1.91h-6.674l-1.172,4.788c0.426-0.221,0.879-0.389,1.363-0.503
		s0.993-0.172,1.528-0.172c1.825,0,3.269,0.546,4.329,1.637c1.062,1.091,1.592,2.57,1.592,4.438c0,2.122-0.613,3.797-1.84,5.023
		c-1.227,1.228-2.896,1.841-5.011,1.841c-1.282,0-2.38-0.224-3.292-0.669s-1.688-1.136-2.324-2.069l1.566-1.821
		c0.416,0.85,0.975,1.499,1.675,1.948c0.7,0.45,1.509,0.675,2.426,0.675c1.341,0,2.419-0.428,3.234-1.286
		c0.815-0.857,1.223-1.999,1.223-3.425c0-1.358-0.423-2.447-1.267-3.267c-0.846-0.819-1.973-1.229-3.381-1.229
		c-0.739,0-1.441,0.112-2.107,0.337C154.131,130.624,153.513,130.957,152.944,131.398z"/>
	<path class="st0" d="M170.912,130.175c0.458-0.306,0.921-0.53,1.388-0.675s0.96-0.217,1.478-0.217c1.673,0,3.028,0.533,4.069,1.599
		c1.039,1.065,1.56,2.455,1.56,4.17c0,1.877-0.591,3.371-1.771,4.482c-1.18,1.112-2.78,1.669-4.801,1.669
		c-1.706,0-3.084-0.561-4.133-1.682c-1.048-1.12-1.572-2.593-1.572-4.419c0-1.757,1.168-4.291,3.502-7.602l0.115-0.166l4.253-6.011
		l1.936,1.019L170.912,130.175z M169.423,135.282c0,1.257,0.348,2.25,1.043,2.979c0.697,0.73,1.635,1.096,2.814,1.096
		c1.154,0,2.082-0.376,2.783-1.127c0.7-0.752,1.051-1.743,1.051-2.974c0-1.273-0.353-2.279-1.057-3.019
		c-0.705-0.738-1.674-1.107-2.904-1.107c-1.112,0-2.012,0.384-2.699,1.152S169.423,134.051,169.423,135.282z"/>
	<path class="st0" d="M183.939,140.477l7.959-16.3h-8.634v-1.936h11.817l-9.309,19.165L183.939,140.477z"/>
	<path class="st0" d="M201.653,130.85c-1.053-0.331-1.843-0.855-2.369-1.572c-0.526-0.718-0.789-1.628-0.789-2.731
		c0-1.367,0.518-2.488,1.553-3.362c1.036-0.874,2.387-1.312,4.05-1.312c1.706,0,3.063,0.441,4.069,1.324s1.509,2.059,1.509,3.527
		c0,1.011-0.274,1.876-0.821,2.598c-0.548,0.722-1.322,1.231-2.324,1.528c1.214,0.349,2.156,0.951,2.827,1.809
		s1.006,1.889,1.006,3.094c0,1.698-0.554,3.031-1.662,3.999s-2.642,1.452-4.604,1.452c-1.936,0-3.466-0.486-4.591-1.459
		c-1.125-0.972-1.688-2.285-1.688-3.94c0-1.24,0.334-2.293,1-3.158C199.485,131.78,200.431,131.181,201.653,130.85z
		 M204.072,139.408c1.231,0,2.19-0.331,2.878-0.993s1.031-1.583,1.031-2.764c0-1.197-0.346-2.135-1.037-2.814
		c-0.692-0.679-1.649-1.019-2.872-1.019c-1.214,0-2.169,0.342-2.865,1.025s-1.044,1.619-1.044,2.808
		c0,1.181,0.344,2.102,1.031,2.764S202.841,139.408,204.072,139.408z M204.098,123.566c-1.019,0-1.825,0.278-2.419,0.834
		c-0.595,0.557-0.892,1.314-0.892,2.273c0,0.951,0.288,1.693,0.866,2.229c0.576,0.535,1.375,0.802,2.394,0.802
		c1.053,0,1.872-0.265,2.458-0.796c0.586-0.53,0.879-1.275,0.879-2.234s-0.293-1.717-0.879-2.273
		C205.919,123.844,205.116,123.566,204.098,123.566z"/>
	<path class="st0" d="M221.723,132.887c-0.458,0.298-0.921,0.519-1.388,0.663c-0.468,0.144-0.96,0.216-1.478,0.216
		c-1.673,0-3.028-0.532-4.069-1.598c-1.039-1.065-1.56-2.452-1.56-4.158c0-1.885,0.586-3.379,1.757-4.482
		c1.172-1.104,2.768-1.655,4.789-1.655c1.706,0,3.084,0.563,4.132,1.688s1.573,2.6,1.573,4.425c0,1.758-1.168,4.292-3.502,7.603
		l-0.09,0.127l-4.253,6.011l-1.936-0.993L221.723,132.887z M223.212,127.793c0-1.256-0.348-2.251-1.044-2.985
		s-1.634-1.102-2.813-1.102c-1.155,0-2.082,0.373-2.783,1.12c-0.7,0.747-1.051,1.736-1.051,2.967c0,1.282,0.351,2.291,1.051,3.024
		c0.701,0.734,1.662,1.102,2.885,1.102c1.111,0,2.016-0.382,2.712-1.146C222.864,130.009,223.212,129.016,223.212,127.793z"/>
	<path class="st0" d="M234.864,141.204c-2.012,0-3.598-0.86-4.756-2.579c-1.159-1.719-1.738-4.086-1.738-7.1
		c0-2.997,0.574-5.354,1.726-7.074c1.149-1.719,2.723-2.578,4.718-2.578c2.037,0,3.629,0.849,4.775,2.547s1.719,4.066,1.719,7.105
		c0,3.031-0.57,5.401-1.713,7.112C238.454,140.348,236.876,141.204,234.864,141.204z M234.839,139.382
		c1.367,0,2.404-0.664,3.113-1.993c0.709-1.328,1.064-3.274,1.064-5.839c0-2.572-0.355-4.526-1.064-5.864
		c-0.709-1.337-1.746-2.005-3.113-2.005c-1.316,0-2.341,0.686-3.075,2.056c-0.734,1.372-1.102,3.292-1.102,5.763
		c0,2.487,0.367,4.423,1.102,5.807S233.522,139.382,234.839,139.382z"/>
</g>
<g>
	<path class="st0" d="M270.525,139.458c0-0.416,0.148-0.772,0.445-1.069c0.298-0.297,0.653-0.446,1.069-0.446
		c0.425,0,0.788,0.146,1.09,0.439c0.301,0.293,0.451,0.651,0.451,1.076c0,0.416-0.148,0.767-0.445,1.051s-0.662,0.427-1.096,0.427
		c-0.424,0-0.783-0.143-1.076-0.427S270.525,139.875,270.525,139.458z"/>
	<path class="st0" d="M285.132,144.413l2.42-6.94l2.164,0.751l-3.119,6.762L285.132,144.413z"/>
	<path class="st0" d="M301.636,130.875c0-0.416,0.148-0.772,0.445-1.069s0.653-0.446,1.069-0.446s0.771,0.149,1.063,0.446
		s0.439,0.653,0.439,1.069c0,0.425-0.145,0.783-0.434,1.076c-0.288,0.293-0.645,0.439-1.069,0.439s-0.783-0.146-1.076-0.439
		C301.782,131.659,301.636,131.3,301.636,130.875z M301.636,139.433c0-0.416,0.146-0.769,0.438-1.057
		c0.293-0.289,0.651-0.434,1.076-0.434c0.416,0,0.771,0.145,1.063,0.434c0.293,0.288,0.439,0.641,0.439,1.057
		s-0.145,0.771-0.434,1.063c-0.288,0.293-0.645,0.439-1.069,0.439s-0.783-0.146-1.076-0.439
		C301.782,140.204,301.636,139.849,301.636,139.433z"/>
	<path class="st0" d="M316.649,144.413l2.432-6.94l2.165,0.751l-3.157,6.762L316.649,144.413z M318.61,130.875
		c0-0.416,0.146-0.772,0.439-1.069s0.646-0.446,1.063-0.446c0.425,0,0.783,0.149,1.076,0.446s0.439,0.653,0.439,1.069
		c0,0.425-0.145,0.783-0.433,1.076s-0.649,0.439-1.083,0.439c-0.424,0-0.781-0.146-1.068-0.439
		C318.755,131.659,318.61,131.3,318.61,130.875z"/>
	<path class="st0" d="M332.783,133.894h5.947v2.012h-5.947V133.894z"/>
	<path class="st0" d="M361.27,145.355v1.502h-13.04v-1.502H361.27z"/>
	<path class="st0" d="M371.624,139.688c0-0.416,0.148-0.772,0.445-1.07c0.297-0.297,0.653-0.445,1.069-0.445
		s0.771,0.148,1.063,0.445c0.293,0.298,0.439,0.654,0.439,1.07c0,0.425-0.145,0.783-0.434,1.076
		c-0.288,0.293-0.645,0.439-1.069,0.439s-0.783-0.146-1.076-0.439C371.77,140.471,371.624,140.113,371.624,139.688z M372.12,136.479
		v-14.836h2.037v14.836H372.12z"/>
	<path class="st0" d="M379.938,123.133c0-0.425,0.145-0.779,0.434-1.063c0.288-0.284,0.649-0.427,1.082-0.427
		c0.424,0,0.781,0.143,1.07,0.427c0.288,0.284,0.433,0.639,0.433,1.063c0,0.416-0.146,0.771-0.439,1.063s-0.647,0.439-1.063,0.439
		s-0.772-0.146-1.069-0.439C380.087,123.904,379.938,123.549,379.938,123.133z M380.435,126.342h2.038v14.861h-2.038V126.342z"/>
	<path class="st0" d="M398.213,130.608h-1.987v-0.382c0-1.299,0.345-2.303,1.032-3.012s1.659-1.063,2.916-1.063
		c1.172,0,2.091,0.329,2.757,0.987s1,1.564,1,2.719c0,0.772-0.217,1.469-0.649,2.088c-0.433,0.62-1.261,1.358-2.483,2.216
		c-0.127,0.085-0.306,0.204-0.535,0.357c-1.613,1.095-2.419,2.046-2.419,2.853c0,0.585,0.204,1.053,0.61,1.4
		c0.408,0.348,0.955,0.522,1.644,0.522c0.755,0,1.339-0.233,1.751-0.701c0.412-0.467,0.617-1.137,0.617-2.012h2.063v0.344
		c0,1.291-0.407,2.326-1.223,3.107s-1.885,1.172-3.209,1.172c-1.393,0-2.485-0.365-3.279-1.096c-0.794-0.729-1.19-1.731-1.19-3.005
		c0-0.765,0.23-1.456,0.693-2.076c0.463-0.619,1.357-1.371,2.682-2.254c0.127-0.085,0.313-0.208,0.56-0.369
		c1.521-0.977,2.28-1.901,2.28-2.776c0-0.467-0.164-0.853-0.49-1.158c-0.328-0.306-0.737-0.459-1.229-0.459
		c-0.637,0-1.114,0.208-1.433,0.624s-0.478,1.04-0.478,1.872V130.608z M401.893,123.159c0,0.416-0.148,0.771-0.446,1.063
		s-0.653,0.439-1.069,0.439s-0.773-0.146-1.07-0.439s-0.445-0.647-0.445-1.063c0-0.425,0.146-0.783,0.439-1.076
		s0.651-0.439,1.076-0.439c0.424,0,0.783,0.146,1.076,0.439S401.893,122.734,401.893,123.159z"/>
	<path class="st0" d="M415.531,132.225h1.962v0.421c0,1.29-0.34,2.288-1.02,2.992c-0.68,0.705-1.646,1.057-2.903,1.057
		c-1.171,0-2.091-0.331-2.757-0.993s-1-1.574-1-2.737c0-0.772,0.213-1.467,0.637-2.082c0.425-0.616,1.248-1.348,2.471-2.197
		c0.136-0.093,0.326-0.225,0.573-0.395c1.604-1.078,2.407-2.017,2.407-2.814c0-0.586-0.205-1.055-0.611-1.407
		c-0.408-0.352-0.955-0.528-1.643-0.528c-0.756,0-1.34,0.235-1.752,0.707c-0.412,0.471-0.617,1.14-0.617,2.006h-2.063v-0.331
		c0-1.291,0.402-2.326,1.209-3.107s1.872-1.172,3.196-1.172c1.401,0,2.501,0.363,3.298,1.089c0.799,0.726,1.197,1.717,1.197,2.974
		c0,0.772-0.235,1.475-0.707,2.107c-0.471,0.633-1.359,1.382-2.668,2.248c-0.127,0.093-0.313,0.216-0.56,0.369
		c-1.521,0.984-2.279,1.914-2.279,2.788c0,0.476,0.159,0.864,0.478,1.166c0.318,0.301,0.724,0.452,1.216,0.452
		c0.646,0,1.129-0.208,1.452-0.624c0.322-0.416,0.483-1.04,0.483-1.872V132.225z M411.85,139.688c0-0.416,0.148-0.772,0.446-1.07
		c0.297-0.297,0.653-0.445,1.069-0.445s0.773,0.148,1.07,0.445c0.297,0.298,0.445,0.654,0.445,1.07c0,0.425-0.146,0.783-0.439,1.076
		s-0.651,0.439-1.076,0.439c-0.424,0-0.783-0.146-1.076-0.439S411.85,140.113,411.85,139.688z"/>
	<path class="st0" d="M432.138,122.216l-2.395,6.94l-2.189-0.79l3.158-6.724L432.138,122.216z"/>
	<path class="st0" d="M444.911,122.216l-2.42,6.94l-2.164-0.79l3.158-6.724L444.911,122.216z M449.534,122.216l-2.433,6.94
		l-2.165-0.79l3.133-6.724L449.534,122.216z"/>
</g>
<rect y="28.039" class="st0" width="477.333" height="2.346"/>
</svg>