<!-- Generator: Adobe Illustrator 24.1.2, SVG Export Plug-In  -->
<svg version="1.1" xmlns="http://www.w3.org/2000/svg" xmlns:xlink="http://www.w3.org/1999/xlink" x="0px" y="0px"
	 width="325.596px" height="97.555px" viewBox="0 0 325.596 97.555"
	 style="overflow:visible;enable-background:new 0 0 325.596 97.555;" xml:space="preserve">
<style type="text/css">
	.st0{fill:none;}
	.st1{fill:#1D1D1B;}
</style>
<defs>
</defs>
<g>
	<g>
		<path class="st0" d="M13.611,24.185c0,5.866,4.756,10.622,10.622,10.622V13.563C18.367,13.563,13.611,18.319,13.611,24.185z"/>
		<circle class="st0" cx="7.223" cy="37.502" r="3.692"/>
		<path class="st1" d="M13.611,24.185c0-5.866,4.756-10.622,10.622-10.622V9.747c-7.974,0-14.438,6.464-14.438,14.438
			c0,7.327,5.458,13.379,12.531,14.313v6.782h1.908V34.807C18.367,34.807,13.611,30.052,13.611,24.185z"/>
		<path class="st1" d="M7.223,31.903c-3.092,0-5.599,2.507-5.599,5.599c0,2.725,1.947,4.994,4.526,5.495v2.283h2.003v-2.257
			c2.65-0.443,4.669-2.745,4.669-5.521C12.822,34.41,10.315,31.903,7.223,31.903z M7.223,41.195c-2.039,0-3.692-1.653-3.692-3.692
			c0-2.039,1.653-3.692,3.692-3.692c2.039,0,3.692,1.653,3.692,3.692C10.915,39.541,9.262,41.195,7.223,41.195z"/>
		<path class="st1" d="M0,8.104l1.541,3.71c8.039-3.47,15.84-4.629,22.693-4.62V3.279C9.819,3.319,0,8.104,0,8.104z"/>
	</g>
	<g>
		<path class="st0" d="M34.855,24.186c0,5.866-4.756,10.622-10.622,10.622V13.564C30.1,13.564,34.855,18.319,34.855,24.186z"/>
		<circle class="st0" cx="41.244" cy="37.502" r="3.692"/>
		<path class="st1" d="M34.855,24.186c0-5.866-4.756-10.622-10.622-10.622V9.747c7.974,0,14.438,6.464,14.438,14.438
			c0,7.327-5.458,13.379-12.531,14.313v6.782h-1.908V34.808C30.1,34.808,34.855,30.052,34.855,24.186z"/>
		<path class="st1" d="M35.645,37.502c0,2.775,2.02,5.078,4.669,5.521v2.257h2.003v-2.283c2.579-0.501,4.526-2.77,4.526-5.495
			c0-3.092-2.507-5.599-5.599-5.599C38.152,31.903,35.645,34.41,35.645,37.502z M37.552,37.502c0-2.039,1.653-3.692,3.692-3.692
			c2.039,0,3.692,1.653,3.692,3.692c0,2.039-1.653,3.692-3.692,3.692C39.205,41.195,37.552,39.542,37.552,37.502z"/>
		<path class="st1" d="M48.467,8.104l-1.541,3.71c-8.039-3.47-15.84-4.629-22.693-4.62V3.279
			C38.648,3.319,48.467,8.104,48.467,8.104z"/>
	</g>
</g>
<g>
	<g>
		<path class="st0" d="M62.078,24.185c0,5.866,4.756,10.622,10.622,10.622V13.563C66.834,13.563,62.078,18.319,62.078,24.185z"/>
		<circle class="st0" cx="55.69" cy="37.502" r="3.692"/>
		<path class="st1" d="M62.078,24.185c0-5.866,4.756-10.622,10.622-10.622V9.747c-7.974,0-14.438,6.464-14.438,14.438
			c0,7.327,5.458,13.379,12.531,14.313v6.782H72.7V34.807C66.834,34.807,62.078,30.052,62.078,24.185z"/>
		<path class="st1" d="M55.69,31.903c-3.092,0-5.599,2.507-5.599,5.599c0,2.725,1.947,4.994,4.526,5.495v2.283h2.003v-2.257
			c2.65-0.443,4.669-2.745,4.669-5.521C61.289,34.41,58.782,31.903,55.69,31.903z M55.69,41.195c-2.039,0-3.692-1.653-3.692-3.692
			c0-2.039,1.653-3.692,3.692-3.692c2.039,0,3.692,1.653,3.692,3.692C59.382,39.541,57.729,41.195,55.69,41.195z"/>
		<path class="st1" d="M48.467,8.104l1.541,3.71c8.039-3.47,15.84-4.629,22.693-4.62V3.279C58.286,3.319,48.467,8.104,48.467,8.104z
			"/>
	</g>
	<g>
		<path class="st0" d="M83.322,24.186c0,5.866-4.756,10.622-10.622,10.622V13.564C78.567,13.564,83.322,18.319,83.322,24.186z"/>
		<circle class="st0" cx="89.711" cy="37.502" r="3.692"/>
		<path class="st1" d="M83.322,24.186c0-5.866-4.756-10.622-10.622-10.622V9.747c7.974,0,14.438,6.464,14.438,14.438
			c0,7.327-5.458,13.379-12.531,14.313v6.782H72.7V34.808C78.567,34.808,83.322,30.052,83.322,24.186z"/>
		<path class="st1" d="M84.112,37.502c0,2.775,2.02,5.078,4.669,5.521v2.257h2.003v-2.283c2.579-0.501,4.526-2.77,4.526-5.495
			c0-3.092-2.507-5.599-5.599-5.599S84.112,34.41,84.112,37.502z M86.019,37.502c0-2.039,1.653-3.692,3.692-3.692
			s3.692,1.653,3.692,3.692c0,2.039-1.653,3.692-3.692,3.692S86.019,39.542,86.019,37.502z"/>
		<path class="st1" d="M96.934,8.104l-1.541,3.71c-8.039-3.47-15.84-4.629-22.693-4.62V3.279
			C87.115,3.319,96.934,8.104,96.934,8.104z"/>
	</g>
</g>
<g>
	<g>
		<path class="st0" d="M13.611,66.187c0,5.866,4.756,10.622,10.622,10.622V55.565C18.367,55.565,13.611,60.32,13.611,66.187z"/>
		<circle class="st0" cx="7.223" cy="79.504" r="3.692"/>
		<path class="st1" d="M13.611,66.187c0-5.866,4.756-10.622,10.622-10.622v-3.816c-7.974,0-14.438,6.464-14.438,14.438
			c0,7.327,5.458,13.379,12.531,14.313v6.782h1.908V76.809C18.367,76.809,13.611,72.053,13.611,66.187z"/>
		<path class="st1" d="M7.223,73.905c-3.092,0-5.599,2.507-5.599,5.599c0,2.725,1.947,4.994,4.526,5.495v2.283h2.003v-2.257
			c2.65-0.443,4.669-2.745,4.669-5.521C12.822,76.411,10.315,73.905,7.223,73.905z M7.223,83.196c-2.039,0-3.692-1.653-3.692-3.692
			c0-2.039,1.653-3.692,3.692-3.692c2.039,0,3.692,1.653,3.692,3.692C10.915,81.543,9.262,83.196,7.223,83.196z"/>
		<path class="st1" d="M0,50.105l1.541,3.71c8.039-3.47,15.84-4.629,22.693-4.62V45.28C9.819,45.32,0,50.105,0,50.105z"/>
	</g>
	<g>
		<path class="st0" d="M34.855,66.187c0,5.866-4.756,10.622-10.622,10.622V55.565C30.1,55.565,34.855,60.321,34.855,66.187z"/>
		<circle class="st0" cx="41.244" cy="79.504" r="3.692"/>
		<path class="st1" d="M34.855,66.187c0-5.866-4.756-10.622-10.622-10.622v-3.816c7.974,0,14.438,6.464,14.438,14.438
			c0,7.327-5.458,13.379-12.531,14.313v6.782h-1.908V76.809C30.1,76.809,34.855,72.053,34.855,66.187z"/>
		<path class="st1" d="M35.645,79.504c0,2.775,2.02,5.078,4.669,5.521v2.257h2.003v-2.283c2.579-0.501,4.526-2.77,4.526-5.495
			c0-3.092-2.507-5.599-5.599-5.599C38.152,73.905,35.645,76.412,35.645,79.504z M37.552,79.504c0-2.039,1.653-3.692,3.692-3.692
			c2.039,0,3.692,1.653,3.692,3.692c0,2.039-1.653,3.692-3.692,3.692C39.205,83.196,37.552,81.543,37.552,79.504z"/>
		<path class="st1" d="M48.467,50.105l-1.541,3.71c-8.039-3.47-15.84-4.629-22.693-4.62V45.28
			C38.648,45.321,48.467,50.105,48.467,50.105z"/>
	</g>
</g>
<g>
	<g>
		<path class="st0" d="M62.078,66.187c0,5.866,4.756,10.622,10.622,10.622V55.565C66.834,55.565,62.078,60.32,62.078,66.187z"/>
		<circle class="st0" cx="55.69" cy="79.504" r="3.692"/>
		<path class="st1" d="M62.078,66.187c0-5.866,4.756-10.622,10.622-10.622v-3.816c-7.974,0-14.438,6.464-14.438,14.438
			c0,7.327,5.458,13.379,12.531,14.313v6.782H72.7V76.809C66.834,76.809,62.078,72.053,62.078,66.187z"/>
		<path class="st1" d="M55.69,73.905c-3.092,0-5.599,2.507-5.599,5.599c0,2.725,1.947,4.994,4.526,5.495v2.283h2.003v-2.257
			c2.65-0.443,4.669-2.745,4.669-5.521C61.289,76.411,58.782,73.905,55.69,73.905z M55.69,83.196c-2.039,0-3.692-1.653-3.692-3.692
			c0-2.039,1.653-3.692,3.692-3.692c2.039,0,3.692,1.653,3.692,3.692C59.382,81.543,57.729,83.196,55.69,83.196z"/>
		<path class="st1" d="M48.467,50.105l1.541,3.71c8.039-3.47,15.84-4.629,22.693-4.62V45.28
			C58.286,45.32,48.467,50.105,48.467,50.105z"/>
	</g>
	<g>
		<path class="st0" d="M83.322,66.187c0,5.866-4.756,10.622-10.622,10.622V55.565C78.567,55.565,83.322,60.321,83.322,66.187z"/>
		<circle class="st0" cx="89.711" cy="79.504" r="3.692"/>
		<path class="st1" d="M83.322,66.187c0-5.866-4.756-10.622-10.622-10.622v-3.816c7.974,0,14.438,6.464,14.438,14.438
			c0,7.327-5.458,13.379-12.531,14.313v6.782H72.7V76.809C78.567,76.809,83.322,72.053,83.322,66.187z"/>
		<path class="st1" d="M84.112,79.504c0,2.775,2.02,5.078,4.669,5.521v2.257h2.003v-2.283c2.579-0.501,4.526-2.77,4.526-5.495
			c0-3.092-2.507-5.599-5.599-5.599S84.112,76.412,84.112,79.504z M86.019,79.504c0-2.039,1.653-3.692,3.692-3.692
			s3.692,1.653,3.692,3.692c0,2.039-1.653,3.692-3.692,3.692S86.019,81.543,86.019,79.504z"/>
		<path class="st1" d="M96.934,50.105l-1.541,3.71c-8.039-3.47-15.84-4.629-22.693-4.62V45.28
			C87.115,45.321,96.934,50.105,96.934,50.105z"/>
	</g>
</g>
<g>
	<g>
		<path class="st0" d="M140.965,13.673c-5.866,0-10.622,4.756-10.622,10.622h21.244C151.587,18.428,146.831,13.673,140.965,13.673z"
			/>
		<circle class="st0" cx="127.648" cy="7.284" r="3.692"/>
		<path class="st1" d="M140.965,13.673c5.866,0,10.622,4.756,10.622,10.622h3.816c0-7.974-6.464-14.438-14.438-14.438
			c-7.327,0-13.379,5.458-14.313,12.531h-6.782v1.908h10.473C130.343,18.428,135.098,13.673,140.965,13.673z"/>
		<path class="st1" d="M133.247,7.284c0-3.092-2.507-5.599-5.599-5.599c-2.725,0-4.994,1.947-5.495,4.526h-2.283v2.003h2.257
			c0.443,2.65,2.745,4.669,5.521,4.669C130.74,12.883,133.247,10.376,133.247,7.284z M123.956,7.284
			c0-2.039,1.653-3.692,3.692-3.692c2.039,0,3.692,1.653,3.692,3.692c0,2.039-1.653,3.692-3.692,3.692
			C125.609,10.976,123.956,9.323,123.956,7.284z"/>
		<path class="st1" d="M157.047,0.061l-3.71,1.541c3.47,8.039,4.629,15.84,4.62,22.693h3.916
			C161.831,9.88,157.047,0.061,157.047,0.061z"/>
	</g>
	<g>
		<path class="st0" d="M140.965,34.916c-5.866,0-10.622-4.756-10.622-10.622h21.244C151.587,30.161,146.831,34.916,140.965,34.916z"
			/>
		<circle class="st0" cx="127.648" cy="41.305" r="3.692"/>
		<path class="st1" d="M140.965,34.916c5.866,0,10.622-4.756,10.622-10.622h3.816c0,7.974-6.464,14.438-14.438,14.438
			c-7.327,0-13.379-5.458-14.313-12.531h-6.782v-1.908h10.473C130.342,30.161,135.098,34.916,140.965,34.916z"/>
		<path class="st1" d="M127.648,35.706c-2.775,0-5.078,2.02-5.521,4.669h-2.257v2.003h2.283c0.501,2.579,2.77,4.526,5.495,4.526
			c3.092,0,5.599-2.507,5.599-5.599C133.247,38.213,130.74,35.706,127.648,35.706z M127.648,37.613c2.039,0,3.692,1.653,3.692,3.692
			c0,2.039-1.653,3.692-3.692,3.692c-2.039,0-3.692-1.653-3.692-3.692C123.955,39.266,125.609,37.613,127.648,37.613z"/>
		<path class="st1" d="M157.046,48.528l-3.71-1.541c3.47-8.039,4.629-15.84,4.62-22.693h3.916
			C161.831,38.709,157.046,48.528,157.046,48.528z"/>
	</g>
</g>
<g>
	<g>
		<path class="st0" d="M182.624,35.254c5.866,0.089,10.693-4.594,10.782-10.46l-21.242-0.322
			C172.076,30.337,176.759,35.165,182.624,35.254z"/>
		<circle class="st0" cx="195.843" cy="41.844" r="3.692"/>
		<path class="st1" d="M182.624,35.254c-5.866-0.089-10.549-4.916-10.46-10.782l-3.816-0.058
			c-0.121,7.973,6.244,14.535,14.217,14.656c7.326,0.111,13.46-5.255,14.501-12.312l6.781,0.103l0.029-1.907l-10.471-0.159
			C193.317,30.66,188.49,35.343,182.624,35.254z"/>
		<path class="st1" d="M190.244,41.759c-0.047,3.092,2.421,5.636,5.513,5.683c2.725,0.041,5.023-1.871,5.563-4.442l2.283,0.035
			l0.03-2.003l-2.257-0.034c-0.403-2.656-2.674-4.71-5.449-4.753C192.836,36.198,190.291,38.667,190.244,41.759z M199.535,41.9
			c-0.031,2.039-1.709,3.667-3.748,3.636c-2.039-0.031-3.667-1.709-3.636-3.748c0.031-2.039,1.709-3.667,3.748-3.636
			C197.938,38.183,199.566,39.861,199.535,41.9z"/>
		<path class="st1" d="M166.338,48.619l3.733-1.484c-3.348-8.091-4.388-15.909-4.275-22.76l-3.915-0.059
			C161.703,38.729,166.338,48.619,166.338,48.619z"/>
	</g>
	<g>
		<path class="st0" d="M182.947,14.012c5.866,0.089,10.549,4.916,10.46,10.782l-21.242-0.322
			C172.254,18.606,177.081,13.923,182.947,14.012z"/>
		<circle class="st0" cx="196.359" cy="7.826" r="3.692"/>
		<path class="st1" d="M182.947,14.012c-5.866-0.089-10.693,4.594-10.782,10.46l-3.816-0.058
			c0.121-7.973,6.683-14.338,14.656-14.217c7.326,0.111,13.295,5.661,14.121,12.746l6.781,0.103l-0.029,1.907l-10.471-0.159
			C193.496,18.928,188.813,14.101,182.947,14.012z"/>
		<path class="st1" d="M196.274,13.424c2.775,0.042,5.108-1.942,5.591-4.585l2.257,0.034l0.03-2.003l-2.283-0.035
			c-0.462-2.586-2.701-4.567-5.426-4.609c-3.092-0.047-5.636,2.421-5.683,5.513S193.182,13.378,196.274,13.424z M196.303,11.518
			c-2.039-0.031-3.667-1.709-3.636-3.748c0.031-2.039,1.709-3.667,3.748-3.636c2.039,0.031,3.667,1.709,3.636,3.748
			C200.02,9.921,198.342,11.549,196.303,11.518z"/>
		<path class="st1" d="M167.074,0.158l3.686,1.597c-3.592,7.986-4.869,15.768-4.963,22.62l-3.915-0.059
			C162.141,9.903,167.074,0.158,167.074,0.158z"/>
	</g>
</g>
<g>
	<g>
		<path class="st0" d="M140.965,62.139c-5.866,0-10.622,4.756-10.622,10.622h21.244C151.587,66.895,146.831,62.139,140.965,62.139z"
			/>
		<circle class="st0" cx="127.648" cy="55.751" r="3.692"/>
		<path class="st1" d="M140.965,62.139c5.866,0,10.622,4.756,10.622,10.622h3.816c0-7.974-6.464-14.438-14.438-14.438
			c-7.327,0-13.379,5.458-14.313,12.531h-6.782v1.908h10.473C130.343,66.895,135.098,62.139,140.965,62.139z"/>
		<path class="st1" d="M133.247,55.751c0-3.092-2.507-5.599-5.599-5.599c-2.725,0-4.994,1.947-5.495,4.526h-2.283v2.003h2.257
			c0.443,2.65,2.745,4.669,5.521,4.669C130.74,61.35,133.247,58.843,133.247,55.751z M123.956,55.751
			c0-2.039,1.653-3.692,3.692-3.692c2.039,0,3.692,1.653,3.692,3.692c0,2.039-1.653,3.692-3.692,3.692
			C125.609,59.443,123.956,57.79,123.956,55.751z"/>
		<path class="st1" d="M157.047,48.528l-3.71,1.541c3.47,8.039,4.629,15.84,4.62,22.693h3.916
			C161.831,58.347,157.047,48.528,157.047,48.528z"/>
	</g>
	<g>
		<path class="st0" d="M140.965,83.383c-5.866,0-10.622-4.756-10.622-10.622h21.244C151.587,78.628,146.831,83.383,140.965,83.383z"
			/>
		<circle class="st0" cx="127.648" cy="89.772" r="3.692"/>
		<path class="st1" d="M140.965,83.383c5.866,0,10.622-4.756,10.622-10.622h3.816c0,7.974-6.464,14.438-14.438,14.438
			c-7.327,0-13.379-5.458-14.313-12.531h-6.782v-1.908h10.473C130.342,78.628,135.098,83.383,140.965,83.383z"/>
		<path class="st1" d="M127.648,84.173c-2.775,0-5.078,2.02-5.521,4.669h-2.257v2.003h2.283c0.501,2.579,2.77,4.526,5.495,4.526
			c3.092,0,5.599-2.507,5.599-5.599S130.74,84.173,127.648,84.173z M127.648,86.08c2.039,0,3.692,1.653,3.692,3.692
			c0,2.039-1.653,3.692-3.692,3.692c-2.039,0-3.692-1.653-3.692-3.692C123.955,87.733,125.609,86.08,127.648,86.08z"/>
		<path class="st1" d="M157.046,96.995l-3.71-1.541c3.47-8.039,4.629-15.84,4.62-22.693h3.916
			C161.831,87.176,157.046,96.995,157.046,96.995z"/>
	</g>
</g>
<g>
	<g>
		<path class="st0" d="M182.63,83.798c5.866,0.089,10.693-4.594,10.782-10.46l-21.242-0.322
			C172.081,78.882,176.764,83.709,182.63,83.798z"/>
		<circle class="st0" cx="195.848" cy="90.388" r="3.692"/>
		<path class="st1" d="M182.63,83.798c-5.866-0.089-10.549-4.916-10.46-10.782l-3.816-0.058
			c-0.121,7.973,6.244,14.535,14.217,14.656c7.326,0.111,13.46-5.255,14.501-12.312l6.781,0.103l0.029-1.907l-10.471-0.159
			C193.323,79.204,188.495,83.887,182.63,83.798z"/>
		<path class="st1" d="M190.25,90.303c-0.047,3.092,2.421,5.636,5.513,5.683c2.725,0.041,5.023-1.871,5.563-4.442l2.283,0.035
			l0.03-2.003l-2.257-0.034c-0.403-2.656-2.674-4.71-5.449-4.753C192.841,84.743,190.297,87.211,190.25,90.303z M199.54,90.444
			c-0.031,2.039-1.709,3.667-3.748,3.636c-2.039-0.031-3.667-1.709-3.636-3.748c0.031-2.039,1.709-3.667,3.748-3.636
			C197.943,86.727,199.571,88.405,199.54,90.444z"/>
		<path class="st1" d="M166.343,97.164l3.733-1.484c-3.348-8.091-4.388-15.909-4.275-22.76l-3.915-0.059
			C161.708,87.274,166.343,97.164,166.343,97.164z"/>
	</g>
	<g>
		<path class="st0" d="M182.952,62.557c5.866,0.089,10.549,4.916,10.46,10.782l-21.242-0.322
			C172.259,67.151,177.087,62.468,182.952,62.557z"/>
		<circle class="st0" cx="196.365" cy="56.371" r="3.692"/>
		<path class="st1" d="M182.952,62.557c-5.866-0.089-10.693,4.594-10.782,10.46l-3.816-0.058
			c0.121-7.973,6.683-14.338,14.656-14.217c7.326,0.111,13.295,5.661,14.121,12.746l6.781,0.103l-0.029,1.907l-10.471-0.159
			C193.501,67.473,188.818,62.646,182.952,62.557z"/>
		<path class="st1" d="M196.28,61.969c2.775,0.042,5.108-1.942,5.591-4.585l2.257,0.034l0.03-2.003l-2.283-0.035
			c-0.462-2.586-2.701-4.567-5.426-4.609c-3.092-0.047-5.636,2.421-5.683,5.513C190.719,59.378,193.188,61.922,196.28,61.969z
			 M196.308,60.063c-2.039-0.031-3.667-1.709-3.636-3.748c0.031-2.039,1.709-3.667,3.748-3.636c2.039,0.031,3.667,1.709,3.636,3.748
			C200.026,58.466,198.347,60.094,196.308,60.063z"/>
		<path class="st1" d="M167.079,48.703l3.686,1.597c-3.592,7.986-4.869,15.768-4.963,22.62l-3.915-0.059
			C162.146,58.448,167.079,48.703,167.079,48.703z"/>
	</g>
</g>
<g>
	<g>
		<path class="st0" d="M262.346,35.096c5.866,0.089,10.693-4.594,10.782-10.46l-21.242-0.322
			C251.797,30.179,256.48,35.006,262.346,35.096z"/>
		<circle class="st0" cx="275.564" cy="41.686" r="3.692"/>
		<path class="st1" d="M262.346,35.096c-5.866-0.089-10.549-4.916-10.46-10.782l-3.816-0.058
			c-0.121,7.973,6.244,14.535,14.217,14.656c7.326,0.111,13.46-5.255,14.501-12.312l6.781,0.103l0.029-1.907l-10.471-0.159
			C273.039,30.502,268.212,35.185,262.346,35.096z"/>
		<path class="st1" d="M269.966,41.601c-0.047,3.092,2.421,5.636,5.513,5.683c2.725,0.041,5.023-1.871,5.563-4.442l2.283,0.035
			l0.03-2.003l-2.257-0.034c-0.403-2.656-2.674-4.71-5.449-4.753C272.557,36.04,270.013,38.509,269.966,41.601z M279.256,41.742
			c-0.031,2.039-1.709,3.667-3.748,3.636c-2.039-0.031-3.667-1.709-3.636-3.748c0.031-2.039,1.709-3.667,3.748-3.636
			S279.287,39.703,279.256,41.742z"/>
		<path class="st1" d="M246.059,48.461l3.733-1.484c-3.348-8.091-4.388-15.909-4.275-22.76l-3.915-0.059
			C241.424,38.571,246.059,48.461,246.059,48.461z"/>
	</g>
	<g>
		<path class="st0" d="M262.669,13.854c5.866,0.089,10.549,4.916,10.46,10.782l-21.242-0.322
			C251.976,18.448,256.803,13.765,262.669,13.854z"/>
		<circle class="st0" cx="276.081" cy="7.668" r="3.692"/>
		<path class="st1" d="M262.669,13.854c-5.866-0.089-10.693,4.594-10.782,10.46l-3.816-0.058
			c0.121-7.973,6.683-14.338,14.656-14.217c7.326,0.111,13.295,5.661,14.121,12.746l6.781,0.103l-0.029,1.907l-10.471-0.159
			C273.217,18.77,268.534,13.943,262.669,13.854z"/>
		<path class="st1" d="M275.996,13.266c2.775,0.042,5.108-1.942,5.591-4.585l2.257,0.034l0.03-2.003l-2.283-0.035
			c-0.462-2.586-2.701-4.567-5.426-4.609c-3.092-0.047-5.636,2.421-5.683,5.513C270.436,10.675,272.904,13.22,275.996,13.266z
			 M276.025,11.36c-2.039-0.031-3.667-1.709-3.636-3.748c0.031-2.039,1.709-3.667,3.748-3.636c2.039,0.031,3.667,1.709,3.636,3.748
			C279.742,9.763,278.064,11.391,276.025,11.36z"/>
		<path class="st1" d="M246.795,0l3.686,1.597c-3.592,7.986-4.869,15.768-4.963,22.62l-3.915-0.059
			C241.862,9.745,246.795,0,246.795,0z"/>
	</g>
</g>
<g>
	<g>
		<path class="st0" d="M304.848,14.493c-5.866-0.089-10.693,4.594-10.782,10.46l21.242,0.322
			C315.397,19.409,310.714,14.582,304.848,14.493z"/>
		<circle class="st0" cx="291.63" cy="7.903" r="3.692"/>
		<path class="st1" d="M304.848,14.493c5.866,0.089,10.549,4.916,10.46,10.782l3.816,0.058c0.121-7.973-6.244-14.535-14.217-14.656
			c-7.326-0.111-13.46,5.255-14.501,12.312l-6.781-0.103l-0.029,1.907l10.471,0.159C294.155,19.087,298.982,14.404,304.848,14.493z"
			/>
		<path class="st1" d="M297.228,7.988c0.047-3.092-2.421-5.636-5.513-5.683c-2.725-0.041-5.023,1.871-5.563,4.442l-2.283-0.035
			l-0.03,2.003l2.257,0.034c0.403,2.656,2.674,4.71,5.449,4.753C294.637,13.548,297.181,11.079,297.228,7.988z M287.938,7.847
			c0.031-2.039,1.709-3.667,3.748-3.636c2.039,0.031,3.667,1.709,3.636,3.748c-0.031,2.039-1.709,3.667-3.748,3.636
			C289.535,11.564,287.907,9.886,287.938,7.847z"/>
		<path class="st1" d="M321.135,1.127l-3.733,1.484c3.348,8.091,4.388,15.909,4.275,22.76l3.915,0.059
			C325.77,11.017,321.135,1.127,321.135,1.127z"/>
	</g>
	<g>
		<path class="st0" d="M304.525,35.734c-5.866-0.089-10.549-4.916-10.46-10.782l21.242,0.322
			C315.219,31.14,310.391,35.823,304.525,35.734z"/>
		<circle class="st0" cx="291.113" cy="41.92" r="3.692"/>
		<path class="st1" d="M304.525,35.734c5.866,0.089,10.693-4.594,10.782-10.46l3.816,0.058c-0.121,7.973-6.683,14.338-14.656,14.217
			c-7.326-0.111-13.295-5.661-14.121-12.746l-6.781-0.103l0.029-1.907l10.471,0.159C293.977,30.818,298.66,35.645,304.525,35.734z"
			/>
		<path class="st1" d="M291.198,36.322c-2.775-0.042-5.108,1.942-5.591,4.585l-2.257-0.034l-0.03,2.003l2.283,0.035
			c0.462,2.586,2.701,4.567,5.426,4.609c3.092,0.047,5.636-2.421,5.683-5.513C296.758,38.913,294.29,36.369,291.198,36.322z
			 M291.169,38.228c2.039,0.031,3.667,1.709,3.636,3.748c-0.031,2.039-1.709,3.667-3.748,3.636
			c-2.039-0.031-3.667-1.709-3.636-3.748C287.452,39.825,289.13,38.197,291.169,38.228z"/>
		<path class="st1" d="M320.399,49.588l-3.686-1.597c3.592-7.986,4.868-15.768,4.963-22.62l3.915,0.059
			C325.332,39.843,320.399,49.588,320.399,49.588z"/>
	</g>
</g>
<g>
	<g>
		<path class="st0" d="M262.346,83.063c5.866,0.089,10.693-4.594,10.782-10.46l-21.242-0.322
			C251.797,78.146,256.48,82.974,262.346,83.063z"/>
		<circle class="st0" cx="275.564" cy="89.653" r="3.692"/>
		<path class="st1" d="M262.346,83.063c-5.866-0.089-10.549-4.916-10.46-10.782l-3.816-0.058
			c-0.121,7.973,6.244,14.535,14.217,14.656c7.326,0.111,13.46-5.255,14.501-12.312l6.781,0.103l0.029-1.907l-10.471-0.159
			C273.039,78.469,268.212,83.152,262.346,83.063z"/>
		<path class="st1" d="M269.966,89.568c-0.047,3.092,2.421,5.636,5.513,5.683c2.725,0.041,5.023-1.871,5.563-4.442l2.283,0.035
			l0.03-2.003l-2.257-0.034c-0.403-2.656-2.674-4.71-5.449-4.753C272.557,84.008,270.013,86.476,269.966,89.568z M279.256,89.709
			c-0.031,2.039-1.709,3.667-3.748,3.636c-2.039-0.031-3.667-1.709-3.636-3.748c0.031-2.039,1.709-3.667,3.748-3.636
			C277.659,85.992,279.287,87.67,279.256,89.709z"/>
		<path class="st1" d="M246.059,96.429l3.733-1.484c-3.348-8.091-4.388-15.909-4.275-22.76l-3.915-0.059
			C241.424,86.538,246.059,96.429,246.059,96.429z"/>
	</g>
	<g>
		<path class="st0" d="M262.669,61.821c5.866,0.089,10.549,4.916,10.46,10.782l-21.242-0.322
			C251.976,66.415,256.803,61.732,262.669,61.821z"/>
		<circle class="st0" cx="276.081" cy="55.635" r="3.692"/>
		<path class="st1" d="M262.669,61.821c-5.866-0.089-10.693,4.594-10.782,10.46l-3.816-0.058
			c0.121-7.973,6.683-14.338,14.656-14.217c7.326,0.111,13.295,5.661,14.121,12.746l6.781,0.103l-0.029,1.907l-10.471-0.159
			C273.217,66.738,268.534,61.91,262.669,61.821z"/>
		<path class="st1" d="M275.996,61.234c2.775,0.042,5.108-1.942,5.591-4.585l2.257,0.034l0.03-2.003l-2.283-0.035
			c-0.462-2.586-2.701-4.567-5.426-4.609c-3.092-0.047-5.636,2.421-5.683,5.513C270.436,58.642,272.904,61.187,275.996,61.234z
			 M276.025,59.327c-2.039-0.031-3.667-1.709-3.636-3.748c0.031-2.039,1.709-3.667,3.748-3.636c2.039,0.031,3.667,1.709,3.636,3.748
			C279.742,57.73,278.064,59.358,276.025,59.327z"/>
		<path class="st1" d="M246.795,47.967l3.686,1.597c-3.592,7.986-4.869,15.768-4.963,22.62l-3.915-0.059
			C241.862,57.712,246.795,47.967,246.795,47.967z"/>
	</g>
</g>
<g>
	<g>
		<path class="st0" d="M304.848,62.46c-5.866-0.089-10.693,4.594-10.782,10.46l21.242,0.322
			C315.397,67.376,310.714,62.549,304.848,62.46z"/>
		<circle class="st0" cx="291.63" cy="55.87" r="3.692"/>
		<path class="st1" d="M304.848,62.46c5.866,0.089,10.549,4.916,10.46,10.782l3.816,0.058c0.121-7.973-6.244-14.535-14.217-14.656
			c-7.326-0.111-13.46,5.255-14.501,12.312l-6.781-0.103l-0.029,1.907l10.471,0.159C294.155,67.054,298.982,62.371,304.848,62.46z"
			/>
		<path class="st1" d="M297.228,55.955c0.047-3.092-2.421-5.636-5.513-5.683c-2.725-0.041-5.023,1.871-5.563,4.442l-2.283-0.035
			l-0.03,2.003l2.257,0.034c0.403,2.656,2.674,4.71,5.449,4.753C294.637,61.515,297.181,59.047,297.228,55.955z M287.938,55.814
			c0.031-2.039,1.709-3.667,3.748-3.636c2.039,0.031,3.667,1.709,3.636,3.748c-0.031,2.039-1.709,3.667-3.748,3.636
			C289.535,59.531,287.907,57.853,287.938,55.814z"/>
		<path class="st1" d="M321.135,49.094l-3.733,1.484c3.348,8.091,4.388,15.909,4.275,22.76l3.915,0.059
			C325.77,58.985,321.135,49.094,321.135,49.094z"/>
	</g>
	<g>
		<path class="st0" d="M304.525,83.701c-5.866-0.089-10.549-4.916-10.46-10.782l21.242,0.322
			C315.219,79.108,310.391,83.791,304.525,83.701z"/>
		<circle class="st0" cx="291.113" cy="89.887" r="3.692"/>
		<path class="st1" d="M304.525,83.701c5.866,0.089,10.693-4.594,10.782-10.46l3.816,0.058c-0.121,7.973-6.683,14.338-14.656,14.217
			c-7.326-0.111-13.295-5.661-14.121-12.746l-6.781-0.103l0.029-1.907l10.471,0.159C293.977,78.785,298.66,83.612,304.525,83.701z"
			/>
		<path class="st1" d="M291.198,84.289c-2.775-0.042-5.108,1.942-5.591,4.585l-2.257-0.034l-0.03,2.003l2.283,0.035
			c0.462,2.586,2.701,4.567,5.426,4.609c3.092,0.047,5.636-2.421,5.683-5.513S294.29,84.336,291.198,84.289z M291.169,86.195
			c2.039,0.031,3.667,1.709,3.636,3.748c-0.031,2.039-1.709,3.667-3.748,3.636s-3.667-1.709-3.636-3.748
			C287.452,87.792,289.13,86.164,291.169,86.195z"/>
		<path class="st1" d="M320.399,97.555l-3.686-1.597c3.592-7.986,4.868-15.768,4.963-22.62l3.915,0.059
			C325.332,87.81,320.399,97.555,320.399,97.555z"/>
	</g>
</g>
</svg>